<?xml version="1.0" encoding="utf-8"?>
<!-- Generator: Adobe Illustrator 26.2.1, SVG Export Plug-In . SVG Version: 6.00 Build 0)  -->
<svg version="1.1" id="레이어_1" xmlns="http://www.w3.org/2000/svg" xmlns:xlink="http://www.w3.org/1999/xlink" x="0px"
	 y="0px" viewBox="0 0 50 100" style="enable-background:new 0 0 50 100;" xml:space="preserve">
<style type="text/css">
	.st0{fill-rule:evenodd;clip-rule:evenodd;fill:#040000;}
</style>
<g>
	<g>
		<g>
			<g>
				<path class="st0" d="M21.52,38.67c0.09-0.02,0.15-0.04,0.25-0.07c-0.06-0.06-0.1-0.11-0.16-0.17
					C21.5,38.49,21.51,38.57,21.52,38.67z"/>
			</g>
			<g>
				<path class="st0" d="M45.81,93.28c0-0.1-0.02-0.2-0.02-0.3c0-0.18,0-0.36,0-0.54c0.01-0.26-0.01-0.51-0.04-0.77
					c-0.03-0.32,0-0.65-0.01-0.97c-0.01-0.26-0.01-0.53-0.03-0.79c-0.02-0.22-0.07-0.44-0.08-0.67c-0.01-0.27,0.02-0.53,0-0.8
					c-0.01-0.32,0.01-0.65-0.11-0.96c-0.01-0.02-0.02-0.04-0.01-0.06c0.02-0.26-0.06-0.5-0.1-0.74c-0.09-0.55-0.15-1.11-0.25-1.66
					c-0.03-0.18-0.06-0.35-0.07-0.53c-0.01-0.17-0.06-0.35-0.12-0.52c-0.11-0.32-0.1-0.67-0.17-1c-0.02-0.09-0.03-0.18-0.05-0.27
					c-0.12-0.62-0.35-1.19-0.53-1.79c-0.07-0.23-0.16-0.46-0.24-0.69c0-0.01,0-0.02,0-0.02c-0.26-0.42-0.39-0.89-0.6-1.32
					c-0.13-0.28-0.32-0.55-0.44-0.83c-0.13-0.29-0.29-0.55-0.47-0.81c-0.05-0.07-0.07-0.18-0.06-0.26c0.02-0.52,0.02-1.04-0.03-1.56
					c-0.02-0.24,0.01-0.49,0.02-0.73c0.01-0.23,0-0.46,0.01-0.69c0.01-0.11,0.02-0.23,0.03-0.34c0.01-0.15,0.03-0.3,0.03-0.45
					c-0.01-0.25-0.04-0.51-0.06-0.76c-0.01-0.1,0-0.2,0.01-0.3c0.03-0.35,0.08-0.71,0.09-1.06c0.01-0.29-0.05-0.57-0.06-0.86
					c-0.01-0.28-0.06-0.55,0-0.84c0.04-0.19,0.02-0.39,0.03-0.58c0.02-0.35,0.04-0.71,0.06-1.06c0-0.02,0.01-0.05,0-0.06
					c-0.05-0.21-0.01-0.42,0.02-0.62c0.04-0.29,0.03-0.59,0.04-0.89c0.01-0.26,0.02-0.52,0-0.78c-0.01-0.3-0.04-0.6-0.07-0.9
					c-0.01-0.08-0.02-0.16-0.02-0.24c0.01-0.27,0.02-0.53-0.05-0.8c-0.02-0.07,0-0.15,0-0.22c0.03-0.25,0.01-0.49-0.03-0.73
					c-0.02-0.16-0.02-0.33-0.03-0.5c-0.01-0.27-0.03-0.53-0.03-0.8c0-0.3,0.01-0.61,0.01-0.91c0-0.06,0-0.12-0.01-0.17
					c-0.01-0.07-0.04-0.14,0.04-0.2c0.01-0.01,0.02-0.05,0.01-0.07c-0.1-0.22-0.06-0.47-0.07-0.7c-0.02-0.22,0-0.43,0-0.65
					c0-0.01,0-0.01,0-0.02c-0.04-0.29-0.09-0.58-0.13-0.87c-0.02-0.13-0.04-0.27-0.06-0.4c-0.04-0.16-0.08-0.32-0.13-0.47
					c-0.1-0.32-0.21-0.63-0.31-0.95c-0.02-0.08-0.05-0.17-0.08-0.24c-0.1-0.21-0.2-0.42-0.3-0.63c-0.05-0.1-0.06-0.21-0.11-0.3
					c-0.08-0.17-0.18-0.34-0.27-0.51c-0.05-0.09-0.08-0.18-0.12-0.27c-0.01-0.03-0.02-0.07-0.05-0.09
					c-0.17-0.16-0.29-0.35-0.39-0.55c-0.03-0.07-0.1-0.12-0.15-0.18c-0.19-0.25-0.38-0.5-0.56-0.76c-0.05-0.07-0.23-0.16-0.32-0.14
					c-0.1,0.03-0.16,0.09-0.19,0.2c-0.04,0.21-0.17,0.36-0.34,0.49c-0.07,0.05-0.12,0.15-0.18,0.22c-0.12,0.15-0.25,0.3-0.36,0.45
					c-0.15,0.22-0.31,0.45-0.43,0.69c-0.08,0.16-0.17,0.3-0.31,0.42c-0.01-0.11-0.03-0.21-0.04-0.32c0.09-0.08,0.11-0.17,0.1-0.3
					c0-0.23,0.04-0.47,0.07-0.71c0.07-0.56,0.1-1.13,0.09-1.69c-0.01-0.23,0.06-0.47,0.04-0.71c-0.03-0.41,0.06-0.82,0.04-1.23
					c-0.02-0.38-0.01-0.76,0-1.14c0-0.2,0.03-0.4,0.04-0.61c0.01-0.08,0.01-0.16,0.01-0.24c0-0.31-0.01-0.62-0.01-0.93
					c0-0.02,0.01-0.04,0-0.04c-0.14-0.13-0.03-0.28-0.02-0.43c0-0.11,0-0.23,0.01-0.34c0.01-0.22,0.04-0.43,0.05-0.65
					c0.01-0.12-0.03-0.24-0.03-0.36c0-0.13,0-0.25,0-0.38c0-0.06,0-0.13,0.01-0.19c0.05-0.38-0.05-0.75,0.07-1.12
					c0.03-0.08-0.01-0.18-0.02-0.27c-0.03-0.29,0.05-0.58-0.03-0.87c-0.02-0.06,0.06-0.14,0.05-0.2c-0.03-0.25-0.05-0.5,0.01-0.75
					c0.01-0.04-0.03-0.09-0.03-0.14c-0.01-0.07,0-0.14,0.01-0.21c0-0.04,0.02-0.07,0.02-0.1c-0.01-0.26-0.03-0.51-0.04-0.77
					c0-0.09,0-0.19,0.01-0.28c0.01-0.11-0.01-0.21-0.04-0.31c-0.04-0.17-0.04-0.35-0.05-0.53c-0.02-0.28-0.06-0.56-0.06-0.84
					c0-0.2,0.02-0.41,0-0.61c-0.02-0.36-0.02-0.71-0.08-1.07c-0.04-0.23-0.02-0.47-0.05-0.71c-0.04-0.44-0.05-0.89-0.13-1.33
					c-0.06-0.29-0.09-0.58-0.13-0.87c-0.01-0.1-0.03-0.19-0.13-0.25c-0.03-0.02-0.04-0.06-0.08-0.12c0.05-0.03,0.1-0.06,0.12-0.07
					c-0.03-0.3-0.05-0.57-0.07-0.85c0-0.03,0.01-0.07,0.01-0.11c-0.04-0.22-0.07-0.45-0.11-0.67c-0.02-0.12-0.02-0.12-0.12-0.18
					c0.11-0.15,0.09-0.29,0.04-0.45c-0.06-0.19-0.09-0.39-0.13-0.58c-0.02-0.12-0.03-0.25-0.04-0.38c-0.01-0.08-0.01-0.17-0.02-0.25
					c0-0.04,0-0.1-0.02-0.12c-0.1-0.08-0.08-0.19-0.08-0.3c0-0.33-0.17-0.62-0.24-0.94c-0.05-0.22-0.19-0.42-0.15-0.67
					c-0.1-0.15-0.05-0.36-0.18-0.52c-0.09-0.11-0.08-0.3-0.11-0.45c-0.01-0.06-0.01-0.12-0.04-0.17c-0.18-0.32-0.25-0.68-0.32-1.04
					c-0.01-0.05-0.03-0.1-0.04-0.15c-0.09-0.3-0.22-0.59-0.27-0.9c-0.04-0.24-0.1-0.46-0.17-0.69c-0.04-0.13-0.12-0.24-0.14-0.38
					c-0.08-0.34-0.33-0.61-0.35-0.98c-0.01-0.19-0.11-0.36-0.17-0.54c-0.07-0.22-0.13-0.44-0.22-0.65c-0.1-0.26-0.16-0.53-0.33-0.76
					c-0.09-0.12-0.1-0.3-0.16-0.45c-0.08-0.23-0.14-0.47-0.29-0.68c-0.02-0.03-0.03-0.08-0.05-0.12c-0.01-0.04,0-0.1-0.03-0.13
					c-0.16-0.14-0.15-0.35-0.22-0.52c-0.08-0.17-0.15-0.34-0.23-0.51c-0.02-0.05-0.05-0.1-0.08-0.16c-0.05-0.1-0.11-0.2-0.13-0.31
					c-0.04-0.21-0.14-0.4-0.22-0.6c-0.12-0.27-0.24-0.55-0.37-0.82c-0.03-0.07-0.07-0.14-0.12-0.2c-0.14-0.16-0.22-0.34-0.24-0.55
					c-0.01-0.11-0.08-0.21-0.13-0.31c-0.08-0.16-0.17-0.33-0.25-0.49c-0.03-0.06-0.05-0.13-0.07-0.2c-0.04-0.12-0.07-0.25-0.14-0.34
					c-0.18-0.23-0.32-0.49-0.48-0.73c-0.08-0.12-0.13-0.27-0.21-0.4c-0.21-0.36-0.44-0.7-0.63-1.07c-0.15-0.29-0.35-0.54-0.52-0.81
					c-0.08-0.14-0.2-0.28-0.19-0.46c0-0.03-0.02-0.07-0.04-0.1c-0.14-0.21-0.3-0.41-0.43-0.62c-0.11-0.18-0.19-0.38-0.29-0.56
					c-0.13-0.24-0.28-0.48-0.49-0.67c-0.02-0.01-0.04-0.02-0.05-0.04c-0.13-0.35-0.38-0.64-0.56-0.96
					c-0.09-0.16-0.13-0.32-0.07-0.52c0.06-0.2,0.05-0.41,0.06-0.62c0.01-0.27,0.01-0.54-0.01-0.82c-0.02-0.21-0.01-0.42-0.07-0.64
					c-0.06-0.2-0.06-0.41-0.08-0.62c-0.03-0.27-0.03-0.54-0.12-0.8c-0.03-0.07-0.03-0.15-0.04-0.23C27.1,2.9,27.02,2.7,26.97,2.5
					c-0.05-0.21-0.14-0.4-0.21-0.59c-0.1-0.28-0.26-0.55-0.4-0.82c-0.03-0.06-0.1-0.09-0.18-0.15c-0.08,0.12-0.15,0.22-0.22,0.33
					c-0.12,0.19-0.24,0.38-0.37,0.57c-0.02,0.02-0.03,0.05-0.03,0.08c0.04,0.27-0.1,0.5-0.2,0.74c-0.07,0.18-0.1,0.37-0.14,0.56
					c-0.01,0.05-0.02,0.1-0.04,0.15c-0.09,0.28-0.17,0.56-0.15,0.85c0,0.03,0,0.08-0.02,0.11c-0.12,0.17-0.13,0.37-0.12,0.57
					c0.02,0.44-0.06,0.87-0.15,1.3c-0.04,0.24-0.15,0.47-0.23,0.71c-0.02,0.04-0.05,0.1-0.05,0.14c0.01,0.24-0.1,0.43-0.28,0.59
					c-0.08,0.08-0.13,0.2-0.2,0.29c-0.24,0.32-0.5,0.62-0.74,0.94c-0.15,0.21-0.27,0.43-0.4,0.65c-0.01,0.01-0.01,0.03-0.01,0.04
					c-0.29,0.23-0.34,0.62-0.61,0.85c-0.03,0.03-0.07,0.07-0.08,0.1c-0.04,0.15-0.13,0.27-0.21,0.4c-0.16,0.28-0.29,0.57-0.45,0.85
					c-0.08,0.15-0.18,0.28-0.27,0.43c-0.04,0.07-0.07,0.16-0.1,0.23c-0.01,0.03-0.02,0.06-0.04,0.08c-0.2,0.15-0.24,0.37-0.3,0.59
					c-0.01,0.04-0.06,0.06-0.08,0.1c-0.07,0.1-0.16,0.18-0.18,0.32c-0.01,0.09-0.06,0.21-0.14,0.27c-0.15,0.11-0.16,0.3-0.29,0.41
					c-0.01,0.01-0.03,0.03-0.02,0.04c0.01,0.24-0.17,0.39-0.27,0.58c-0.02,0.04-0.05,0.09-0.06,0.14c-0.01,0.1-0.04,0.18-0.12,0.25
					c-0.03,0.03-0.04,0.08-0.05,0.12c-0.02,0.06-0.06,0.12-0.11,0.17c-0.05,0.05-0.09,0.1-0.11,0.16c-0.1,0.26-0.27,0.49-0.43,0.72
					c-0.17,0.24-0.3,0.5-0.37,0.79c-0.01,0.03-0.02,0.07-0.04,0.1c-0.14,0.3-0.31,0.6-0.36,0.93c0,0.02-0.01,0.04-0.02,0.06
					c-0.11,0.15-0.21,0.37-0.25,0.54c-0.01,0.05-0.04,0.09-0.05,0.14c-0.02,0.05-0.03,0.11-0.02,0.15c0.04,0.19-0.05,0.36-0.14,0.52
					c-0.02,0.05-0.06,0.1-0.08,0.16c-0.07,0.21-0.13,0.43-0.2,0.64c-0.11,0.32-0.23,0.64-0.35,0.96c-0.16,0.08-0.18,0.25-0.22,0.39
					c-0.07,0.19-0.11,0.39-0.16,0.59c-0.05,0.22-0.07,0.44-0.19,0.64c-0.04,0.06-0.01,0.16-0.02,0.29
					c-0.03,0.05-0.13,0.14-0.05,0.27c0.02,0.03-0.03,0.11-0.07,0.16c-0.04,0.07-0.1,0.12-0.14,0.19c-0.04,0.08-0.06,0.16-0.09,0.24
					c-0.01,0.03-0.02,0.07-0.03,0.1c-0.02,0.14-0.03,0.28-0.04,0.43c0,0.02-0.01,0.05-0.02,0.06c-0.23,0.25-0.17,0.56-0.2,0.85
					c-0.01,0.1,0,0.2-0.02,0.29c-0.02,0.11-0.06,0.21,0.06,0.29c-0.08,0.05-0.16,0.08-0.18,0.13c-0.02,0.05,0.01,0.12,0.02,0.19
					c-0.01,0.01-0.06,0.02-0.07,0.04c-0.07,0.2-0.16,0.4-0.08,0.61c0.03,0.09,0.02,0.17-0.01,0.27c-0.09,0.23-0.15,0.46-0.08,0.7
					c0.03,0.08-0.11,0.13-0.02,0.23c0.05,0.06,0.04,0.16-0.05,0.22c-0.01,0.01,0,0.06,0.01,0.08c0.03,0.1,0.02,0.18-0.05,0.26
					c-0.04,0.05-0.05,0.13-0.06,0.2c-0.03,0.18-0.06,0.37-0.09,0.55c-0.01,0.05-0.02,0.1-0.02,0.15c-0.01,0.31-0.01,0.63-0.02,0.94
					c0,0.09-0.02,0.17-0.03,0.26c-0.03,0.3-0.01,0.6,0,0.89c0.01,0.13-0.01,0.26-0.04,0.39c-0.08,0.28-0.06,0.57-0.07,0.86
					c-0.01,0.16-0.04,0.32-0.05,0.47c-0.02,0.28-0.03,0.55-0.05,0.83c-0.02,0.26-0.05,0.52-0.05,0.78c-0.01,0.37-0.08,0.73-0.02,1.1
					c0.01,0.03-0.01,0.07-0.02,0.1c-0.05,0.14-0.03,0.38-0.02,0.54c0.03,0.28,0.09,0.57-0.05,0.86c-0.04,0.09-0.09,0.18-0.01,0.29
					c0.03,0.04,0.02,0.11,0.02,0.17c0,0.13,0,0.27-0.01,0.4c0,0.14-0.01,0.28-0.01,0.41c0.01,0.1,0.03,0.2,0.04,0.3
					c0,0.02,0.02,0.05,0.02,0.06c-0.11,0.16,0.03,0.25,0.08,0.37c-0.12,0.06-0.12,0.06-0.13,0.16c0,0.05-0.01,0.1,0,0.15
					c0.11,0.49-0.02,1,0.02,1.49c0,0.07,0,0.15-0.02,0.22c-0.03,0.12-0.01,0.24-0.03,0.36c-0.02,0.13,0,0.23,0.03,0.35
					c0.02,0.06-0.01,0.13-0.01,0.21c-0.01,0.19,0.06,0.38,0.02,0.57c-0.01,0.03,0,0.07,0.01,0.1c0.07,0.11,0.04,0.22,0.02,0.33
					c-0.01,0.07-0.02,0.15-0.02,0.23c0.01,0.12,0.03,0.24,0.05,0.38c0.02,0.01,0.07,0.03,0.12,0.05c-0.04,0.01-0.07,0.02-0.11,0.03
					c-0.01,0.28-0.03,0.57-0.05,0.85c-0.01,0.16,0,0.33-0.02,0.5c-0.01,0.11,0.06,0.21,0.02,0.33c-0.03,0.1-0.03,0.21-0.03,0.32
					c0,0.08-0.01,0.17,0.03,0.23c0.14,0.2,0.08,0.43,0.08,0.64c0,0.45-0.06,0.9,0.02,1.34c0.01,0.08,0.01,0.17,0,0.26
					c0,0.12,0,0.23,0,0.34c0,0.06,0,0.13-0.01,0.19c-0.03,0.27-0.02,0.53,0.03,0.79c0.01,0.04,0.04,0.08,0.07,0.14
					c-0.14,0.21-0.09,0.43-0.06,0.66c0.01,0.08,0.04,0.14-0.04,0.22c-0.04,0.03-0.04,0.12-0.03,0.18c0,0.09,0.06,0.17,0.03,0.28
					c-0.01,0.04,0.08,0.11,0.14,0.18c-0.11,0.1-0.14,0.23-0.05,0.38c0.02,0,0.05,0,0.09,0.01c-0.05,0.11-0.09,0.23-0.14,0.36
					c0.19,0.07,0.2,0.21,0.2,0.36c-0.01,0.15-0.01,0.3,0.01,0.45c0.03,0.31,0.07,0.62,0.11,0.93c0.03,0.22,0.1,0.43,0.01,0.65
					c-0.03,0-0.06,0.01-0.1,0.02c-0.14-0.19-0.23-0.41-0.31-0.64c-0.08-0.19-0.25-0.34-0.37-0.51c-0.05-0.07-0.1-0.13-0.16-0.19
					c-0.11-0.13-0.23-0.26-0.34-0.38c-0.15-0.17-0.32-0.34-0.47-0.52c-0.08-0.1-0.16-0.18-0.3-0.14c-0.09,0.02-0.17,0.02-0.26,0.03
					c-0.18,0.02-0.24,0.18-0.34,0.29c-0.18,0.21-0.34,0.43-0.5,0.65c-0.09,0.12-0.14,0.26-0.22,0.39c-0.06,0.09-0.13,0.17-0.2,0.25
					c-0.03,0.04-0.1,0.07-0.11,0.11c-0.03,0.22-0.2,0.35-0.31,0.52c-0.05,0.08-0.09,0.17-0.14,0.25c-0.08,0.13-0.16,0.26-0.25,0.39
					c-0.02,0.03-0.05,0.06-0.07,0.09c-0.1,0.22-0.22,0.43-0.3,0.66c-0.09,0.26-0.29,0.48-0.32,0.76c-0.01,0.07-0.02,0.14-0.04,0.22
					c-0.02,0.08-0.05,0.16-0.08,0.24c-0.08,0.28-0.09,0.57-0.2,0.84c0.07,0.13-0.01,0.26-0.03,0.39c-0.02,0.13-0.01,0.26-0.08,0.38
					c-0.07,0.12,0.05,0.18,0.07,0.28c-0.11,0.11-0.15,0.24-0.09,0.39c0.01,0.03,0.01,0.07,0,0.09c-0.11,0.18-0.04,0.38-0.11,0.57
					c-0.02,0.05,0.02,0.11,0.03,0.17c0,0,0,0,0,0c-0.03,0.2-0.03,0.39-0.01,0.6c0.02,0.26,0.04,0.51,0.08,0.77
					c0.01,0.08-0.03,0.18-0.05,0.27c-0.01,0.06-0.05,0.14-0.04,0.19c0.06,0.19,0.01,0.38,0,0.57c-0.01,0.1,0.01,0.2,0.01,0.3
					c0,0.06-0.01,0.11-0.02,0.17c-0.03,0.09-0.02,0.16,0.09,0.21c-0.18,0.15-0.03,0.31-0.07,0.47c-0.01,0.07-0.01,0.14-0.02,0.21
					c0,0.02-0.02,0.03-0.02,0.04c0.17,0.26-0.04,0.52,0,0.78c0.03,0.21-0.12,0.43,0,0.63c0.04,0.07,0.08,0.15,0.13,0.25
					c-0.03,0.14-0.07,0.32-0.1,0.49c-0.01,0.08-0.01,0.17,0.02,0.23c0.06,0.13,0.04,0.24-0.07,0.34c0.05,0.09,0.12,0.17,0.07,0.28
					c0.13,0.18,0.07,0.39,0.09,0.58c0.01,0.12-0.05,0.27-0.01,0.38c0.05,0.13,0.03,0.25,0.03,0.38c0,0.04,0.01,0.09,0.02,0.13
					c0.05,0.18,0.06,0.35,0.03,0.54c-0.01,0.06,0,0.11,0.01,0.17c0.01,0.05,0.03,0.1,0.02,0.15c-0.05,0.21,0.01,0.41,0.06,0.61
					c0.02,0.1,0.02,0.2,0.02,0.3c-0.01,0.43-0.05,0.87-0.05,1.31c0,0.2,0,0.4-0.03,0.6c-0.01,0.09-0.01,0.19,0.01,0.28
					c0.04,0.14,0.01,0.27-0.04,0.4c-0.03,0.09-0.11,0.19-0.01,0.28c0.01,0.01,0,0.04,0,0.06c-0.01,0.02-0.03,0.04-0.03,0.06
					c0,0.28-0.01,0.56,0.01,0.84c0.01,0.12,0.1,0.24,0.16,0.37c0,0,0,0.01-0.01,0.01c-0.2,0.11-0.24,0.29-0.19,0.48
					c0.06,0.27-0.09,0.44-0.25,0.63c-0.07,0.08-0.13,0.16-0.19,0.24c-0.26,0.38-0.52,0.76-0.77,1.14c-0.19,0.29-0.39,0.58-0.54,0.89
					c-0.2,0.39-0.39,0.78-0.63,1.16c-0.09,0.13-0.14,0.29-0.21,0.44c-0.04,0.09-0.09,0.17-0.12,0.26c-0.08,0.19-0.16,0.38-0.24,0.58
					c-0.02,0.05-0.03,0.11-0.07,0.16c-0.08,0.11-0.17,0.21-0.12,0.35c0.01,0.02-0.02,0.07-0.04,0.1c-0.09,0.22-0.18,0.45-0.27,0.67
					c-0.07,0.16-0.12,0.32-0.21,0.46c-0.1,0.15-0.12,0.3-0.12,0.46c0,0.15-0.04,0.3-0.08,0.44c-0.06,0.21-0.12,0.42-0.17,0.63
					c-0.01,0.02-0.02,0.05-0.01,0.06c0.13,0.14,0.02,0.27-0.05,0.39c-0.09,0.15-0.1,0.31-0.08,0.46c0.02,0.18,0.02,0.36-0.05,0.53
					c-0.07,0.18-0.05,0.35-0.06,0.53c0,0.15,0.01,0.29,0,0.43c-0.01,0.1-0.03,0.2-0.06,0.3c-0.07,0.22-0.16,0.42-0.12,0.66
					c0.01,0.09-0.04,0.2-0.06,0.3c-0.11,0.37-0.17,0.74-0.13,1.13c0.02,0.17-0.05,0.36-0.08,0.54c-0.02,0.16-0.05,0.31,0.07,0.45
					c0.03,0.03,0.03,0.09,0.02,0.14c-0.05,0.29-0.14,0.58-0.15,0.88c-0.01,0.16-0.05,0.34,0.03,0.5c0.01,0.02,0.02,0.06,0.01,0.08
					C4.93,91.57,4.97,91.83,5,92.1c0,0.05-0.01,0.1-0.01,0.15c-0.01,0.36-0.03,0.72-0.03,1.08c0,0.37,0.01,0.75,0.02,1.12
					c0,0.1-0.02,0.2-0.04,0.3c-0.04,0.2-0.06,0.4,0.06,0.58c0.04,0.06,0.06,0.16,0.04,0.23C5,95.7,4.98,95.82,4.99,95.94
					c0,0.13,0.06,0.58,0.11,0.71c0.02,0.04,0.01,0.08,0,0.12c0,0.15-0.01,0.3-0.01,0.46c0,0.03-0.01,0.06,0.01,0.09
					c0.04,0.09,0.09,0.17,0.12,0.26c0.03,0.09,0.03,0.19,0.06,0.27c0.03,0.07,0.03,0.12,0.01,0.18c-0.02,0.08-0.02,0.18-0.03,0.27
					c0.02,0.01,0.03,0.01,0.04,0.02c0.05-0.04,0.12-0.07,0.14-0.12c0.08-0.18,0.15-0.37,0.2-0.56c0.03-0.13,0.04-0.27,0.04-0.41
					c0.01-0.17,0.06-0.34,0.14-0.49c0.05-0.1,0.09-0.2,0.15-0.31c-0.08-0.12-0.11-0.26,0.01-0.4c0.05-0.06,0.07-0.15,0.11-0.22
					c0.1-0.21,0.19-0.42,0.03-0.64c0.18-0.12,0.21-0.3,0.25-0.48c0.05-0.21,0.15-0.41,0.22-0.62c0.04-0.13,0.05-0.27,0.1-0.38
					c0.12-0.24,0.26-0.48,0.39-0.71c0.06-0.11,0.13-0.22,0.17-0.33c0.09-0.25,0.18-0.49,0.35-0.7c0.1-0.12,0.15-0.27,0.23-0.4
					C7.93,91.39,8,91.24,8.1,91.12c0.28-0.35,0.46-0.75,0.7-1.13c0.14-0.22,0.27-0.46,0.41-0.68c0.16-0.25,0.35-0.48,0.48-0.74
					c0.09-0.18,0.26-0.3,0.36-0.47c0.06-0.1,0.15-0.19,0.21-0.28c0.22-0.31,0.44-0.63,0.66-0.94c0.16-0.24,0.33-0.47,0.48-0.72
					c0.07-0.11,0.1-0.24,0.2-0.39c0.01,0.04,0.03,0.07,0.06,0.15c0.08-0.15,0.12-0.27,0.2-0.37c0.08-0.09,0.21-0.14,0.28-0.24
					c0.1-0.12,0.16-0.28,0.26-0.4c0.08-0.1,0.16-0.2,0.28-0.27c0.13-0.09,0.22-0.24,0.32-0.36c0.17-0.18,0.34-0.35,0.51-0.52
					c0.02-0.02,0.04-0.05,0.07-0.05c0.14-0.03,0.2-0.14,0.28-0.23c0.26-0.31,0.59-0.55,0.9-0.8c0.14-0.11,0.32-0.19,0.43-0.35
					c0.17,0,0.27-0.13,0.39-0.21c0.16-0.1,0.3-0.22,0.46-0.32c0.08-0.06,0.18-0.1,0.27-0.13c0.14-0.04,0.25-0.11,0.36-0.21
					c0.17-0.16,0.37-0.29,0.6-0.35c0.13-0.03,0.24-0.11,0.37-0.15c0.23-0.07,0.47-0.14,0.7-0.19c0.07-0.02,0.16-0.03,0.21,0.01
					c0.26,0.17,0.56,0.28,0.82,0.45c0.06,0.04,0.14,0.07,0.21,0.09c0.12,0.04,0.2,0.13,0.18,0.26c-0.01,0.09-0.05,0.18-0.07,0.28
					c-0.03,0.14-0.05,0.28-0.08,0.42c0,0.01,0.02,0.04,0.01,0.04c-0.14,0.15-0.11,0.35-0.18,0.53c-0.07,0.15-0.09,0.31-0.11,0.46
					c-0.01,0.05,0.04,0.12,0.07,0.17c0.1,0.21,0.21,0.43,0.42,0.55c0.12,0.07,0.23,0.14,0.36,0.19c0.32,0.11,0.64,0.2,0.95,0.3
					c0.04,0.01,0.09,0.03,0.13,0.03c0.25-0.03,0.46,0.08,0.68,0.14c0.13,0.04,0.25,0.12,0.4,0.06c0.01,0,0.03,0,0.04,0.01
					c0.24,0.12,0.5,0.06,0.75,0.09c0.16,0.02,0.32,0.03,0.48,0.05c0.04,0.01,0.1,0.03,0.13,0.02c0.22-0.14,0.43-0.02,0.65-0.03
					c0.09,0,0.19,0.03,0.28,0.02c0.13-0.02,0.26-0.06,0.38,0.02c0.02,0.01,0.06,0.01,0.09-0.01c0.19-0.1,0.4-0.07,0.6-0.07
					c0.1,0,0.19-0.08,0.31-0.04c0.09,0.03,0.22-0.03,0.34-0.04c0.11-0.02,0.22-0.04,0.33-0.05c0.22-0.01,0.44-0.1,0.67-0.05
					c0.07,0.01,0.14-0.02,0.22-0.03c0.17-0.02,0.34-0.04,0.51-0.07c0.16-0.03,0.31-0.11,0.46-0.11c0.34-0.01,0.65-0.13,0.96-0.24
					c0.08-0.03,0.16-0.05,0.24-0.05c0.21,0,0.37-0.11,0.5-0.26c0.16-0.2,0.3-0.42,0.42-0.65c0.18-0.34,0.21-0.71,0.31-1.07
					c0.03-0.11,0.01-0.23,0-0.34c-0.03-0.27,0.05-0.35,0.3-0.37c0.34-0.03,0.66-0.11,0.98-0.23c0.08-0.03,0.15-0.07,0.24-0.1
					c0.09,0.17,0.28,0.19,0.45,0.24c0.16,0.05,0.31,0.11,0.44,0.22c0.02,0.01,0.04,0.03,0.06,0.03c0.35,0.12,0.65,0.32,0.95,0.52
					c0.28,0.18,0.6,0.32,0.88,0.5c0.28,0.19,0.54,0.4,0.8,0.61c0.22,0.18,0.44,0.37,0.66,0.56c0.3,0.26,0.54,0.58,0.8,0.89
					c0.09,0.11,0.22,0.19,0.31,0.29c0.12,0.13,0.22,0.28,0.33,0.42c0.17,0.2,0.36,0.39,0.52,0.59c0.33,0.39,0.65,0.8,0.98,1.19
					c0.22,0.27,0.44,0.54,0.6,0.86c0.11,0.2,0.27,0.37,0.4,0.56c0.18,0.24,0.36,0.48,0.53,0.72c0.05,0.07,0.09,0.15,0.12,0.22
					c0.11,0.24,0.23,0.48,0.4,0.68c0.03,0.04,0.06,0.1,0.08,0.15c0.17,0.32,0.32,0.65,0.43,1c0.06,0.2,0.16,0.39,0.24,0.59
					c0.07,0.16,0.13,0.32,0.19,0.48c0.09,0.26,0.19,0.51,0.36,0.73c0.04,0.06,0.08,0.12,0.1,0.19c0.16,0.45,0.31,0.91,0.47,1.36
					c0.08,0.24,0.16,0.47,0.29,0.69c0.07,0.11,0.1,0.25,0.13,0.38c0.09,0.34,0.16,0.68,0.27,1.02c0.16,0.5,0.32,1,0.52,1.48
					c0.07,0.18,0.17,0.35,0.19,0.55c0,0.05,0.05,0.1,0.09,0.14c0.14,0.13,0.29,0.1,0.33-0.08c0.03-0.14,0.04-0.29,0-0.43
					c-0.07-0.27-0.07-0.52,0.02-0.79c0.05-0.13,0.05-0.28,0.06-0.43c0.01-0.19-0.01-0.37-0.01-0.56c0-0.11,0.03-0.23,0.04-0.34
					c0.03-0.39,0.07-0.78,0.08-1.16c0.01-0.27-0.01-0.55-0.01-0.82c0-0.04,0.01-0.07,0.02-0.1c0.01-0.04,0.04-0.09,0.04-0.13
					C45.64,93.85,45.82,93.57,45.81,93.28z M6.23,90.06c-0.11-0.18-0.09-0.28,0.11-0.52C6.37,89.73,6.34,89.89,6.23,90.06z
					 M6.59,88.15c0.01,0.03-0.06,0.08-0.1,0.13c-0.08-0.05-0.06-0.11-0.03-0.18c0.03-0.08,0.12-0.16,0.02-0.25
					c-0.01-0.01,0.01-0.07,0.03-0.1c0.05-0.05,0.1-0.09,0.2-0.17C6.73,87.81,6.53,87.96,6.59,88.15z M7.94,84.12
					c-0.04-0.05-0.09-0.09-0.1-0.13c-0.02-0.1,0.11-0.39,0.24-0.5c-0.06,0.18-0.1,0.32-0.14,0.46c0.02,0.02,0.04,0.03,0.06,0.05
					c0.05-0.08,0.1-0.15,0.14-0.23C8.18,83.95,8.06,84.02,7.94,84.12z M8.19,83.69c0.08-0.1,0.04-0.23,0.18-0.28
					C8.36,83.6,8.36,83.61,8.19,83.69z M8.5,83.08c-0.07-0.09-0.13-0.16-0.2-0.24c0.24-0.06,0.3-0.33,0.53-0.39
					C8.72,82.66,8.73,82.93,8.5,83.08z M9.1,84.53c-0.01-0.01-0.03-0.03-0.04-0.04c0.08-0.1,0.16-0.2,0.25-0.3
					c0.01,0.01,0.02,0.02,0.04,0.03C9.29,84.35,9.24,84.47,9.1,84.53z M9.6,83.59c-0.07-0.13-0.01-0.18,0.08-0.24
					C9.71,83.47,9.71,83.47,9.6,83.59z M9.75,83.16c-0.17,0.07-0.24,0.22-0.33,0.36c-0.02,0.03-0.08,0.04-0.12,0.05
					c-0.01-0.01-0.02-0.02-0.02-0.03c0.09-0.16,0.19-0.32,0.28-0.48c0.08,0.01,0.14,0.02,0.21,0.03
					C9.77,83.12,9.77,83.16,9.75,83.16z M9.67,82.69c0.16-0.28,0.19-0.29,0.37-0.14C9.95,82.69,9.81,82.68,9.67,82.69z M39.88,57.09
					c0.06,0.02,0.12,0.04,0.18,0.07c-0.07,0.15-0.17,0.09-0.28,0.09C39.82,57.18,39.85,57.14,39.88,57.09z M39.29,53.78
					c0,0.16,0.02,0.32-0.18,0.46c-0.05-0.05-0.09-0.09-0.13-0.14C39.09,53.98,39.1,53.81,39.29,53.78z M39.09,54.42
					c0.09,0.05,0.1,0.11,0.04,0.17c-0.12,0-0.21,0-0.29,0c0-0.01,0-0.02-0.01-0.03C38.93,54.52,39.01,54.47,39.09,54.42z
					 M37.57,57.55c0.26,0.11,0.51,0.21,0.79,0.24c0.17,0.02,0.33,0.05,0.5,0.04c0.64-0.04,1.27-0.09,1.91-0.14
					c0.04,0,0.07-0.01,0.11-0.03c0.26-0.13,0.55-0.15,0.84-0.23c0.05,0.28,0.09,0.55,0.13,0.82c0.01,0.07-0.03,0.12-0.11,0.14
					c-0.1,0.03-0.2,0.09-0.31,0.12c-0.1,0.03-0.2,0.05-0.3,0.07c-0.16,0.02-0.33,0.01-0.48,0.04c-0.34,0.07-0.69,0.09-1.04,0.1
					c-0.42,0.01-0.85-0.03-1.27-0.08c-0.32-0.03-0.62-0.12-0.94-0.16c-0.1-0.01-0.15-0.05-0.17-0.13c-0.02-0.08-0.03-0.17,0-0.25
					c0.03-0.11,0.07-0.22,0.03-0.34c-0.02-0.06-0.03-0.11-0.04-0.17C37.34,57.54,37.46,57.51,37.57,57.55z M41.51,61.26
					c-0.03,0.09-0.1,0.17-0.21,0.13c0.01-0.1,0.01-0.19,0.01-0.29c0.05-0.03,0.12-0.07,0.18,0.01
					C41.51,61.15,41.52,61.21,41.51,61.26z M41.2,60.01c0.03,0,0.07,0.07,0.06,0.09c-0.04,0.08-0.1,0.14-0.21,0.1
					c0,0-0.01-0.01-0.03-0.03C41.07,60.09,41.08,59.99,41.2,60.01z M40.97,59.54c-0.02-0.06-0.04-0.13,0.03-0.16
					c0.02-0.01,0.07,0,0.07,0.02C41.1,59.48,41.07,59.53,40.97,59.54z M38.82,59.2c-0.19,0.1-0.19,0.1-0.34-0.04
					C38.59,59.19,38.73,59.05,38.82,59.2z M37.17,61.43c0.07,0.03,0.17,0.04,0.17,0.19c-0.1-0.03-0.17-0.06-0.27-0.09
					C37.12,61.48,37.16,61.43,37.17,61.43z M37.08,60.68c0.12,0.03,0.22,0.06,0.33,0.09c-0.01,0.03-0.02,0.08-0.03,0.15
					C37.28,60.82,37.09,60.91,37.08,60.68z M37.16,62.04c-0.11-0.03-0.11-0.08-0.03-0.18c0.08,0.03,0.15,0.06,0.23,0.1
					c0.08,0.03,0.09,0.08,0.03,0.15C37.31,62.08,37.24,62.06,37.16,62.04z M37.23,63.13c-0.01,0.02-0.08,0.05-0.1,0.04
					c-0.09-0.04-0.06-0.11-0.01-0.2C37.17,63.03,37.27,63.03,37.23,63.13z M37.22,39.26c0.01,0.1,0.02,0.19,0.03,0.29
					c-0.08-0.02-0.13-0.03-0.18-0.03C37.06,39.4,37.06,39.31,37.22,39.26z M36.94,63.86c-0.01-0.1,0.06-0.14,0.16-0.12
					c0.05,0.01,0.09,0.05,0.13,0.06c0.22,0.09,0.43,0.21,0.66,0.27c0.19,0.05,0.4,0,0.58,0.13c0.31-0.01,0.62-0.01,0.93-0.02
					c0.19-0.01,0.38-0.07,0.56-0.05c0.11,0.01,0.23-0.05,0.31-0.02c0.15,0.05,0.27-0.04,0.41-0.02c0.12,0.02,0.26-0.02,0.3-0.18
					c0.05,0.05,0.09,0.11,0.14,0.12c0.09,0.01,0.18,0.01,0.26-0.02c0.21-0.08,0.42-0.18,0.62-0.27c0.09,0.03,0.12,0.09,0.1,0.18
					c-0.02,0.08-0.02,0.16-0.02,0.24c-0.02,0.22-0.03,0.45-0.03,0.67c-0.01,0.2-0.15,0.35-0.39,0.32c-0.14-0.02-0.25,0.01-0.35,0.17
					c-0.18-0.22-0.37-0.17-0.57-0.07c-0.02,0.01-0.07,0.03-0.08,0.02c-0.08-0.07-0.17-0.02-0.25,0c-0.2,0.05-0.4,0.04-0.61,0.05
					c-0.11,0-0.22,0.02-0.32,0.04c-0.13,0.02-0.26,0.07-0.39,0.06c-0.25-0.02-0.51-0.01-0.76-0.07c-0.48-0.11-0.96-0.18-1.45-0.26
					c-0.01-0.07-0.03-0.13-0.02-0.18C36.89,64.53,36.96,64.2,36.94,63.86z M36.8,36.93c-0.12-0.2-0.01-0.35,0.05-0.51
					C36.85,36.58,36.89,36.74,36.8,36.93z M36.73,35.61c-0.02-0.19-0.03-0.38-0.05-0.57c0.01-0.01,0.03-0.01,0.04-0.02
					c0.02,0.02,0.05,0.03,0.05,0.05c0.01,0.19,0.03,0.38,0.04,0.57c0.01,0.16,0.04,0.31,0.05,0.47c0.01,0.15-0.01,0.16-0.19,0.17
					c-0.05-0.11,0.09-0.06,0.11-0.13C36.77,35.98,36.75,35.79,36.73,35.61z M36.57,34.11c0.03,0.12,0.06,0.23,0.09,0.35
					c-0.02,0.01-0.03,0.01-0.05,0.01C36.56,34.36,36.53,34.24,36.57,34.11z M36.57,59.76c0.1,0.09,0.09,0.16,0,0.24
					C36.48,59.92,36.5,59.85,36.57,59.76z M36.47,37.53c-0.2,0.05-0.21,0.03-0.17-0.18C36.36,37.41,36.41,37.46,36.47,37.53z
					 M36.25,34c0.03,0.16,0.06,0.3,0.08,0.44c0.02,0.09,0.02,0.09-0.07,0.16C36.28,34.39,36.08,34.21,36.25,34z M36.26,66.1
					c-0.02,0.16-0.03,0.28-0.05,0.42c-0.17-0.12-0.12-0.24-0.07-0.36C36.16,66.14,36.21,66.13,36.26,66.1z M36.12,59.29
					c-0.06-0.05-0.16-0.05-0.13-0.17C36.18,59.15,36.18,59.15,36.12,59.29z M35.93,62.91c0.02,0.02,0.01,0.07,0,0.1
					c-0.08,0.2-0.11,0.4-0.1,0.61c0,0.09-0.02,0.18-0.18,0.23c0-0.15-0.03-0.26,0.05-0.37c0.02-0.04,0.05-0.11,0.03-0.14
					c-0.09-0.14,0.03-0.28,0-0.42c-0.01-0.02,0.06-0.09,0.09-0.09C35.85,62.83,35.9,62.87,35.93,62.91z M35.59,28.19
					c0.07,0.02,0.12,0.03,0.16,0.06c0.03,0.02,0.04,0.07,0.06,0.1c-0.11,0.05-0.05,0.16-0.09,0.28
					C35.6,28.48,35.55,28.35,35.59,28.19z M35.56,69.79c-0.04-0.1-0.09-0.19-0.11-0.28c-0.02-0.05,0.02-0.1,0.09-0.09
					c0.04,0.01,0.08,0.03,0.13,0.05C35.63,69.58,35.71,69.69,35.56,69.79z M32.97,70.37c-0.08-0.1-0.16-0.2-0.25-0.3
					c-0.06,0.02-0.13,0.03-0.19,0.04c-0.12,0.03-0.21,0.11-0.26,0.22c-0.04,0.12,0.05,0.19,0.13,0.25c0.11,0.08,0.22,0.15,0.36,0.24
					c-0.21,0.09-0.39-0.03-0.58,0.01c-0.19,0.04-0.39,0.03-0.6,0.05c0.02-0.04,0.02-0.07,0.03-0.08c0.24-0.18,0.26-0.38,0.04-0.57
					c-0.09-0.08-0.2-0.14-0.32-0.22c-0.14,0.08-0.16,0.2-0.2,0.32c-0.07,0.22,0.15,0.31,0.22,0.47c-0.3,0.16-0.59,0.11-0.89,0.07
					c-0.02-0.07,0-0.11,0.08-0.14c0.16-0.07,0.18-0.16,0.11-0.31c-0.06-0.12-0.16-0.19-0.28-0.26c-0.17-0.09-0.34-0.01-0.36,0.18
					c-0.02,0.14,0.1,0.34,0.23,0.41c0.04,0.02,0.06,0.04,0.12,0.07c-0.04,0.03-0.06,0.05-0.08,0.05c-0.31-0.02-0.63,0.05-0.94-0.04
					c-0.03-0.01-0.06-0.02-0.09-0.01c-0.15,0.06-0.29-0.01-0.43-0.02c-0.09-0.01-0.18-0.01-0.26-0.02
					c-0.17-0.01-0.35-0.01-0.53-0.02c-0.03,0-0.06-0.02-0.12-0.04c0.1-0.05,0.17-0.07,0.23-0.11c0.12-0.07,0.14-0.14,0.08-0.27
					c-0.04-0.08-0.08-0.16-0.12-0.24c0.16-0.08,0.54-0.13,0.84-0.11c-0.02,0.08-0.03,0.17-0.06,0.24c-0.08,0.23,0.1,0.48,0.35,0.47
					c0.11,0,0.26-0.12,0.3-0.23c0.05-0.12,0.03-0.17-0.11-0.27c-0.04-0.03-0.09-0.06-0.12-0.09c-0.07-0.08-0.03-0.18,0.08-0.18
					c0.21-0.01,0.42-0.02,0.64-0.02c0.09,0,0.19,0,0.29,0c0.32-0.01,0.65-0.06,0.96,0.04c0.03,0.01,0.06,0,0.09,0
					c0.1,0,0.2-0.02,0.3-0.01c0.16,0.01,0.32,0.03,0.48-0.02c0.09-0.02,0.19-0.01,0.28,0.01c0.1,0.01,0.2,0.04,0.28,0.06
					c0.13-0.14,0.16-0.14,0.29-0.09c0.11,0.05,0.24,0.07,0.35,0.09c0.12,0.02,0.25,0,0.36,0.03c0.18,0.05,0.35,0.04,0.47-0.04
					c0.23,0.03,0.43,0.06,0.61,0.08c-0.02,0.44,0.12,0.66,0.51,0.78c0.19-0.18,0.17-0.44-0.06-0.6c-0.06-0.04-0.13-0.07-0.18-0.12
					c-0.02-0.02-0.02-0.07-0.03-0.11c0.04,0,0.09-0.03,0.11-0.01c0.07,0.05,0.13,0.04,0.2,0C35.4,70,35.47,70,35.53,70
					c0.09,0,0.13,0.03,0.12,0.13c-0.02,0.14-0.02,0.27-0.03,0.41c-0.02,0.17-0.04,0.33-0.18,0.45c-0.23-0.02-0.44-0.04-0.66-0.06
					c-0.21-0.01-0.42-0.02-0.63-0.03c-0.22,0-0.44,0-0.66-0.01c-0.21-0.01-0.43,0.04-0.66-0.04C33.13,70.73,33.09,70.52,32.97,70.37
					z M29.71,73.21c0.02,0.08,0,0.21-0.05,0.26c-0.16,0.12-0.13,0.27-0.13,0.43c0,0.22,0,0.44-0.01,0.66c0,0.01-0.01,0.03-0.02,0.04
					c-0.11,0.2-0.09,0.39,0,0.58c0.05,0.1,0.05,0.2,0.01,0.31c-0.1,0.27-0.16,0.54-0.16,0.83c0,0.1-0.03,0.23,0.01,0.32
					c0.07,0.15,0.04,0.28,0,0.42c-0.02,0.07-0.05,0.14-0.05,0.21c-0.04,0.37-0.06,0.74-0.1,1.1c0.14,0.25-0.03,0.5-0.03,0.75
					c0,0.09-0.01,0.18-0.04,0.26c-0.04,0.16-0.13,0.32-0.01,0.48c0.01,0.01,0.01,0.04,0,0.06c-0.08,0.37-0.06,0.73-0.06,1.1
					c0,0.22-0.12,0.34-0.33,0.35c-0.1,0-0.2,0-0.31,0c-0.29,0.01-0.38-0.11-0.3-0.39c0.04-0.14,0.07-0.3,0.05-0.44
					c-0.03-0.24,0-0.48,0.06-0.71c0.03-0.1,0.05-0.2,0.06-0.3c0.02-0.36,0.03-0.72,0.04-1.09c0-0.14,0.05-0.3-0.16-0.34
					c0.04-0.1,0.05-0.19,0.11-0.25c0.2-0.21,0.23-0.34,0.07-0.57c-0.04-0.06-0.1-0.12-0.06-0.21c0.04,0.01,0.08,0.02,0.13,0.03
					c0.01-0.33,0.02-0.64,0.03-0.95c0-0.13-0.01-0.27,0.03-0.39c0.06-0.2,0.04-0.39,0.02-0.58c-0.01-0.09,0.01-0.19,0.02-0.28
					c0.02-0.12,0.04-0.24,0.05-0.37c0.02-0.23,0.03-0.46,0.05-0.69c0.02-0.16,0.08-0.32,0.02-0.49c-0.02-0.05,0-0.13,0.03-0.19
					c0.12-0.32,0.13-0.65,0.1-0.98c-0.02-0.21,0.15-0.32,0.25-0.46c0.02-0.02,0.07-0.02,0.11-0.02c0.23,0,0.45,0.02,0.69-0.1
					c0.08,0.2,0.07,0.41,0.05,0.6c-0.02,0.2-0.1,0.41-0.15,0.61C29.71,72.94,29.67,73.07,29.71,73.21z M22.02,65.14
					c-0.01,0.09-0.02,0.16-0.03,0.25C21.86,65.24,21.86,65.24,22.02,65.14z M21.06,46.7c-0.04-0.04-0.1-0.07-0.11-0.12
					c-0.04-0.16-0.15-0.26-0.25-0.38c-0.33-0.37-0.51-0.82-0.65-1.29c-0.1-0.32-0.11-0.66-0.17-0.99c-0.02-0.12-0.13-0.27-0.09-0.36
					c0.08-0.19,0-0.37,0.04-0.55c0.04-0.18,0.08-0.37,0.09-0.56c0.03-0.45,0.12-0.89,0.2-1.33c0.09-0.44,0.27-0.83,0.46-1.23
					c0.09-0.19,0.23-0.36,0.3-0.55c0.06-0.17,0.07-0.34,0.3-0.35c0.03,0,0.07-0.06,0.1-0.1c0.07-0.08,0.15-0.15,0.22-0.23
					c0.07-0.08,0.15-0.16,0.17-0.25c0.05-0.21,0.21-0.28,0.38-0.35c0.11-0.04,0.22-0.07,0.32-0.13c0.23-0.14,0.46-0.28,0.68-0.44
					c0.08-0.06,0.17-0.13,0.21-0.22c0.1-0.22,0.32-0.23,0.5-0.36c0,0.07,0,0.12-0.01,0.2c0.08-0.1,0.13-0.17,0.14-0.18
					c0.24-0.02,0.45,0.01,0.61-0.07c0.29-0.15,0.62-0.05,0.91-0.2c0.05-0.02,0.13,0.06,0.2,0.09c0.05-0.05,0.08-0.11,0.14-0.12
					c0.18-0.04,0.37-0.06,0.55-0.1c0.08-0.02,0.14-0.05,0.22-0.08c0.1,0.04,0.21,0.13,0.31,0.11c0.31-0.07,0.58-0.01,0.85,0.11
					c0.07,0.03,0.16,0.04,0.24,0.05c0.31,0.02,0.6,0.09,0.84,0.27c0.12,0.09,0.23,0.17,0.41-0.01c0.04,0.16,0.07,0.28,0.1,0.4
					c0.05-0.03,0.12-0.08,0.15-0.06c0.13,0.07,0.3,0.06,0.42,0.19c0.15,0.16,0.32,0.31,0.49,0.44c0.05,0.04,0.13,0.03,0.2,0.04
					c0.02,0.08,0.02,0.19,0.07,0.24c0.25,0.26,0.32,0.65,0.62,0.88c0.04,0.03,0.04,0.12,0.05,0.18c0.07,0.19,0.1,0.21,0.35,0.27
					c-0.14,0.15-0.1,0.28-0.02,0.4c0.04,0.07,0.1,0.13,0.15,0.19c0.1,0.1,0.17,0.19,0.16,0.36c-0.01,0.11,0.13,0.21,0.17,0.33
					c0.03,0.13,0,0.28,0.02,0.41c0.05,0.21,0.17,0.41,0.16,0.61c-0.01,0.23,0.07,0.39,0.14,0.58c0.02,0.04,0.04,0.08,0.03,0.12
					c-0.08,0.23-0.14,0.47-0.29,0.68c-0.04,0.05-0.06,0.12-0.07,0.19c-0.02,0.18,0,0.37-0.06,0.53c-0.07,0.17-0.14,0.33-0.1,0.52
					c0,0.01,0,0.02-0.01,0.02c-0.2,0.08-0.17,0.29-0.27,0.41c-0.21,0.24-0.3,0.54-0.5,0.78c-0.21,0.24-0.22,0.61-0.5,0.82
					c-0.02,0.02,0,0.08-0.01,0.11c-0.01,0.03-0.03,0.08-0.06,0.09c-0.17,0.04-0.21,0.18-0.28,0.3c-0.11,0.18-0.17,0.39-0.38,0.5
					c-0.03,0.02-0.06,0.08-0.06,0.12c-0.02,0.21-0.12,0.33-0.33,0.37c-0.04,0.01-0.1,0.03-0.12,0.06c-0.07,0.1-0.16,0.12-0.27,0.13
					c-0.07,0.01-0.14,0.05-0.22,0.08c-0.15,0.05-0.29,0.11-0.43,0.16c-0.12,0.04-0.24,0.08-0.36,0.12
					c-0.36,0.14-0.72,0.35-1.11,0.32c-0.39-0.03-0.77,0.03-1.16,0.03c-0.48-0.01-0.95-0.02-1.41-0.18c-0.26-0.09-0.5-0.22-0.76-0.3
					c-0.27-0.08-0.49-0.21-0.72-0.34c0.07-0.1,0.13-0.19,0.19-0.29c0.17,0,0.22-0.03,0.18-0.2c-0.02-0.07-0.06-0.15-0.12-0.2
					c-0.11-0.1-0.25-0.16-0.26-0.34c-0.01-0.04-0.09-0.09-0.15-0.1c-0.04-0.01-0.11,0.04-0.13,0.09c-0.18,0.25-0.15,0.63,0.05,0.85
					c-0.04,0.01-0.09,0.03-0.11,0.02c-0.33-0.27-0.76-0.41-1.04-0.74C21.38,46.98,21.22,46.84,21.06,46.7z M21.68,63.89
					c0,0-0.01,0.02-0.03,0.04c-0.05,0-0.1,0-0.16,0c-0.01-0.02-0.01-0.03-0.02-0.05c0.04-0.03,0.08-0.08,0.12-0.09
					C21.62,63.79,21.66,63.85,21.68,63.89z M20.83,51.93c-0.06-0.03-0.11-0.06-0.17-0.1c0.04-0.1,0.12-0.09,0.16-0.07
					C20.87,51.79,20.9,51.87,20.83,51.93z M18.83,58.34c0.07,0.13,0.12,0.24,0.03,0.36c-0.03-0.06-0.05-0.12-0.09-0.16
					C18.71,58.46,18.75,58.41,18.83,58.34z M18.74,51.29c-0.02,0-0.03,0-0.05,0.01c-0.02-0.1-0.04-0.2-0.06-0.3
					c0-0.02,0.04-0.05,0.07-0.06c0.01,0,0.05,0.03,0.05,0.05C18.76,51.08,18.75,51.18,18.74,51.29z M18.87,58.2
					c-0.03-0.03-0.08-0.07-0.08-0.1c-0.01-0.03,0.05-0.07,0.09-0.12c0.04,0.05,0.1,0.09,0.09,0.1
					C18.95,58.12,18.91,58.16,18.87,58.2z M18.87,22.39c-0.06-0.03-0.13-0.07-0.21-0.11c0.11-0.15,0.24-0.09,0.36-0.12
					C19.06,22.31,18.94,22.33,18.87,22.39z M18.9,21.65c0.01-0.02,0.08-0.02,0.09,0c0.04,0.06,0.03,0.12-0.05,0.17
					C18.87,21.77,18.85,21.72,18.9,21.65z M19.09,51.31c0.1,0.06,0.1,0.13,0.04,0.2c-0.02,0.03-0.07,0.04-0.1,0.06
					c-0.01-0.04-0.04-0.09-0.03-0.12C19.01,51.4,19.05,51.36,19.09,51.31z M19.3,61.34c-0.07,0.18-0.19,0.12-0.3,0.12
					C19.07,61.36,19.19,61.4,19.3,61.34z M19.18,27.72c-0.06-0.04-0.12-0.09-0.13-0.1c0.07-0.07,0.13-0.14,0.19-0.2
					c0.02,0.04,0.05,0.11,0.09,0.19C19.27,27.65,19.22,27.69,19.18,27.72z M19.14,26.86c-0.08-0.07-0.06-0.11,0.08-0.2
					c0.04,0.1,0.08,0.2,0.13,0.3C19.22,27,19.19,26.91,19.14,26.86z M19.2,26.53c-0.05-0.05-0.09-0.08-0.15-0.14
					c0.17-0.05,0.15-0.14,0.11-0.23c-0.04-0.1-0.02-0.18,0.1-0.21c0.12,0.04,0.08,0.14,0.1,0.22C19.39,26.31,19.26,26.39,19.2,26.53
					z M19.54,24.93c-0.05-0.03-0.09-0.05-0.12-0.07c0,0,0,0,0,0c-0.09-0.12,0-0.23,0-0.35C19.63,24.6,19.48,24.78,19.54,24.93z
					 M19.53,47.44c-0.1-0.29-0.1-0.29,0.03-0.39C19.69,47.18,19.56,47.31,19.53,47.44z M19.64,48.92c0.03,0,0.06,0.01,0.1,0.03
					c-0.04,0.06-0.08,0.1-0.14,0.19c-0.03-0.07-0.05-0.12-0.08-0.17C19.55,48.95,19.59,48.93,19.64,48.92z M19.3,25.35
					c-0.01-0.02-0.03-0.04-0.04-0.05c0.05-0.04,0.09-0.09,0.14-0.13c0.01-0.01,0.06,0.05,0.12,0.09
					C19.43,25.3,19.36,25.32,19.3,25.35z M19.26,20.6c-0.02-0.01-0.04-0.09-0.02-0.11c0.06-0.05,0.12-0.04,0.17,0.04
					C19.37,20.57,19.34,20.64,19.26,20.6z M19.32,25.86c-0.01-0.14-0.01-0.24-0.01-0.37C19.43,25.57,19.43,25.57,19.32,25.86z
					 M19.61,63.03c-0.11,0.01-0.19-0.01-0.25-0.12C19.52,62.78,19.55,62.79,19.61,63.03z M19.73,64.62
					c0.02,0.07,0.04,0.11,0.06,0.18c-0.07-0.01-0.12-0.02-0.21-0.03C19.65,64.71,19.68,64.68,19.73,64.62z M19.87,63.94
					c0.04,0.09,0.08,0.16,0.12,0.25c-0.02,0.04-0.05,0.09-0.08,0.15C19.7,64.09,19.7,64.06,19.87,63.94z M19.89,58.65
					c0.03,0.18,0.06,0.36,0.09,0.54c0.01,0.08-0.02,0.13-0.12,0.1c0-0.09,0.04-0.2,0-0.26C19.75,58.89,19.87,58.77,19.89,58.65z
					 M19.84,55.68c0.11-0.17,0.13-0.18,0.29-0.11C20.03,55.61,19.95,55.64,19.84,55.68z M20,58.13c0.13-0.04,0.21-0.1,0.28-0.01
					c0.02,0.02-0.02,0.08-0.03,0.13C20.16,58.21,20.1,58.18,20,58.13z M20.41,58.21c0.02,0.01,0.03,0.02,0.04,0.03v0.02
					c-0.04,0.06-0.07,0.12-0.12,0.16c-0.01,0.01-0.07-0.03-0.14-0.05C20.29,58.3,20.35,58.26,20.41,58.21z M20.73,26.55
					c-0.01,0.08-0.02,0.15,0,0.2c0.04,0.13,0.02,0.23-0.07,0.34c-0.05,0.05-0.06,0.11-0.03,0.17c0.02,0.03-0.03,0.08-0.04,0.11
					c-0.02,0-0.04,0-0.06,0c-0.01-0.09-0.02-0.18-0.02-0.27c-0.02-0.19-0.02-0.19,0.16-0.3c-0.07-0.03-0.13-0.06-0.22-0.1
					C20.54,26.65,20.62,26.6,20.73,26.55z M20.47,26.17c0.09,0.07,0.19,0.14,0.29,0.22c-0.02,0.02-0.05,0.06-0.07,0.09
					C20.48,26.33,20.46,26.3,20.47,26.17z M20.48,28.84c0.12,0.2,0.12,0.23,0,0.36C20.5,29.07,20.38,28.97,20.48,28.84z M20.48,27.9
					c0.03-0.09,0.07-0.17,0.1-0.26c0.04,0.01,0.07,0.01,0.1,0.02c0.02,0.01,0.03,0.02,0.05,0.03C20.68,27.93,20.66,27.94,20.48,27.9
					z M20.86,25.1c-0.01-0.1,0.05-0.15,0.12-0.2c0.02,0.04,0.04,0.07,0.06,0.11C20.98,25.05,20.93,25.07,20.86,25.1z M22.05,27.78
					c-0.07-0.05-0.12-0.09-0.18-0.13c0.04-0.05,0.08-0.1,0.14-0.17C22.09,27.59,22.13,27.67,22.05,27.78z M22.07,27.21
					c0.12,0.02,0.13,0.11,0.14,0.23C22.02,27.42,22.02,27.42,22.07,27.21z M22.01,30.59c-0.01,0.12-0.02,0.24-0.03,0.36
					c-0.02,0-0.04-0.01-0.07-0.01c0.01-0.11,0.03-0.23,0.04-0.34C21.96,30.59,21.99,30.59,22.01,30.59z M22.38,27.16
					c0.07-0.08,0.13-0.07,0.21,0C22.46,27.28,22.46,27.28,22.38,27.16z M23.27,21.33c0.09-0.01,0.16-0.02,0.25-0.03
					c0.02,0.09,0.05,0.16,0.07,0.25c-0.17,0.07-0.37,0.07-0.52,0c0.08-0.03,0.14-0.06,0.2-0.09C23.27,21.42,23.27,21.38,23.27,21.33
					z M26.4,20.03c0.19-0.14,0.28-0.13,0.36,0.07C26.62,20.11,26.51,20.11,26.4,20.03z M27.21,19.61c0.08,0,0.15,0,0.24,0
					c-0.08,0.06-0.13,0.09-0.21,0.15C27.23,19.7,27.22,19.66,27.21,19.61z M27.99,19.77c-0.04-0.07-0.06-0.12-0.11-0.21
					c0.1-0.01,0.17-0.02,0.25-0.04C28.17,19.68,28.07,19.71,27.99,19.77z M28.33,20.5c-0.28-0.1-0.38-0.16-0.45-0.28
					C28.09,20.24,28.26,20.3,28.33,20.5z M29.44,20.81c-0.12-0.07-0.14-0.18-0.16-0.31C29.52,20.65,29.52,20.65,29.44,20.81z
					 M29.39,20.07c0.1,0.15,0.19,0.26,0.27,0.37C29.46,20.41,29.38,20.29,29.39,20.07z M30.06,19.74c-0.04-0.08-0.07-0.14-0.1-0.2
					c0.01-0.01,0.02-0.03,0.02-0.04c0.08,0.04,0.18-0.1,0.25,0.05C30.19,19.6,30.13,19.66,30.06,19.74z M30.28,22.48
					c0.07,0.12,0.14,0.22,0.2,0.33c-0.05,0.03-0.08,0.06-0.11,0.08c-0.05-0.09-0.09-0.16-0.13-0.23
					C30.21,22.61,30.2,22.56,30.28,22.48z M32.36,24.36c-0.01,0.09-0.02,0.16-0.03,0.26c-0.08-0.02-0.14-0.04-0.23-0.06
					C32.2,24.48,32.27,24.43,32.36,24.36z M32.29,24.06c0.02,0.01,0.04,0.01,0.06,0.01c-0.01,0.06-0.02,0.13-0.04,0.2
					C32.14,24.18,32.23,24.12,32.29,24.06z M32.44,30.55c-0.09-0.04-0.07-0.12-0.06-0.19C32.53,30.42,32.54,30.44,32.44,30.55z
					 M32.57,57.76c0.08,0.04,0.07,0.1,0.02,0.19c-0.09-0.03-0.15-0.05-0.1-0.15C32.5,57.78,32.56,57.75,32.57,57.76z M32.52,67.23
					c-0.16,0.02-0.26,0.05-0.33-0.06c-0.06-0.09-0.01-0.22,0.17-0.39C32.3,66.99,32.33,67.13,32.52,67.23z M31.89,54.14
					c-0.01-0.01-0.03-0.02-0.05-0.04c0.04-0.06,0.08-0.12,0.15-0.21C32.02,54.05,32.01,54.12,31.89,54.14z M31.93,69.32
					c-0.08-0.01-0.13-0.01-0.21-0.02c0.04-0.06,0.06-0.1,0.1-0.17C31.86,69.21,31.88,69.25,31.93,69.32z M31.94,48.76
					c0.05-0.09,0.09-0.16,0.15-0.27C32.15,48.74,32.14,48.75,31.94,48.76z M32.04,28.35c0.13,0.16,0.13,0.16-0.02,0.34
					c-0.02-0.13-0.03-0.26-0.08-0.36c-0.05-0.1-0.01-0.14,0.03-0.21c0.07,0.03,0.13,0.07,0.21,0.1
					C32.12,28.29,32.08,28.32,32.04,28.35z M32.25,28.77c0,0.15,0.07,0.27-0.01,0.4c-0.02-0.07-0.04-0.13-0.07-0.2
					C32.15,28.9,32.16,28.84,32.25,28.77z M31.97,28.12c-0.09-0.04-0.15-0.1-0.12-0.21c0-0.01,0.02-0.02,0.03-0.03
					c0.04,0.03,0.09,0.07,0.13,0.1C32,28.03,31.99,28.08,31.97,28.12z M31.94,35.63c0.12-0.03,0.16,0.03,0.17,0.15
					c-0.1,0.04-0.19,0.08-0.3,0.12C31.86,35.8,31.9,35.71,31.94,35.63z M32.19,55.26c0.02,0.01,0.02,0.08,0,0.11
					c-0.06,0.07-0.1,0.03-0.14-0.03C32.08,55.28,32.11,55.21,32.19,55.26z M32.33,68.12c-0.01,0.12-0.05,0.21-0.16,0.29
					c-0.03-0.13-0.06-0.25-0.09-0.36C32.17,68.03,32.17,68.03,32.33,68.12z M32.28,29.67c-0.02-0.14-0.03-0.24-0.04-0.35
					c-0.13,0.06-0.15-0.05-0.19-0.14c-0.03,0.06-0.04,0.1-0.07,0.14c-0.12-0.16,0.07-0.2,0.08-0.33c0.09,0.07,0.02,0.24,0.18,0.19
					c0,0,0,0,0,0c0.03,0.02,0.09,0.04,0.1,0.06c0.02,0.11,0.02,0.21,0.02,0.32C32.36,29.58,32.33,29.6,32.28,29.67z M32.09,23.61
					c-0.02-0.03-0.08-0.06-0.07-0.07c0.05-0.11,0.01-0.19-0.03-0.29c-0.03-0.07,0-0.14,0.08-0.21c0.03,0.2,0.05,0.37,0.08,0.54
					C32.13,23.59,32.11,23.6,32.09,23.61z M31.92,22.96c0.01-0.08,0.02-0.15,0.03-0.26c0.06,0.06,0.12,0.09,0.11,0.12
					C32.07,22.88,32.02,22.94,31.92,22.96z M32,27.41c-0.04,0.04-0.09,0.07-0.17,0.14c-0.02-0.14-0.04-0.25-0.05-0.34
					c0.02-0.01,0.03-0.01,0.04-0.01c0.03,0.04,0.07,0.08,0.1,0.12C31.95,27.35,31.98,27.38,32,27.41z M31.7,22.06
					c-0.02-0.1-0.04-0.16-0.06-0.24c0.08,0.01,0.13,0.01,0.2,0.02C31.79,21.9,31.76,21.95,31.7,22.06z M31.67,26.71
					c-0.02,0-0.03,0.01-0.05,0.01c-0.02-0.09-0.03-0.18-0.05-0.29C31.73,26.51,31.73,26.51,31.67,26.71z M31.62,26.03
					c-0.12-0.06-0.18-0.15-0.19-0.28c0-0.07,0.04-0.09,0.09-0.09c0.01,0.04,0.02,0.09,0.04,0.12
					C31.62,25.86,31.66,25.92,31.62,26.03z M31.59,23.11c-0.1-0.1-0.1-0.12-0.03-0.26C31.62,22.94,31.65,23.02,31.59,23.11z
					 M31.52,22.73c-0.08-0.04-0.13-0.08-0.14-0.17c-0.03-0.26-0.11-0.5-0.25-0.72c-0.06-0.09-0.08-0.2-0.11-0.3
					c-0.02-0.06-0.03-0.14,0.04-0.21c0.19,0.23,0.16,0.54,0.32,0.78c0.1,0.16,0.12,0.36,0.17,0.55
					C31.55,22.68,31.53,22.7,31.52,22.73z M30.84,27.1c-0.01-0.16-0.01-0.16,0.17-0.16c0.01,0.01,0.02,0.03,0.02,0.04
					C30.97,27.02,30.91,27.06,30.84,27.1z M31.22,28.31c0,0.07,0,0.12-0.01,0.17c-0.08-0.03-0.14-0.06-0.2-0.09
					c0-0.01,0.01-0.03,0.01-0.04C31.08,28.34,31.14,28.33,31.22,28.31z M31.22,31.43c-0.11,0.09-0.14,0.22-0.28,0.22
					C30.91,31.47,31,31.39,31.22,31.43z M31,19.74c-0.09-0.11-0.17-0.21-0.18-0.39c0.1,0.01,0.17,0.02,0.25,0.03
					c0.02-0.05,0.04-0.09,0.08-0.17C31.18,19.58,31.18,19.58,31,19.74z M30.85,30.79c0.03,0.05,0.08,0.08,0.11,0.12
					c-0.09-0.01-0.18,0.13-0.27,0.03c0.03-0.11,0.05-0.21,0.08-0.35C30.8,30.68,30.82,30.74,30.85,30.79z M30.78,28.99
					c-0.12,0.1,0.14,0.22-0.05,0.32c-0.05-0.07-0.09-0.12-0.14-0.2C30.65,29.08,30.61,28.94,30.78,28.99z M30.63,25.35
					c0.04-0.08,0.07-0.15,0.11-0.24C30.86,25.32,30.86,25.34,30.63,25.35z M30.8,29.57c-0.06,0.05-0.1,0.09-0.15,0.13
					c-0.04-0.1-0.13-0.16-0.08-0.3C30.66,29.47,30.72,29.51,30.8,29.57z M22.07,52.76c0.06-0.17,0.06-0.17,0.2-0.15
					C22.22,52.67,22.22,52.78,22.07,52.76z M26.4,52.48c0.09-0.12,0.18-0.2,0.32-0.22C26.69,52.42,26.59,52.49,26.4,52.48z
					 M29.91,49.08c0.09-0.13,0.17-0.26,0.24-0.4c0.05-0.04,0.1-0.07,0.17-0.09c0.01,0.03,0.01,0.05,0.01,0.06
					c-0.11,0.14-0.23,0.27-0.35,0.4C29.97,49.07,29.95,49.07,29.91,49.08z M30.71,52.47c-0.08,0.2-0.11,0.22-0.36,0.19
					c0.03-0.08,0.08-0.1,0.17-0.09C30.57,52.57,30.64,52.51,30.71,52.47z M30.59,47.97c0.1-0.05,0.19-0.08,0.27-0.12
					c0.05,0.14-0.04,0.2-0.15,0.25C30.68,48.05,30.65,48.02,30.59,47.97z M31.17,58.39c-0.03-0.05-0.06-0.1-0.08-0.15
					c-0.01-0.02,0.04-0.05,0.06-0.08c0.03-0.01,0.05-0.01,0.08-0.02C31.24,58.3,31.24,58.3,31.17,58.39z M31.42,63.21
					c-0.03,0.12-0.05,0.21-0.08,0.29C31.31,63.41,31.21,63.3,31.42,63.21z M23.11,68.32c0.02,0.18,0.02,0.18-0.16,0.23
					C22.92,68.42,22.98,68.35,23.11,68.32z M30.86,62.27c-0.06,0.12-0.11,0.24-0.18,0.39c0-0.16,0.01-0.28,0.01-0.42
					C30.76,62.25,30.81,62.26,30.86,62.27z M29.94,64.14c-0.01,0.1-0.02,0.18-0.02,0.24c-0.09-0.03-0.17-0.05-0.26-0.07
					C29.67,64.16,29.79,64.17,29.94,64.14z M29.48,66.42c-0.13-0.17-0.13-0.17-0.01-0.34C29.6,66.29,29.6,66.34,29.48,66.42z
					 M28.29,63.71c-0.11,0.12-0.23,0.15-0.37,0.16c-0.02,0-0.05-0.05-0.07-0.09C27.95,63.7,27.95,63.7,28.29,63.71z M32.54,68.07
					c0.02-0.09,0.06-0.18,0.09-0.27c0.01,0,0.02,0,0.03,0c0.01,0.09,0.03,0.19,0.03,0.28c0,0.03-0.06,0.07-0.09,0.1
					C32.58,68.14,32.53,68.1,32.54,68.07z M33.12,35.39c0.06,0.03,0.12,0.07,0.2,0.11c-0.05,0.07-0.1,0.13-0.16,0.2
					c-0.02-0.1-0.04-0.17-0.06-0.25C33.1,35.44,33.11,35.41,33.12,35.39z M33.04,27.89c0.04-0.04,0.08-0.07,0.14-0.11
					c0.03,0.08,0.06,0.15,0.09,0.25C33.17,27.97,33.11,27.94,33.04,27.89z M33.41,40.55c-0.1,0.08-0.17,0.12-0.27,0.07
					C33.21,40.51,33.28,40.48,33.41,40.55z M33.28,26.84c-0.05-0.06-0.09-0.11-0.13-0.16C33.39,26.66,33.4,26.67,33.28,26.84z
					 M33.23,27.31c-0.09,0.01-0.17,0.08-0.21-0.06c-0.02-0.07,0.01-0.12,0.08-0.13C33.22,27.12,33.24,27.21,33.23,27.31z
					 M33.07,21.8c-0.03-0.1-0.06-0.21-0.1-0.31c0.02-0.01,0.04-0.02,0.06-0.02c0.03,0.1,0.06,0.21,0.09,0.31
					C33.11,21.78,33.09,21.79,33.07,21.8z M33.07,29.41c-0.11,0.03-0.19,0.03-0.26-0.07C32.98,29.26,32.98,29.26,33.07,29.41z
					 M33.06,47.47c0.04,0.11,0.07,0.21,0.1,0.3c-0.01,0.01-0.03,0.02-0.05,0.03c-0.06-0.08-0.13-0.15-0.2-0.24
					C32.97,47.53,33,47.51,33.06,47.47z M33.09,58.25c0.02-0.01,0.04-0.02,0.05-0.03c0.02,0.05,0.07,0.09,0.07,0.14
					c-0.01,0.04-0.07,0.07-0.11,0.1c-0.01-0.01-0.03-0.02-0.04-0.03C33.07,58.37,33.08,58.31,33.09,58.25z M33.78,51.05
					c-0.02,0.08-0.08,0.09-0.17,0.05c0.01-0.08,0.03-0.14,0.11-0.12C33.75,50.99,33.79,51.04,33.78,51.05z M33.85,49.27
					c0,0.16-0.01,0.32-0.01,0.51C33.73,49.58,33.73,49.49,33.85,49.27z M34.32,41.5c0.21,0.15-0.02,0.26,0,0.41
					c-0.09-0.08-0.16-0.13-0.24-0.2C34.16,41.64,34.23,41.57,34.32,41.5z M34.22,41.22c0.02-0.17,0.02-0.35,0.1-0.51
					c0.02,0,0.04,0,0.06,0c0.01,0.13,0.04,0.26,0.04,0.39C34.43,41.19,34.35,41.23,34.22,41.22z M34.37,56.61
					c-0.05-0.05-0.1-0.09-0.15-0.14c0.02-0.08,0.07-0.11,0.13-0.07C34.43,56.45,34.42,56.53,34.37,56.61z M34.24,54.1
					c-0.05,0.08-0.08,0.12-0.11,0.17c-0.02-0.02-0.04-0.04-0.06-0.06C34.06,54.14,34.06,54.07,34.24,54.1z M34.32,57.48
					c0,0.04-0.07,0.06-0.13,0.12c-0.01-0.1-0.01-0.16-0.02-0.25C34.24,57.39,34.33,57.37,34.32,57.48z M34.57,63.99
					c-0.06,0.1-0.13,0.19-0.29,0.18C34.38,63.94,34.44,63.9,34.57,63.99z M35.34,47.89c0.03-0.03,0.08-0.06,0.13-0.11
					c0.01,0.07,0.01,0.12,0.03,0.18c-0.04,0.02-0.07,0.05-0.09,0.05c-0.05,0-0.08-0.02-0.13-0.04
					C35.29,47.95,35.31,47.91,35.34,47.89z M35.28,28.98c0.08,0.03,0.19-0.02,0.19,0.13C35.41,29.07,35.27,29.17,35.28,28.98z
					 M35.35,57.59c0,0.05,0.01,0.12,0.02,0.18c0,0.08-0.04,0.09-0.11,0.08C35.32,57.61,35.32,57.61,35.35,57.59z M35.41,58.08
					c-0.09-0.04-0.15-0.07-0.24-0.1C35.38,57.88,35.38,57.88,35.41,58.08z M35.18,58.5c-0.12,0.01-0.12,0.01-0.13-0.19
					c-0.03,0.01-0.07,0.02-0.14,0.04c0.03-0.06,0.04-0.1,0.06-0.13c0.03-0.03,0.09-0.07,0.1-0.06c0.03,0.02,0.06,0.07,0.07,0.11
					C35.17,58.35,35.17,58.43,35.18,58.5z M34.96,40.72c0.03-0.09,0.03-0.15,0.06-0.2c0.02-0.04,0.07-0.07,0.1-0.1
					C35.17,40.56,35.17,40.56,34.96,40.72z M35.1,57.4c0,0.02,0.01,0.03,0.01,0.05c-0.05,0.02-0.11,0.05-0.16,0.05
					c-0.06-0.01-0.1-0.06-0.06-0.14C34.96,57.37,35.03,57.38,35.1,57.4z M34.72,57.37c0.01-0.09,0.02-0.17,0.02-0.26
					c0.13,0.03,0.13,0.03,0.18,0.1C34.87,57.26,34.8,57.3,34.72,57.37z M35.42,60.37c0.02-0.04,0.02-0.08,0.05-0.1
					c0.03-0.02,0.08-0.02,0.12-0.03c0.02,0.01,0.03,0.03,0.04,0.04c-0.03,0.04-0.05,0.1-0.09,0.12
					C35.51,60.41,35.46,60.38,35.42,60.37z M35.56,57.31c-0.01,0-0.02,0-0.04,0c-0.03-0.06-0.06-0.12-0.09-0.19
					c0.04-0.02,0.08-0.03,0.13-0.06C35.57,57.16,35.57,57.23,35.56,57.31z M35.5,55.01c0,0.03-0.05,0.05-0.08,0.07
					c-0.01-0.04-0.04-0.1-0.03-0.11c0.11-0.06,0.05-0.17,0.09-0.25c0.01-0.02,0.01-0.04,0.03-0.07c0.02,0,0.03,0.01,0.05,0.01
					C35.53,54.78,35.52,54.9,35.5,55.01z M35.41,27.54c0.1,0.13,0.08,0.26,0.1,0.39c0.01,0.07-0.05,0.09-0.15,0.07
					C35.5,27.84,35.29,27.71,35.41,27.54z M35.28,28.32c0.11-0.01,0.17,0.03,0.16,0.12c0,0.02-0.07,0.06-0.1,0.06
					C35.22,28.48,35.25,28.41,35.28,28.32z M35.13,40.41c-0.03-0.02-0.06-0.02-0.08-0.05c-0.04-0.04-0.06-0.1-0.11-0.16
					c0.04-0.04,0.09-0.09,0.15-0.16c0.02,0.07,0.02,0.14,0.05,0.15C35.28,40.28,35.2,40.34,35.13,40.41z M35.16,39.89
					c-0.08-0.03-0.13-0.06-0.2-0.09c0-0.11,0.07-0.13,0.15-0.13c0.03,0,0.06,0.02,0.11,0.03C35.2,39.77,35.18,39.83,35.16,39.89z
					 M34.93,35.03c0.01-0.03,0.04-0.06,0.08-0.11c0.03,0.16,0.06,0.3,0.1,0.46c-0.12,0.05-0.18,0.04-0.18-0.05
					C34.92,35.23,34.92,35.12,34.93,35.03z M35.16,36.95c-0.02,0.24-0.04,0.25-0.43,0.2C34.87,37.09,35.02,37.02,35.16,36.95z
					 M34.81,53.41c0.02,0.02,0.01,0.09-0.02,0.12c-0.08,0.09-0.14-0.02-0.26-0.04c0.04-0.08,0.07-0.14,0.09-0.2
					C34.69,53.33,34.76,53.36,34.81,53.41z M34.55,29.51c0.1,0.06,0.1,0.06,0.07,0.24C34.51,29.69,34.5,29.61,34.55,29.51z
					 M34.51,36.96c0.02,0.02,0,0.06,0,0.1c-0.12-0.03-0.11,0.14-0.22,0.14c0.02-0.1,0.03-0.2,0.05-0.33
					C34.41,36.9,34.47,36.92,34.51,36.96z M34.33,23.85c0.06,0.06,0.13,0.12-0.01,0.23c-0.02-0.08-0.03-0.15-0.05-0.22
					C34.28,23.86,34.31,23.86,34.33,23.85z M34.17,33.34c-0.02-0.16-0.04-0.27-0.06-0.4C34.3,33.11,34.3,33.13,34.17,33.34z
					 M34.19,33.97c-0.05,0.12-0.09,0.19-0.11,0.27c-0.02,0.08-0.01,0.16-0.01,0.24c-0.02,0-0.03,0-0.04,0.01
					C33.99,34.14,34,34.1,34.19,33.97z M34.1,69.3c0.06,0.03,0.13,0.05,0.21,0.08c-0.05,0.16-0.17,0.07-0.25,0.09
					c-0.06,0.01-0.13-0.04-0.11-0.12C33.98,69.28,34.04,69.28,34.1,69.3z M33.96,46.37c0.01,0.1,0.01,0.18,0.02,0.3
					c-0.06-0.03-0.1-0.04-0.14-0.07C33.9,46.54,33.84,46.43,33.96,46.37z M33.81,33.13c-0.05,0.05-0.1,0.07-0.14-0.01
					c0.05-0.05,0.11-0.1,0.18-0.15C33.92,33.04,33.86,33.08,33.81,33.13z M33.64,23.36c0.04,0.1,0.13,0.18,0.08,0.32
					C33.61,23.58,33.62,23.47,33.64,23.36z M33.75,27.75c-0.02,0.09-0.08,0.09-0.14,0.07c-0.08-0.03-0.09-0.09-0.07-0.17
					C33.62,27.69,33.69,27.72,33.75,27.75z M33.57,22.88c-0.07-0.09-0.14-0.18-0.13-0.33C33.6,22.64,33.52,22.78,33.57,22.88z
					 M33.08,20.66c0.19,0.11,0.06,0.31,0.18,0.42c-0.02,0.02-0.04,0.02-0.05,0.04c-0.02,0.03-0.03,0.07-0.03,0.1
					c0.02,0.09,0.07,0.18,0.08,0.28c0.04,0.21,0.18,0.39,0.16,0.62c-0.01,0.08,0.01,0.17,0.01,0.25c-0.02,0-0.03,0.01-0.05,0.01
					c-0.04-0.06-0.06-0.16-0.11-0.18c-0.15-0.06-0.11-0.16-0.08-0.27c0.01-0.05,0.03-0.11,0.02-0.16c-0.06-0.22-0.13-0.44-0.2-0.66
					c-0.04-0.13-0.06-0.26-0.09-0.38C33,20.7,33.04,20.68,33.08,20.66z M32.78,18.94c0.22,0.11,0.22,0.16,0.06,0.36
					C32.71,19.18,32.84,19.06,32.78,18.94z M32.91,64.65c0.04,0.06,0.07,0.13,0.11,0.2c-0.09,0.08-0.17,0.14-0.25,0.21
					c-0.08-0.05-0.13-0.09-0.19-0.12C32.69,64.81,32.71,64.63,32.91,64.65z M32.71,35.92c0.01,0.08-0.04,0.13-0.14,0.14
					c0.01-0.06,0.02-0.11,0.04-0.21C32.66,35.89,32.71,35.9,32.71,35.92z M31.99,17.13c-0.03-0.09-0.05-0.18-0.08-0.31
					C32.1,16.93,32.11,16.98,31.99,17.13z M30.92,14.97c0.03,0.1,0.06,0.17-0.05,0.25C30.81,15.12,30.83,15.05,30.92,14.97z
					 M30.29,14.12c0.1,0.05,0.16,0.1,0.07,0.21C30.26,14.28,30.27,14.22,30.29,14.12z M29.79,13.06c0.06,0.1,0.09,0.17,0.14,0.21
					c0.05,0.05,0.12,0.08,0.17,0.12c0.06,0.05,0.07,0.11,0.02,0.17c-0.05,0.05-0.14,0.04-0.19-0.02c-0.04-0.06-0.06-0.12-0.09-0.18
					c-0.05,0.01-0.08,0.02-0.14,0.04C29.73,13.28,29.75,13.2,29.79,13.06z M29.72,14.39c0.08,0.08,0.09,0.15,0.01,0.23
					C29.6,14.52,29.61,14.52,29.72,14.39z M29.25,12.07c-0.06-0.07-0.12-0.12-0.2-0.21C29.29,11.83,29.33,11.89,29.25,12.07z
					 M28.22,10.4c0.03,0.03,0.06,0.06,0.1,0.1c0.04-0.09,0.07-0.16,0.12-0.28c0.09,0.16,0.16,0.28,0.23,0.41
					c-0.22,0.07-0.42,0.19-0.59-0.05C28.13,10.54,28.18,10.47,28.22,10.4z M28.13,11.61c0.1,0.04,0.18,0.11,0.26,0.12
					c0.2,0.03,0.2,0.02,0.23,0.23c-0.13-0.02-0.24-0.04-0.34-0.06c-0.05,0.05-0.08,0.08-0.13,0.13
					C28.08,11.88,28.06,11.75,28.13,11.61z M28.23,14.49c0.12,0.02,0.22,0.03,0.32,0.05c-0.01,0.02,0,0.04-0.01,0.05
					c-0.12,0.06-0.24,0.13-0.36,0.19c-0.05,0.02-0.12,0.03-0.13-0.11C28.2,14.69,28.22,14.59,28.23,14.49z M27.75,8.89
					c0.08,0.05,0.12,0.1,0.05,0.17c-0.02,0.02-0.08,0.02-0.09,0.01C27.64,9.01,27.67,8.95,27.75,8.89z M27.69,10.46
					c0.07,0.09,0.11,0.18,0.12,0.27c0,0.02-0.05,0.07-0.08,0.07c-0.03,0.01-0.08-0.02-0.12-0.04
					C27.64,10.67,27.66,10.58,27.69,10.46z M26.37,3.88c0.05,0.09,0.1,0.16,0.14,0.23c-0.01,0-0.02,0.01-0.04,0.01
					c0,0.14-0.01,0.29-0.01,0.46c-0.14-0.11-0.1-0.24-0.11-0.35C26.35,4.14,26.25,4.02,26.37,3.88z M25.91,6.39
					c0,0.1,0.07,0.15-0.01,0.25C25.81,6.57,25.78,6.51,25.91,6.39z M24.53,8.06c0.12-0.11,0.22-0.22,0.27-0.37
					c0.03-0.09,0.1-0.12,0.2-0.13c0.19-0.01,0.38-0.08,0.56,0c0.03,0.01,0.07-0.02,0.11-0.02c0.11,0,0.22-0.01,0.32,0.02
					c0.07,0.02,0.12,0.03,0.18-0.02c0.03-0.02,0.08-0.02,0.12-0.03c0.08-0.01,0.16,0,0.23-0.03c0.08-0.04,0.14-0.03,0.21,0
					c0.15,0.05,0.25,0.16,0.33,0.29c0.08,0.14,0.16,0.26,0.24,0.4c0.06,0.11,0.1,0.23,0.15,0.35c-0.19-0.03-0.39-0.01-0.54-0.13
					c-0.01-0.01-0.04-0.01-0.06-0.01c-0.23-0.05-0.46,0-0.69-0.01c-0.29,0-0.59,0.03-0.89,0.04c-0.06,0-0.13,0.02-0.2,0.02
					c-0.14,0.01-0.29,0.03-0.43,0.04c-0.06,0-0.12-0.01-0.21-0.02C24.37,8.3,24.38,8.2,24.53,8.06z M26.85,14.85
					c-0.03,0.08-0.07,0.16-0.12,0.27c-0.05-0.09-0.08-0.15-0.12-0.2c-0.01-0.02-0.06-0.06-0.08-0.05c-0.14,0.07-0.14-0.04-0.19-0.11
					c0.04-0.03,0.07-0.08,0.09-0.08C26.58,14.73,26.75,14.69,26.85,14.85z M26.78,14.33c0.09,0.15,0.09,0.15-0.06,0.25
					C26.63,14.47,26.77,14.42,26.78,14.33z M26.54,9.97c0.15-0.07,0.29-0.09,0.43-0.06c0.04,0.01,0.09,0.06,0.1,0.11
					c0.01,0.03-0.03,0.08-0.06,0.12c-0.02,0.03-0.06,0.03-0.11,0.06C26.83,10.05,26.58,10.2,26.54,9.97z M27.04,13
					c0.07,0.06,0.05,0.12-0.06,0.19c-0.01-0.06-0.02-0.12-0.03-0.18C26.98,13,27.02,12.99,27.04,13z M27.22,14.94
					c0.02,0.02,0.03,0.09,0.01,0.11c-0.07,0.08-0.14,0.05-0.21-0.03C27.08,14.94,27.13,14.85,27.22,14.94z M27.2,12.11
					c0.16,0.1,0.17,0.16,0.06,0.38C27.16,12.37,27.11,12.25,27.2,12.11z M25.19,15.95c0.07,0.04,0.15,0.07,0.24,0.12
					c-0.1,0.08-0.18,0.11-0.25,0.06c-0.03-0.02-0.03-0.09-0.04-0.14C25.16,15.97,25.17,15.96,25.19,15.95z M24.94,14.33
					c-0.01-0.01-0.02-0.02-0.03-0.03c0.03-0.05,0.06-0.1,0.1-0.17c0.05,0.05,0.08,0.08,0.15,0.14
					C25.05,14.3,24.99,14.32,24.94,14.33z M25.42,12.99c-0.13-0.02-0.22-0.05-0.34-0.07c0.06-0.19,0.11-0.22,0.24-0.13
					c0.18,0.12,0.31,0.3,0.43,0.48c0,0-0.01,0.02-0.03,0.06c-0.07-0.05-0.14-0.1-0.19-0.16C25.47,13.1,25.44,13.02,25.42,12.99z
					 M25.6,11.43c0.02,0,0.04,0.07,0.06,0.11c-0.14,0.13-0.34,0.05-0.43,0.27c-0.05-0.16-0.08-0.27-0.12-0.39
					C25.29,11.35,25.44,11.41,25.6,11.43z M25.17,9.36c0.07-0.04,0.1-0.06,0.14-0.08c0.02-0.01,0.04,0.01,0.09,0.02
					c-0.02,0.06-0.04,0.12-0.07,0.2C25.27,9.45,25.23,9.42,25.17,9.36z M25.56,10.81c0.24-0.06,0.24-0.06,0.21,0.16
					C25.68,10.91,25.62,10.86,25.56,10.81z M25.75,11.42c0.15,0.01,0.3,0.03,0.45,0.03c-0.04,0.13-0.07,0.23-0.1,0.33
					c-0.04-0.06-0.06-0.11-0.09-0.17C25.8,11.64,25.79,11.64,25.75,11.42z M26.19,12.95c0.05,0.1,0.03,0.2-0.08,0.25
					c-0.1,0.04-0.21,0.01-0.28-0.08C25.97,13.06,26.08,13.01,26.19,12.95z M26.18,14.85c-0.1-0.01-0.15-0.06-0.14-0.16
					C26.19,14.69,26.19,14.69,26.18,14.85z M26.17,14.54c-0.15-0.14-0.16-0.23-0.02-0.34C26.24,14.37,26.24,14.37,26.17,14.54z
					 M24.83,15.41c-0.1,0.06-0.21,0.13-0.32,0.16c-0.09,0.02-0.2,0.02-0.24-0.1c0.21-0.06,0.39-0.12,0.6-0.18
					C24.85,15.35,24.85,15.4,24.83,15.41z M24.83,16.33c-0.14,0.04-0.24,0.06-0.34,0.09c-0.06-0.13-0.03-0.21,0.08-0.3
					C24.65,16.18,24.72,16.24,24.83,16.33z M24.48,10.55c0.02-0.02,0.06-0.07,0.11-0.08c0.07-0.02,0.18,0.06,0.17,0.12
					c-0.01,0.04-0.06,0.1-0.1,0.11C24.56,10.72,24.48,10.66,24.48,10.55z M24.37,8.97c0.11,0.04,0.19,0.08,0.15,0.19
					c-0.03,0.07-0.13,0.05-0.25-0.03C24.3,9.08,24.33,9.03,24.37,8.97z M24.29,12.24c0.1,0.05,0.14,0.11,0.08,0.22
					C24.3,12.4,24.2,12.38,24.29,12.24z M24.16,10.65c-0.13-0.02-0.23-0.01-0.26-0.11c-0.01-0.04,0.01-0.09,0.01-0.12
					c0.06-0.01,0.11-0.02,0.19-0.03C24.12,10.47,24.13,10.54,24.16,10.65z M24,9.93c0.04,0.07,0.01,0.12-0.07,0.17
					c-0.08-0.09-0.25-0.04-0.32-0.19C23.83,9.82,23.93,9.83,24,9.93z M23.86,10.58c-0.07,0.04-0.11,0.06-0.18,0.1
					c-0.02-0.1-0.04-0.18-0.06-0.26c0.01-0.01,0.03-0.01,0.04-0.02C23.72,10.45,23.78,10.5,23.86,10.58z M23.67,13.42
					c-0.15,0-0.15-0.11-0.17-0.24C23.7,13.23,23.7,13.23,23.67,13.42z M23.42,16.17c0.1,0.06,0.15,0.13,0.12,0.25
					C23.41,16.38,23.39,16.3,23.42,16.17z M23.33,10.43c-0.2,0.14-0.25,0.13-0.37-0.07C23.08,10.42,23.23,10.3,23.33,10.43z
					 M23.06,16.09c0.02,0.13,0.02,0.21-0.06,0.25c-0.03,0.01-0.08-0.03-0.13-0.05C22.93,16.22,22.98,16.17,23.06,16.09z
					 M22.31,16.08c0.1-0.07,0.13-0.02,0.15,0.06c-0.08,0.05-0.14,0.1-0.19,0.13c-0.07,0.05-0.14,0.07-0.16-0.04
					C22.17,16.18,22.24,16.13,22.31,16.08z M21.46,15.49c0,0.02-0.03,0.05-0.05,0.06c-0.1,0.04-0.1-0.03-0.12-0.11
					C21.38,15.41,21.44,15.4,21.46,15.49z M21.32,13.02c0.04,0.1,0.08,0.18,0.12,0.28C21.27,13.25,21.25,13.2,21.32,13.02z
					 M20.65,14.63c0.03-0.02,0.08-0.03,0.12-0.01c0.03,0.01,0.06,0.04,0.13,0.09c-0.07,0.03-0.11,0.05-0.14,0.05
					c-0.03,0-0.08-0.01-0.1-0.03C20.64,14.7,20.64,14.64,20.65,14.63z M20.84,15.24c-0.18-0.07-0.34-0.09-0.45,0.16
					c-0.01-0.13-0.01-0.22-0.02-0.31C20.62,15.05,20.77,15.09,20.84,15.24z M20.64,16.62c-0.15,0.05-0.22,0.03-0.25-0.06
					c-0.03-0.07,0.02-0.1,0.1-0.12C20.53,16.49,20.57,16.55,20.64,16.62z M19.91,16.17c0.1,0.02,0.17,0.12,0.29,0.09
					c0.02,0,0.08,0.09,0.07,0.12c-0.03,0.07-0.09,0.05-0.14,0.02c-0.11-0.07-0.24-0.11-0.38-0.09
					C19.75,16.22,19.8,16.15,19.91,16.17z M19.66,16.36c0.03-0.01,0.06-0.02,0.09-0.03c0.02,0.15-0.04,0.27-0.13,0.38
					c-0.02-0.01-0.03-0.01-0.03-0.01C19.44,16.55,19.71,16.48,19.66,16.36z M20.41,15.83c0.1-0.3,0.2-0.61,0.3-0.91
					c0.01-0.04,0.04-0.08,0.06-0.1c0.07-0.07,0.12-0.14,0.09-0.25c0.13-0.02,0.13-0.02,0.29,0.08c0.01,0.07,0.02,0.14,0.02,0.18
					c0.08,0.01,0.15,0.01,0.2,0.04c0.07,0.03,0.12,0.06,0.19,0.02c0.02-0.01,0.05-0.02,0.06-0.01c0.1,0.06,0.19,0.04,0.29,0.01
					c0.05-0.01,0.13-0.01,0.14,0.02c0.04,0.11,0.12,0.11,0.19,0.16c0.13,0.1,0.2,0.13,0.4,0.13c0.01-0.03,0.02-0.06,0.03-0.1
					c0.13,0.15,0.27,0.06,0.41,0.04c0.02,0,0.06-0.03,0.07-0.02c0.06,0.1,0.18,0.03,0.25,0.14c0.02,0.03,0.11,0,0.18-0.02
					c0.03-0.01,0.06-0.04,0.07-0.05c0.22,0.12,0.43,0.18,0.68,0.11c0.05,0.12,0.15,0.08,0.26,0.07c0.29-0.02,0.58,0,0.87-0.03
					c0.36-0.03,0.73-0.05,1.09-0.01c0.04,0,0.09,0.02,0.12-0.01c0.13-0.12,0.27-0.04,0.41-0.05c0.34-0.03,0.67-0.02,1.01-0.03
					c0.08,0,0.15-0.01,0.23-0.01c0.24-0.01,0.47-0.02,0.71-0.08c0.19-0.05,0.38-0.13,0.58-0.12c0.1,0,0.21,0.01,0.32-0.02
					c0.07-0.01,0.13-0.04,0.18,0.04c0.04,0.05,0.09,0.05,0.13-0.01c0.12-0.15,0.29-0.06,0.41-0.18c0.1,0.07,0.2,0,0.29-0.01
					c0.05,0,0.13,0.02,0.15,0.06c0.07,0.16,0.13,0.33,0.17,0.51c0.04,0.13,0,0.18-0.11,0.21c-0.11,0.03-0.22,0.06-0.33,0.09
					c-0.19,0.04-0.38,0.07-0.57,0.11c-0.15,0.04-0.29,0.11-0.44,0.03c-0.04-0.02-0.09,0.01-0.13,0.02
					c-0.03,0.01-0.06,0.02-0.09,0.03c-0.12,0.02-0.23,0.03-0.35,0.06c-0.16,0.04-0.32,0.07-0.48,0.06
					c-0.16-0.01-0.33,0.03-0.49,0.06c-0.13,0.02-0.25,0.08-0.38,0.1c-0.1,0.02-0.22-0.04-0.32,0.07c-0.01,0.01-0.04,0-0.06-0.01
					c-0.1-0.02-0.2-0.06-0.29,0.01c-0.02,0.01-0.04,0.01-0.06,0.01c-0.09,0-0.19,0-0.28,0c-0.22,0-0.44,0.11-0.66,0.06
					c-0.09-0.02-0.18,0.01-0.27,0.02c-0.06,0-0.12,0.01-0.18,0.01c-0.1-0.01-0.21-0.04-0.31,0.03c-0.02,0.01-0.04,0.01-0.06,0.01
					c-0.22-0.01-0.44-0.02-0.65-0.02c-0.29-0.01-0.59-0.01-0.89-0.02c-0.22-0.01-0.45-0.01-0.67-0.04
					c-0.24-0.03-0.49-0.02-0.73-0.07c-0.23-0.05-0.48-0.02-0.72-0.02c-0.03,0-0.06,0-0.08-0.02c-0.11-0.1-0.24-0.09-0.37-0.1
					c-0.24-0.02-0.49-0.01-0.73-0.04C20.42,16.06,20.37,15.96,20.41,15.83z M18.49,19.82c0.04,0.02,0.09,0.03,0.12,0.07
					c0.03,0.03,0.04,0.09,0.04,0.13c0,0.02-0.06,0.07-0.07,0.07c-0.05-0.01-0.1-0.04-0.14-0.08C18.39,19.95,18.4,19.88,18.49,19.82z
					 M18.19,27.23c0.18,0.16,0,0.35,0.04,0.56c-0.06-0.03-0.11-0.04-0.12-0.07C18.05,27.55,18.05,27.39,18.19,27.23z M18.15,22.44
					c-0.01,0.05-0.02,0.09-0.04,0.14c-0.12-0.03-0.17-0.09-0.17-0.2C18.02,22.4,18.08,22.42,18.15,22.44z M18,53.65
					c0.07,0.08,0.07,0.16-0.01,0.25C17.84,53.78,17.84,53.78,18,53.65z M17.81,22.66c0.02,0,0.06,0.05,0.06,0.07
					c-0.03,0.1-0.1,0.11-0.21,0.07C17.68,22.71,17.72,22.64,17.81,22.66z M17.68,59c-0.01,0.09-0.03,0.16-0.04,0.24
					c-0.01,0.03-0.01,0.05-0.03,0.12c-0.05-0.09-0.08-0.15-0.12-0.2C17.55,59.1,17.56,59,17.68,59z M17.49,20.8
					c0.04,0.09,0.07,0.16,0.11,0.25c-0.12,0.02-0.23,0.09-0.3-0.05C17.36,20.93,17.42,20.87,17.49,20.8z M16.86,42.38
					c0,0.02-0.08,0.04-0.13,0.06c0.03-0.11,0.05-0.19,0.09-0.31c0.08,0.03,0.15-0.08,0.25,0.02C16.96,42.21,16.86,42.25,16.86,42.38
					z M17.01,43.3c-0.04,0.07-0.08,0.15-0.15,0.27c-0.09-0.14-0.08-0.23-0.03-0.31C16.88,43.2,16.95,43.21,17.01,43.3z M17.03,30.93
					c-0.19-0.14-0.2-0.2-0.07-0.42C17.08,30.63,17.01,30.77,17.03,30.93z M17.06,41.35c-0.05,0.08-0.08,0.13-0.11,0.18
					c-0.02,0-0.04,0-0.05,0c-0.02-0.06-0.03-0.13-0.06-0.21C16.92,41.33,16.98,41.34,17.06,41.35z M16.91,38.6
					c-0.11,0.01-0.19,0.01-0.29,0.02c0.06-0.14,0.1-0.26,0.25-0.35C16.89,38.4,16.89,38.49,16.91,38.6z M16.6,37.52
					c0.18-0.15,0.19-0.16,0.25,0.02C16.76,37.53,16.68,37.53,16.6,37.52z M16.62,38.96c0.07-0.19,0.07-0.19,0.14-0.22
					c-0.02,0.17-0.05,0.34-0.07,0.52c-0.04,0-0.08,0.01-0.17,0.02C16.56,39.15,16.59,39.05,16.62,38.96z M17.09,61.34
					c0.15,0.13,0.15,0.14-0.05,0.25C17.06,61.51,17.07,61.44,17.09,61.34z M17.31,68.2c0,0,0.06-0.02,0.11-0.03
					c-0.03,0.15-0.05,0.28-0.07,0.43c-0.05-0.01-0.1-0.02-0.18-0.03C17.23,68.44,17.33,68.34,17.31,68.2z M17.13,22.24
					c0.04,0.07,0.08,0.11,0.09,0.15c0,0.01-0.04,0.04-0.06,0.07c-0.03-0.03-0.07-0.06-0.09-0.1C17.06,22.34,17.09,22.3,17.13,22.24z
					 M17.05,30.01c0.03,0,0.05,0.06,0.05,0.09c0,0.09,0,0.17,0,0.29c-0.03,0-0.08,0-0.13-0.01c-0.01-0.1-0.01-0.19-0.01-0.28
					C16.96,30.04,16.98,29.98,17.05,30.01z M17.03,22.75c-0.05,0.11-0.14,0.08-0.22,0.08C16.89,22.66,16.89,22.66,17.03,22.75z
					 M16.83,26.29c-0.06,0.12-0.14,0.12-0.26,0.05C16.69,26.19,16.69,26.19,16.83,26.29z M16.54,34.51
					c0.04,0.04,0.08,0.08,0.12,0.12c-0.02,0.02-0.03,0.05-0.04,0.07c-0.1-0.03-0.21,0.08-0.31-0.05
					C16.38,34.61,16.43,34.58,16.54,34.51z M16.17,55.67c-0.01-0.12-0.03-0.23-0.04-0.35c0.1-0.01,0.16-0.02,0.25-0.03
					C16.29,55.42,16.39,55.59,16.17,55.67z M16.41,69.91c-0.11-0.03-0.21-0.05-0.35-0.09c0.12-0.06,0.2-0.09,0.28-0.13
					C16.4,69.76,16.47,69.8,16.41,69.91z M16.3,45.98c-0.11-0.05-0.18-0.09-0.26-0.12c0-0.01,0.01-0.03,0.01-0.04
					c0.08-0.02,0.16-0.04,0.28-0.07C16.32,45.84,16.3,45.9,16.3,45.98z M16.22,39.8c0.05,0.01,0.09,0.02,0.13,0.01
					c0.15-0.02,0.15-0.02,0.12,0.16C16.39,39.91,16.25,39.95,16.22,39.8z M16.43,36.77c0,0.1-0.01,0.17-0.01,0.28
					C16.29,36.94,16.31,36.87,16.43,36.77z M16.02,30.38c0.03,0.06,0.06,0.1,0.09,0.16c0.03-0.05,0.05-0.09,0.07-0.14
					c0.16,0.02,0.21,0.11,0.22,0.24c-0.1,0.11-0.2,0.06-0.27,0.01C16.06,30.59,15.95,30.53,16.02,30.38z M15.69,59.16
					c-0.04,0.07-0.05,0.1-0.06,0.12c-0.02,0.02-0.05,0.04-0.08,0.06c-0.04-0.06-0.08-0.12-0.14-0.2c0.07-0.01,0.13-0.03,0.18-0.03
					C15.63,59.11,15.67,59.15,15.69,59.16z M15.43,46.57c0.04,0.22,0.04,0.22-0.08,0.27C15.33,46.69,15.33,46.69,15.43,46.57z
					 M12.89,53.37c0.1-0.14,0.12-0.33,0.31-0.41c0.09,0.15-0.08,0.18-0.12,0.26c0.02,0.08,0.05,0.14,0.06,0.17
					c-0.06,0.11-0.1,0.18-0.14,0.26c-0.08,0.03-0.16,0.06-0.25,0.09c-0.01,0-0.02,0-0.04,0C12.7,53.58,12.76,53.46,12.89,53.37z
					 M12.7,54.33c0.02,0.05,0.1,0.07,0.05,0.16c-0.05-0.03-0.08-0.05-0.12-0.08c-0.06,0.02-0.04,0.15-0.15,0.1
					C12.51,54.41,12.57,54.34,12.7,54.33z M11.33,57.46c0.1,0.03,0.17,0.05,0.24,0.08c0.02,0.01,0.03,0.06,0.02,0.09
					c0,0.01-0.05,0.03-0.07,0.03c-0.07,0-0.13-0.02-0.2-0.03c-0.02,0-0.04-0.02-0.06-0.03C11.29,57.55,11.31,57.52,11.33,57.46z
					 M10.42,59.03c0.02-0.11,0.04-0.23,0.04-0.34c0.01-0.15,0-0.3,0.01-0.45c0.01-0.15,0.05-0.18,0.2-0.14
					c0.41,0.12,0.84,0.09,1.26,0.14c0.11,0.01,0.22-0.05,0.32-0.06c0.11-0.01,0.21,0.01,0.32,0.01c0.08,0,0.16-0.03,0.24-0.03
					c0.39-0.01,0.79-0.01,1.18-0.11c0.03-0.01,0.07,0,0.11,0c0.09,0,0.19,0.01,0.28-0.01c0.2-0.05,0.43,0.01,0.6-0.16
					c0.01-0.01,0.03-0.01,0.04-0.01c0.13-0.01,0.27-0.02,0.4-0.03c0.11,0.27-0.08,0.58,0.14,0.85c-0.06,0.06-0.1,0.13-0.15,0.14
					c-0.15,0.04-0.3,0.16-0.47,0.08c-0.03-0.01-0.07,0-0.11,0.01C14.56,59,14.28,59.07,14,59.12c-0.25,0.04-0.49,0.08-0.74,0.11
					c-0.25,0.03-0.49,0.02-0.74,0.08c-0.08,0.02-0.17,0.05-0.26,0.05c-0.33-0.01-0.66,0.03-0.99-0.03
					c-0.23-0.04-0.46-0.05-0.69-0.07C10.4,59.24,10.38,59.2,10.42,59.03z M13.67,62.59c-0.08-0.03-0.14-0.05-0.22-0.08
					c0.08-0.06,0.15-0.09,0.21-0.05C13.68,62.48,13.67,62.54,13.67,62.59z M12.55,62.45c-0.1,0.11-0.2,0.14-0.34,0.06
					c0.08-0.07,0.13-0.12,0.2-0.18C12.46,62.37,12.5,62.4,12.55,62.45z M12.09,62.33c-0.02,0.1-0.12,0.09-0.2,0.09
					c-0.04,0-0.09-0.03-0.16-0.05c0.06-0.08,0.1-0.14,0.15-0.2c0.04,0.01,0.06,0.02,0.08,0.03C12.01,62.23,12.12,62.23,12.09,62.33z
					 M10.23,64.69c0-0.08,0.03-0.16,0.05-0.26c0.11,0,0.22-0.01,0.32,0c0.19,0.03,0.37,0.07,0.56,0.1c0.26,0.04,0.52,0.07,0.78,0.1
					c0.13,0.01,0.26,0.02,0.4,0.01c0.24-0.01,0.47-0.03,0.7-0.05c0.06,0,0.12-0.01,0.18-0.01c0.21-0.02,0.42-0.05,0.64-0.07
					c0.32-0.04,0.63-0.06,0.95-0.1c0.1-0.01,0.2-0.06,0.3-0.07c0.28-0.04,0.56-0.04,0.73-0.33c0-0.01,0.03-0.01,0.04-0.01
					c0.06,0.42,0.12,0.85,0.18,1.28c0,0.05-0.02,0.14-0.06,0.16c-0.16,0.1-0.31,0.24-0.52,0.26c-0.18,0.01-0.37,0.03-0.53,0.11
					c-0.22,0.1-0.44,0.12-0.66,0.17c-0.11,0.02-0.21,0.06-0.31,0.07c-0.32,0.02-0.63,0-0.95,0.04c-0.23,0.03-0.45,0.03-0.68,0.01
					c-0.05,0-0.1,0-0.15,0c-0.32,0.01-0.65,0.02-0.97,0.02c-0.08,0-0.16-0.03-0.25-0.04c-0.14-0.01-0.28-0.01-0.41-0.02
					c-0.04,0-0.1-0.02-0.11-0.05c-0.04-0.11-0.13-0.06-0.2-0.05c-0.01-0.03-0.03-0.06-0.03-0.08
					C10.22,65.46,10.22,65.07,10.23,64.69z M10.27,66.93c0.08,0.04,0.14,0.09,0.21,0.11c0.27,0.08,0.54,0.14,0.83,0.13
					c0.27-0.01,0.55-0.02,0.82,0.05c0.17,0.04,0.37,0.05,0.54,0.02c0.27-0.05,0.54,0.01,0.81-0.07c0.19-0.06,0.4-0.05,0.61-0.08
					c0.06-0.01,0.12-0.05,0.18-0.06c0.23-0.02,0.45-0.05,0.68-0.05c0.21-0.01,0.39-0.16,0.6-0.11c0.02,0.01,0.06-0.03,0.1-0.05
					c0.05-0.03,0.1-0.06,0.15-0.09c0.08-0.04,0.16-0.07,0.26-0.11c0.11,0.04,0.15,0.11,0.13,0.23c-0.02,0.11-0.01,0.23,0,0.34
					c0.01,0.12,0.04,0.23,0.05,0.34c0.01,0.09-0.01,0.17-0.14,0.18c-0.16,0.01-0.33,0.01-0.47,0.08c-0.19,0.09-0.38,0.15-0.59,0.2
					c-0.37,0.08-0.72,0.22-1.09,0.28c-0.42,0.08-0.84,0.1-1.27,0.15c-0.05,0.01-0.11,0.04-0.15,0.08c-0.06,0.06-0.13,0.07-0.2,0.06
					c-0.07-0.01-0.13-0.05-0.21-0.06c-0.14-0.01-0.31-0.07-0.42-0.02c-0.11,0.06-0.2,0.04-0.31,0.07c-0.11,0.03-0.07-0.12-0.13-0.1
					c-0.13,0.04-0.24-0.04-0.36-0.05c-0.21-0.03-0.42-0.09-0.63-0.14C10.31,67.8,10.19,67.37,10.27,66.93z M11.78,72.13
					c-0.06,0.1-0.09,0.18-0.24,0.14C11.61,72.18,11.66,72.13,11.78,72.13z M10.37,81.83c-0.15-0.12-0.15-0.12,0-0.28
					C10.47,81.73,10.47,81.73,10.37,81.83z M12.15,83.68c0,0.02-0.06,0.02-0.09,0.03c-0.01-0.01-0.02-0.02-0.03-0.04
					c0.09-0.08,0.02-0.23,0.21-0.32C12.2,83.48,12.19,83.58,12.15,83.68z M12.32,81.43c0.09-0.2,0.09-0.2,0.29-0.23
					C12.52,81.28,12.5,81.44,12.32,81.43z M12.9,79.54c-0.02,0-0.03,0-0.04,0c-0.02-0.03-0.04-0.07-0.06-0.1
					c-0.02-0.03-0.05-0.06-0.06-0.09c0-0.01,0.05-0.05,0.06-0.05c0.04,0.02,0.1,0.05,0.11,0.08C12.92,79.43,12.9,79.49,12.9,79.54z
					 M13.05,79.39c-0.01-0.01-0.02-0.02-0.03-0.03c0.03-0.1,0.1-0.19,0.21-0.23c0.05-0.02,0.11,0.02,0.17,0.03c0,0.02,0,0.04,0,0.05
					C13.28,79.27,13.17,79.33,13.05,79.39z M14.29,79.24c-0.06,0.05-0.11,0.04-0.11-0.05l0,0c0.07-0.09,0.11-0.21,0.3-0.19
					C14.4,79.1,14.36,79.18,14.29,79.24z M15.08,75.01c-0.06,0.1-0.15,0.18-0.24,0.28c-0.04-0.21,0.14-0.32,0.22-0.49
					C15.08,74.87,15.11,74.96,15.08,75.01z M15.37,77.66c0.02-0.22,0.22-0.16,0.31-0.25C15.65,77.58,15.51,77.6,15.37,77.66z
					 M15.94,75.67c-0.07,0.01-0.12,0.01-0.17,0.03c-0.05,0.02-0.1,0.06-0.18,0.11c0-0.19,0.15-0.18,0.21-0.26
					c0.06-0.08,0.14-0.15,0.23-0.26C16,75.44,15.97,75.56,15.94,75.67z M15.66,72.63c0.01-0.17,0.18-0.13,0.26-0.21
					C15.92,72.56,15.92,72.56,15.66,72.63z M16.46,70.59c-0.03,0.16-0.11,0.27-0.29,0.32c-0.26,0.08-0.52,0.17-0.78,0.26
					c-0.13,0.04-0.27,0.08-0.4,0.14c-0.36,0.19-0.71,0.4-1.06,0.59c-0.11,0.06-0.25,0.09-0.33,0.17c-0.18,0.2-0.41,0.31-0.65,0.38
					c-0.28,0.09-0.5,0.24-0.73,0.42c-0.05,0.04-0.1,0.09-0.15,0.09c-0.16,0-0.25,0.1-0.34,0.19c-0.11,0.12-0.3,0.15-0.35,0.33
					c0,0.02-0.07,0.02-0.1,0.03c-0.03,0.01-0.08,0.02-0.1,0.04c-0.06,0.1-0.12,0.18-0.23,0.22c0,0.15-0.17,0.11-0.23,0.19
					c-0.07,0.08-0.14,0.15-0.22,0.22c-0.06,0.06-0.11,0.12-0.22,0.09c0.02-0.21,0.04-0.42,0.05-0.6c0.14-0.06,0.24-0.1,0.35-0.15
					c0.02-0.18,0.17-0.19,0.3-0.24c0.04-0.02,0.08-0.06,0.12-0.1c0.16-0.13,0.29-0.28,0.46-0.38c0.38-0.22,0.76-0.47,1.19-0.57
					c0.07-0.02,0.15-0.07,0.21-0.12c0.31-0.29,0.69-0.48,1.05-0.71c0.17-0.11,0.38-0.16,0.56-0.27c0.17-0.1,0.35-0.2,0.54-0.27
					c0.17-0.06,0.34-0.14,0.51-0.2c0.2-0.06,0.41-0.1,0.59-0.22c0.06-0.05,0.14-0.07,0.24-0.13C16.48,70.45,16.47,70.52,16.46,70.59
					z M16.34,41.04c0.06-0.13,0.12-0.25,0.18-0.36C16.56,40.83,16.5,40.98,16.34,41.04z M16.46,40.08c0.07,0.02,0.12,0.06,0.17,0.05
					c0.08-0.01,0.13-0.01,0.12,0.09C16.5,40.26,16.47,40.24,16.46,40.08z M16.74,79.8c-0.02,0.01-0.05,0-0.09,0
					c0.03-0.07,0.06-0.12,0.09-0.17C16.84,79.7,16.85,79.75,16.74,79.8z M16.85,46.74c0.2,0.05,0.22,0.09,0.18,0.41
					C16.84,46.97,16.84,46.97,16.85,46.74z M17.68,77.41c-0.02-0.07-0.09-0.15-0.07-0.2c0.06-0.15-0.02-0.27-0.03-0.4
					c-0.01-0.19-0.03-0.39-0.05-0.58c-0.03-0.22-0.01-0.44-0.06-0.66c-0.01-0.03,0.01-0.06,0.01-0.09c0-0.04,0-0.09,0-0.13
					c-0.03-0.21-0.05-0.41-0.08-0.62c-0.01-0.12-0.03-0.24-0.04-0.36c-0.03-0.34-0.04-0.69-0.13-1.02
					c-0.03-0.11-0.04-0.22-0.04-0.34c0-0.26,0.08-0.54-0.11-0.77c-0.01-0.01-0.01-0.03-0.01-0.04c-0.03-0.19-0.06-0.38-0.08-0.57
					c-0.02-0.15,0.04-0.21,0.19-0.14c0.14,0.06,0.27,0.09,0.42,0.09c0.09,0,0.17,0.02,0.27,0.03c0.01,0.03,0.02,0.05,0.01,0.06
					c-0.16,0.4-0.06,0.82-0.12,1.23c-0.01,0.05,0.02,0.1,0.03,0.15c0.01,0.04,0.03,0.09,0.02,0.13c-0.05,0.34,0.04,0.67-0.01,1.01
					c-0.02,0.16,0.07,0.32,0,0.49c-0.05,0.1-0.01,0.19,0.01,0.29c0.06,0.22,0.11,0.44,0.13,0.67c0.03,0.3,0.03,0.6,0.05,0.9
					c0.02,0.23,0.12,0.44,0.05,0.68c-0.01,0.04,0,0.08,0.01,0.13c0,0.1,0,0.2,0,0.3c0,0.16,0.01,0.31,0.02,0.47
					c0,0.08,0.01,0.17-0.09,0.24c-0.02-0.04-0.04-0.06-0.04-0.09c-0.06-0.25-0.24-0.47-0.21-0.75
					C17.72,77.47,17.7,77.44,17.68,77.41z M17.92,80.28c0.03-0.08,0.07-0.14,0.16-0.1c0.01,0.01,0.03,0.04,0.03,0.05
					C18.06,80.32,17.99,80.3,17.92,80.28z M18.44,70.29c-0.19,0.11-0.16,0.25-0.09,0.41c0.03,0.06,0.02,0.13,0.02,0.19
					c-0.26,0.03-0.49,0.05-0.73,0.08c0.01-0.09,0.03-0.16,0.02-0.23c-0.02-0.12-0.03-0.28-0.11-0.35c-0.17-0.16-0.42-0.04-0.47,0.2
					c0.04,0.06,0.1,0.11,0.12,0.17c0.03,0.07,0.01,0.15-0.09,0.17c-0.09,0.02-0.13-0.02-0.13-0.12c-0.01-0.1,0-0.21-0.03-0.3
					c-0.04-0.14-0.02-0.27,0.02-0.4c0.03,0,0.05-0.02,0.07-0.01c0.19,0.09,0.39,0.08,0.6,0.04c0.01,0,0.03,0.01,0.04,0
					c0.2-0.02,0.41-0.03,0.61-0.06c0.09-0.01,0.15,0,0.23,0.05C18.49,70.21,18.48,70.27,18.44,70.29z M19.96,80.35
					c-0.04,0.05-0.09,0.09-0.15,0.16c-0.15-0.11-0.3-0.21-0.45-0.31c-0.14-0.09-0.14-0.09-0.07-0.27c-0.13-0.07-0.16-0.18-0.16-0.31
					c0-0.06-0.01-0.11-0.02-0.17c-0.03-0.21-0.1-0.41-0.09-0.62c0.01-0.23-0.07-0.44-0.07-0.66c0-0.28-0.05-0.55-0.05-0.83
					c0-0.13,0.05-0.27-0.04-0.37c-0.11-0.13,0.04-0.24-0.01-0.36c-0.01-0.03-0.02-0.07-0.05-0.09c-0.06-0.05-0.04-0.11-0.06-0.17
					c-0.03-0.11,0.02-0.22,0.01-0.32c-0.04-0.29,0.03-0.57,0.01-0.85c-0.01-0.15-0.01-0.3-0.01-0.45c0-0.09-0.01-0.19-0.01-0.28
					c0-0.09,0.02-0.18,0-0.25c-0.09-0.24,0.01-0.48,0.01-0.72c0-0.22,0.03-0.44-0.11-0.63c-0.01-0.02-0.01-0.05-0.01-0.08
					c0.01-0.17,0-0.34,0.04-0.5c0.05-0.19,0.02-0.34-0.13-0.46c0.07-0.12,0.14-0.17,0.28-0.15c0.13,0.01,0.25,0.06,0.39,0
					c0.05-0.02,0.12,0.02,0.18,0.04c0,0.18,0,0.33-0.01,0.49c-0.03,0.39-0.07,0.79-0.1,1.18c-0.01,0.12-0.01,0.23-0.01,0.35
					c0.02,0.27,0.04,0.54,0.06,0.81c0.03,0.39,0.06,0.79,0.1,1.18c0.01,0.12,0.04,0.24-0.01,0.36c-0.02,0.04,0.02,0.11,0.02,0.16
					c0.02,0.17,0.04,0.34,0.05,0.51c0.01,0.17,0,0.34,0.01,0.51c0.01,0.27,0.16,0.51,0.1,0.79c-0.01,0.03,0.01,0.06,0.02,0.09
					c0.08,0.22,0.1,0.44,0.1,0.67c0,0.11,0.03,0.23,0.07,0.33c0.06,0.13,0.08,0.24,0.03,0.37c-0.06,0.15-0.05,0.28,0.03,0.41
					c0.07,0.11,0.14,0.22,0.22,0.35C20.04,80.26,20,80.31,19.96,80.35z M20.19,70.18c-0.11-0.07-0.17,0.03-0.25,0.08
					c-0.16,0.11-0.17,0.12-0.11,0.29c0.03,0.08,0.08,0.16,0.13,0.26c-0.34,0.12-0.66,0.02-0.98,0.09c-0.03,0-0.06-0.03-0.09-0.04
					c0.01-0.03,0-0.06,0.01-0.08c0.11-0.14,0.1-0.27-0.02-0.39c-0.04-0.05-0.06-0.11-0.11-0.19c0.42-0.06,0.81-0.13,1.19-0.14
					c0.13-0.01,0.27-0.01,0.4-0.02c0.38-0.03,0.76-0.07,1.14-0.04c0.4,0.03,0.81,0.03,1.22,0.02c0.33-0.01,0.65-0.03,0.98-0.04
					c0.11-0.01,0.25,0.01,0.34-0.04c0.13-0.07,0.25-0.07,0.36-0.04c0.09,0.02,0.17,0.04,0.27,0.03c0.14-0.01,0.28-0.01,0.43-0.01
					c-0.02,0.11-0.06,0.24-0.08,0.35c0.04,0.03,0.1,0.04,0.11,0.08c0.06,0.21,0.21,0.2,0.38,0.18c0.19-0.02,0.34-0.18,0.19-0.39
					c-0.04-0.05-0.11-0.08-0.17-0.12c-0.03-0.02-0.06-0.05-0.1-0.07c0.22-0.15,0.79-0.17,1.27-0.06c-0.07,0.05-0.12,0.08-0.16,0.11
					c-0.17,0.14-0.17,0.34-0.01,0.48c0.11,0.1,0.24,0.09,0.37,0.08c0.17-0.02,0.22-0.11,0.15-0.26c-0.02-0.05-0.06-0.1-0.09-0.14
					c-0.06-0.08-0.13-0.16-0.2-0.25c0.13-0.08,0.24-0.04,0.36-0.02c0.11,0.02,0.21,0.06,0.31,0.1c0.11,0.03,0.25-0.03,0.31,0.11
					c-0.17,0.19-0.18,0.37-0.03,0.58c-0.09,0.09-0.09,0.08-0.18,0.07c-0.06-0.01-0.13-0.01-0.19-0.01
					c-0.13,0.01-0.27,0.02-0.39,0.02c-0.18,0-0.36-0.04-0.5,0.08c-0.09-0.04-0.15-0.1-0.21-0.1c-0.39,0.05-0.79,0.05-1.18,0.03
					c-0.11,0-0.22,0.01-0.33,0.04c-0.18,0.05-0.35,0.06-0.48-0.09c0.12-0.27,0.11-0.56-0.22-0.59c-0.1-0.01-0.18-0.01-0.22,0.08
					c-0.05,0.09-0.08,0.17,0.01,0.25c0.11,0.1,0.21,0.2,0.35,0.34c-0.12,0.01-0.2,0.01-0.29,0.01c-0.04,0-0.08-0.01-0.1,0.01
					c-0.13,0.1-0.28,0.07-0.42,0.05c-0.13-0.01-0.26-0.05-0.39-0.08c0.03-0.15,0.07-0.28,0.07-0.42c0.01-0.16-0.08-0.23-0.24-0.23
					c-0.04,0-0.07,0-0.11,0.01c-0.24,0.02-0.33,0.17-0.26,0.39c0.02,0.08,0.04,0.16,0.06,0.26c-0.31,0-0.6,0-0.89,0.01
					c0.01-0.22,0.15-0.4,0.07-0.61c-0.13,0-0.26,0-0.39,0c-0.13,0.01-0.18,0.09-0.18,0.23c0,0.16,0.11,0.24,0.2,0.36
					c-0.05,0.04-0.09,0.09-0.13,0.09c-0.27,0.02-0.54,0.06-0.81-0.04c-0.04-0.08-0.05-0.15,0-0.24
					C20.48,70.44,20.35,70.28,20.19,70.18z M27.38,73.72c0,0.12,0,0.25-0.04,0.36c-0.04,0.14-0.06,0.27-0.01,0.42
					c0.03,0.07,0.01,0.17,0,0.25c-0.02,0.16-0.05,0.31-0.07,0.48c-0.03,0.2-0.01,0.41-0.05,0.62c-0.04,0.19-0.02,0.39,0,0.58
					c0.01,0.09,0.01,0.16-0.01,0.25c-0.02,0.11-0.07,0.25-0.03,0.34c0.08,0.21,0.03,0.41,0.01,0.62c-0.01,0.05-0.01,0.12,0.01,0.16
					c0.06,0.1,0.05,0.21,0.02,0.31c-0.03,0.13-0.07,0.25-0.08,0.38c-0.03,0.2,0.05,0.41-0.07,0.61c0,0,0,0.01,0,0.02
					c0.02,0.3-0.06,0.6,0.03,0.9c0.04,0.12,0.04,0.24-0.01,0.36c-0.02,0.05-0.01,0.11-0.01,0.17c0,0.09,0,0.18,0.01,0.27
					c0.01,0.13-0.07,0.29,0.08,0.38c-0.11,0.14-0.13,0.16-0.27,0.2c-0.22,0.06-0.44,0.09-0.68,0.05c-0.2-0.04-0.23-0.06-0.21-0.26
					c0.01-0.1,0.06-0.2,0.07-0.3c0.02-0.36,0.04-0.72,0.06-1.08c0-0.03-0.02-0.05-0.02-0.08c-0.01-0.05-0.02-0.09-0.02-0.13
					c0.02-0.18,0.09-0.38,0.07-0.55c-0.04-0.34,0-0.69,0.01-1.03c0-0.12-0.01-0.24-0.01-0.37c0-0.08,0.01-0.16,0.02-0.23
					c0.02-0.1,0.07-0.19,0.09-0.29c0.03-0.16,0.07-0.33,0.08-0.49c0.01-0.18,0.01-0.35,0-0.53c-0.02-0.17-0.08-0.34,0.04-0.5
					c0.02-0.02,0.02-0.06,0.02-0.09c-0.03-0.24-0.04-0.49-0.1-0.72c-0.03-0.1-0.02-0.17,0-0.27c0.03-0.14,0.06-0.29,0.07-0.44
					c0.02-0.26,0.05-0.52,0-0.77c0-0.01,0-0.02,0.01-0.02c0.13-0.23,0.04-0.48,0.04-0.71c0-0.2-0.03-0.41,0.02-0.62
					c-0.04-0.02-0.07-0.04-0.11-0.07c0.05-0.07,0.09-0.15,0.15-0.2c0.05-0.05,0.13-0.09,0.19-0.09c0.14-0.01,0.29,0.01,0.43,0.01
					c0.16,0,0.32-0.01,0.48-0.01c0.03,0,0.08,0.01,0.09,0.02c0.01,0.04,0.01,0.1-0.01,0.12c-0.06,0.03-0.12,0.05-0.21,0.08
					c0,0-0.02,0.03-0.03,0.05c-0.01,0.19-0.03,0.39-0.04,0.58c-0.01,0.12,0,0.25-0.02,0.37C27.34,73.15,27.37,73.44,27.38,73.72z
					 M25.23,74.75c-0.08,0.14-0.08,0.28-0.03,0.43c0.02,0.07,0.05,0.15-0.03,0.2c-0.14,0.08-0.12,0.19-0.12,0.3
					c0,0.11,0,0.21,0,0.32c0,0.06,0.01,0.11,0.01,0.17c0.03,0.24,0.05,0.48,0.08,0.72c0.01,0.08,0.02,0.16,0.02,0.24
					c0,0.24,0.01,0.48-0.03,0.71c-0.02,0.13,0.01,0.25,0,0.37c-0.02,0.14-0.05,0.27-0.06,0.41c0,0.03,0.01,0.07,0.03,0.1
					c0.13,0.2,0.01,0.44,0.1,0.65c0.01,0.02-0.02,0.05-0.04,0.08c-0.08,0.09-0.05,0.19-0.03,0.29c0.03,0.16,0.05,0.33,0.03,0.49
					c-0.02,0.21-0.08,0.43-0.12,0.64c-0.02,0.11-0.03,0.22,0.07,0.32c0.12,0.13,0.11,0.17-0.02,0.33c-0.06,0-0.12-0.03-0.17-0.01
					c-0.15,0.05-0.3,0.03-0.46,0.02c-0.11-0.01-0.17-0.06-0.17-0.18c0-0.07-0.02-0.13-0.02-0.2c0-0.15-0.04-0.31,0-0.45
					c0.07-0.27,0.03-0.52,0-0.77c-0.03-0.21-0.03-0.44-0.01-0.66c0.02-0.18,0.02-0.34-0.05-0.51c-0.02-0.06-0.01-0.12-0.02-0.19
					c0-0.05,0-0.11-0.01-0.16c-0.01-0.06-0.02-0.11-0.03-0.17c-0.02-0.08-0.04-0.17-0.07-0.28c0.14-0.08,0.05-0.21,0.02-0.33
					c-0.02-0.07-0.04-0.12-0.02-0.2c0.04-0.12,0.07-0.25,0.08-0.38c0.02-0.18-0.01-0.37,0.04-0.54c0.06-0.22,0.05-0.43,0.06-0.65
					c0-0.12-0.03-0.25-0.14-0.32c-0.09-0.06-0.09-0.14-0.05-0.23c0.03-0.06,0.07-0.11,0.1-0.16c-0.04-0.26-0.08-0.51-0.07-0.76
					c0-0.12,0.02-0.25,0.07-0.36c0.06-0.14,0.11-0.27,0.01-0.41c-0.01-0.02-0.02-0.05-0.01-0.08c0.01-0.11,0.01-0.21-0.02-0.32
					c-0.02-0.09,0.06-0.2,0.09-0.31c0.01-0.04,0-0.08,0-0.13c-0.02-0.12-0.03-0.24,0.01-0.36c0.02-0.07,0-0.15-0.02-0.23
					c0-0.03-0.02-0.06-0.02-0.1c-0.01-0.11,0-0.23-0.04-0.34c-0.02-0.08-0.01-0.13,0.04-0.18c0.05-0.06,0.12-0.11,0.14-0.13
					c0.1,0.01,0.18,0.04,0.21,0.02c0.11-0.09,0.18-0.03,0.25,0.03c0.09,0.08,0.18,0.13,0.3,0.15c0.14,0.01,0.17,0.07,0.18,0.22
					c0.01,0.27-0.07,0.55,0.02,0.82c0.01,0.03-0.01,0.07-0.01,0.11c-0.04,0.25-0.08,0.5-0.1,0.75c-0.03,0.3-0.04,0.61-0.08,0.91
					C25.1,74.58,25.11,74.68,25.23,74.75z M23.37,81.01c0,0.24-0.17,0.41-0.42,0.4c-0.05,0-0.1,0-0.15,0c-0.22,0-0.28-0.07-0.3-0.28
					c-0.01-0.09-0.01-0.19-0.04-0.28c-0.05-0.17-0.12-0.34-0.01-0.52c0.01-0.01,0-0.04,0-0.06c0-0.14-0.01-0.29,0-0.43
					c0.01-0.13,0.01-0.24-0.03-0.36c-0.04-0.13-0.04-0.26-0.06-0.4c-0.01-0.05-0.01-0.11-0.03-0.14c-0.15-0.15-0.12-0.3-0.06-0.48
					c0.02-0.07,0.03-0.17-0.01-0.22c-0.04-0.06-0.05-0.12-0.06-0.19c-0.02-0.15-0.06-0.29,0-0.44c0.01-0.02-0.01-0.06-0.03-0.08
					c-0.1-0.13-0.08-0.28-0.06-0.44c0.03-0.24,0.12-0.48,0-0.71c-0.01-0.02,0-0.06,0-0.09c0.02-0.19,0.03-0.38,0.06-0.56
					c0.06-0.35,0.19-0.69,0.15-1.05c-0.01-0.03,0-0.08,0.01-0.11c0.07-0.15,0.02-0.29,0.01-0.43c0-0.09-0.03-0.18-0.18-0.18
					c0.12-0.16,0.24-0.29,0.07-0.45c0,0,0-0.02,0-0.02c0.02-0.16,0.03-0.32,0.06-0.48c0.03-0.13,0.07-0.25-0.11-0.33
					c0.11-0.13,0.19-0.26,0.15-0.39c-0.06-0.19,0.03-0.35,0.04-0.53c0-0.09,0.07-0.18,0.19-0.18c0.18-0.01,0.36-0.02,0.54-0.03
					c-0.03,0.13-0.07,0.23-0.07,0.34C23,72.07,23.01,72.27,23,72.46c-0.01,0.28-0.02,0.57-0.03,0.85c-0.01,0.14-0.02,0.29-0.03,0.43
					c-0.01,0.06,0,0.13,0.01,0.19c0.01,0.08,0.05,0.17,0.05,0.25c0,0.35,0,0.71,0,1.06c0,0.05,0.01,0.1,0.01,0.15
					c-0.01,0.21-0.02,0.43,0.07,0.62c0.01,0.02,0,0.04-0.01,0.06c-0.04,0.15,0.03,0.31-0.03,0.46c-0.01,0.02,0.01,0.06,0.01,0.09
					c0.01,0.14,0.02,0.28,0.02,0.43c0,0.15-0.01,0.3-0.01,0.45c0,0.11,0.02,0.21,0.02,0.32c0,0.19,0.05,0.36,0.17,0.52
					c-0.13,0.11-0.13,0.11-0.1,0.27c0.03,0.17,0.05,0.34,0.08,0.51c0.02,0.1,0.05,0.19,0.07,0.29c0.03,0.14,0.11,0.3,0.08,0.43
					c-0.05,0.26-0.01,0.51-0.04,0.77C23.34,80.75,23.37,80.88,23.37,81.01z M20.51,79.42c0.02-0.12,0.04-0.23,0.05-0.35
					c0.02-0.19,0.04-0.37,0.05-0.56c0.01-0.06,0-0.13-0.02-0.19c-0.08-0.18-0.15-0.36-0.19-0.56c-0.02-0.12-0.02-0.22,0.03-0.31
					c0.11-0.17,0.09-0.32-0.02-0.48c-0.09-0.15-0.12-0.3-0.03-0.48c0.05-0.11,0.02-0.25,0.01-0.38c0-0.07-0.04-0.15-0.02-0.21
					c0.08-0.24,0.05-0.49,0.07-0.73c0.01-0.08-0.02-0.17-0.04-0.25c-0.02-0.12-0.13-0.24-0.01-0.38c0.01-0.02,0-0.06,0-0.08
					c0-0.25-0.01-0.5,0-0.76c0-0.05,0.01-0.1,0.03-0.15c0.06-0.15,0.04-0.3,0.03-0.46c-0.02-0.15,0.04-0.31,0.07-0.47
					c0-0.01,0-0.02-0.01-0.02c-0.05-0.17-0.01-0.34,0.03-0.51c0.04-0.13,0.07-0.27,0.12-0.43c0.09-0.01,0.2-0.02,0.3-0.04
					c0.29-0.05,0.4,0.07,0.3,0.33c-0.04,0.1-0.03,0.18-0.03,0.27c0,0.06,0,0.12,0,0.17c-0.02,0.2-0.04,0.4-0.06,0.6
					c-0.01,0.06,0,0.13-0.02,0.19c-0.04,0.13-0.04,0.26-0.01,0.39c0.03,0.15,0.05,0.31,0.06,0.46c0.01,0.06-0.03,0.13-0.03,0.19
					c-0.01,0.16-0.04,0.33,0,0.48c0.04,0.13,0.07,0.26,0.06,0.4c-0.01,0.26-0.05,0.53,0.09,0.76c0.02,0.04,0.02,0.1,0.02,0.15
					c-0.01,0.35-0.02,0.7-0.03,1.06c0,0.04-0.01,0.1,0.01,0.13c0.04,0.07,0.04,0.12,0,0.19c-0.04,0.09-0.05,0.21,0.01,0.31
					c0.05-0.02,0.09-0.03,0.17-0.05c-0.04,0.1-0.07,0.18-0.09,0.26c-0.01,0.03-0.03,0.08-0.02,0.1c0.08,0.19,0.01,0.39,0.02,0.58
					c0,0.1-0.01,0.2,0.09,0.27c0.04,0.03,0.05,0.13,0.03,0.17c-0.09,0.17-0.06,0.33-0.02,0.49c0.09,0.34,0.16,0.67,0.06,1.02
					c-0.02,0.05,0.01,0.15,0.05,0.17c0.11,0.04,0.12,0.12,0.09,0.21c-0.03,0.1-0.1,0.17-0.21,0.16c-0.17-0.02-0.34-0.03-0.49-0.09
					c-0.16-0.07-0.29-0.21-0.31-0.39c-0.02-0.15,0.03-0.31,0.05-0.47c0.01-0.05,0.02-0.1,0.02-0.15
					C20.78,79.74,20.65,79.57,20.51,79.42z M24.64,84.3c-0.01,0.01-0.04,0.01-0.06,0.02c-0.01-0.02-0.03-0.03-0.04-0.05
					c-0.02-0.08,0.01-0.14,0.09-0.17c0.02-0.01,0.09,0.04,0.08,0.04C24.69,84.2,24.67,84.25,24.64,84.3z M30.47,81.87
					c-0.02,0.07-0.06,0.13-0.08,0.2c-0.03,0.07-0.06,0.15-0.07,0.23c-0.02,0.23-0.21,0.39-0.3,0.6c0,0-0.02,0-0.06,0
					c0.02-0.05,0.04-0.09,0.06-0.14c0.06-0.17,0.12-0.34,0.17-0.52c0.03-0.09-0.03-0.14-0.11-0.12c-0.24,0.06-0.47,0.14-0.7,0.2
					c-0.08,0.02-0.16,0.03-0.24,0.03c-0.22,0.01-0.44,0-0.65,0.03c-0.37,0.04-0.74,0.11-1.11,0.14c-0.24,0.02-0.48,0-0.72,0
					c-0.35,0-0.71,0.12-1.06,0.01c-0.03-0.01-0.07-0.01-0.09,0c-0.11,0.07-0.23,0.06-0.34-0.02c-0.02,0.07-0.04,0.11-0.06,0.17
					c-0.05-0.04-0.08-0.09-0.11-0.1c-0.17-0.05-0.35-0.08-0.54-0.04c-0.02,0-0.05,0.01-0.06,0c-0.12-0.07-0.24-0.02-0.36,0
					c-0.05,0.01-0.1,0.01-0.15,0.01c-0.2,0-0.41,0.01-0.61-0.01c-0.23-0.02-0.46-0.01-0.68-0.11c-0.16-0.07-0.33-0.12-0.51-0.05
					c-0.05,0.02-0.13,0.01-0.19,0c-0.3-0.11-0.6-0.11-0.92-0.03c-0.06,0.02-0.16,0.05-0.19,0.02c-0.14-0.13-0.33-0.13-0.48-0.22
					c-0.04-0.02-0.08-0.08-0.07-0.12c0.05-0.17,0.1-0.33,0.17-0.49c0.04-0.09,0.18-0.09,0.21,0c0.04,0.14,0.15,0.19,0.28,0.21
					c0.15,0.02,0.31,0.04,0.46,0.07c0.44,0.09,0.89,0.19,1.35,0.17c0.15-0.01,0.3,0.06,0.43,0.01c0.14-0.05,0.24,0,0.35,0.03
					c0.06,0.02,0.13,0.03,0.2,0.03c0.23-0.01,0.46,0.02,0.68-0.04c0.29-0.07,0.56,0.07,0.84-0.04c0.01-0.01,0.04-0.01,0.04,0
					c0.12,0.11,0.27,0.03,0.41,0.03c0.09,0,0.19,0.01,0.28,0.01c0.14-0.01,0.29-0.01,0.43-0.02c0.11-0.01,0.24-0.06,0.34-0.03
					c0.09,0.02,0.17,0,0.25-0.01c0.26-0.02,0.51-0.16,0.78-0.11c0.11,0.02,0.23,0.01,0.35,0.01c0.26,0,0.51-0.01,0.77-0.02
					c0.07,0,0.15-0.03,0.21-0.05c0.19-0.07,0.38-0.12,0.58-0.09c0.03,0,0.07,0.02,0.11,0.01c0.15-0.03,0.3-0.06,0.46-0.09
					C30.4,81.55,30.52,81.68,30.47,81.87z M31.87,74.8c-0.02,0.08-0.02,0.17-0.01,0.26c0.01,0.17,0.02,0.35-0.05,0.51
					c-0.1,0.22-0.1,0.45-0.05,0.68c0.02,0.09,0,0.18-0.01,0.28c-0.01,0.08-0.04,0.16-0.05,0.23c-0.03,0.2-0.05,0.4-0.07,0.6
					c-0.02,0.16-0.1,0.32-0.05,0.49c0.01,0.04-0.03,0.12-0.07,0.15c-0.09,0.07-0.11,0.15-0.08,0.25c0.02,0.08,0.03,0.17,0.03,0.25
					c0.01,0.18,0.03,0.38-0.1,0.52c-0.14,0.15-0.15,0.31-0.14,0.48c0,0.11,0.01,0.25-0.05,0.33c-0.13,0.19-0.14,0.35,0.01,0.52
					c-0.18,0.13-0.28,0.3-0.29,0.51C30.86,80.95,30.81,81,30.72,81c-0.06,0.01-0.13,0.04-0.19,0.03c-0.18-0.01-0.35,0.01-0.5,0.12
					c-0.02,0.02-0.05,0.04-0.08,0.04c-0.04,0.01-0.09,0-0.14,0c0.01-0.05-0.01-0.1,0.01-0.14c0.04-0.07,0.1-0.13,0.13-0.2
					c0.14-0.3,0.21-0.62,0.26-0.94c0-0.04,0.02-0.09,0.01-0.13c-0.06-0.16,0.01-0.32,0.05-0.47c0.03-0.12,0.05-0.21-0.02-0.31
					c-0.05-0.07-0.05-0.14,0.01-0.19c0.07-0.06,0.07-0.14,0.08-0.22c0.04-0.39,0.08-0.79,0.12-1.19c0-0.05,0.02-0.1,0.04-0.15
					c0.11-0.2,0.1-0.39,0.04-0.59c0.18-0.24,0.25-0.45,0.26-0.74c0-0.09,0.02-0.17,0.03-0.26c0.01-0.14,0.02-0.28,0.04-0.41
					c0.05-0.28-0.07-0.58,0.13-0.85c0.02-0.03,0.01-0.09,0.02-0.13c0.01-0.17-0.01-0.34,0.03-0.5c0.09-0.36,0.06-0.72,0.11-1.08
					c0.03-0.23,0.03-0.46,0.06-0.69c0.02-0.15,0.07-0.3,0.12-0.48c0.34-0.05,0.67-0.1,1.02-0.16c0.01,0.06,0.06,0.16,0.03,0.21
					c-0.09,0.17-0.05,0.34-0.07,0.51c-0.01,0.06-0.02,0.13-0.05,0.19c-0.06,0.11-0.05,0.19,0.03,0.26
					c-0.09,0.29-0.25,0.56-0.19,0.87c0,0.01-0.01,0.03-0.01,0.04c-0.06,0.14-0.09,0.29-0.05,0.45c0.01,0.05,0.01,0.11-0.01,0.15
					C31.91,74.3,31.94,74.56,31.87,74.8z M34.93,73.52c-0.02,0.05-0.06,0.1-0.09,0.15c-0.05,0.07-0.11,0.13-0.14,0.2
					c-0.28,0.59-0.69,1.11-0.88,1.74c-0.03,0.11-0.06,0.23-0.06,0.34c0,0.16-0.05,0.31-0.12,0.46c-0.09,0.23-0.16,0.46-0.24,0.7
					c0,0.01,0,0.01,0,0.02c0,0.16,0.01,0.32-0.12,0.45c0.05,0.21-0.1,0.39-0.12,0.58c-0.02,0.18-0.04,0.34-0.15,0.49
					c-0.03,0.03-0.04,0.08-0.05,0.12c-0.14,0.42-0.28,0.85-0.41,1.27c-0.08,0.26-0.27,0.38-0.52,0.54c0.01-0.14,0.01-0.22,0.03-0.3
					c0.05-0.16,0.11-0.32,0.16-0.48c0.1-0.29,0.18-0.58,0.22-0.89c0.04-0.31,0.15-0.61,0.19-0.91c0.1-0.61,0.22-1.21,0.36-1.81
					c0.1-0.44,0.16-0.88,0.3-1.32c0.11-0.34,0.18-0.69,0.23-1.04c0.05-0.36,0.06-0.73,0.18-1.09c0.01-0.03,0-0.06,0.01-0.08
					c0-0.24,0.06-0.48,0.02-0.71c-0.02-0.13,0.02-0.26,0.15-0.32c0.12-0.05,0.25-0.08,0.39-0.04c0.16,0.04,0.33,0.1,0.5-0.02
					c0.06-0.04,0.16-0.09,0.2-0.07c0.14,0.08,0.25,0.01,0.39-0.07c0.02,0.06,0.04,0.1,0.03,0.13c-0.05,0.24-0.01,0.51-0.16,0.73
					c-0.01,0.02-0.03,0.06-0.02,0.08c0.04,0.15-0.04,0.28-0.07,0.42C35.06,73.03,35,73.27,34.93,73.52z M35.23,77.02
					c-0.06-0.2-0.06-0.2,0.02-0.31c0.05,0.04,0.1,0.08,0.17,0.13C35.35,76.91,35.3,76.96,35.23,77.02z M35.49,75.54
					c-0.02,0-0.04-0.01-0.05-0.01c0.01-0.06,0.01-0.16,0.05-0.19c0.09-0.06,0.18-0.12,0.33-0.09
					C35.69,75.36,35.59,75.45,35.49,75.54z M35.69,68.39c-0.13-0.06-0.14-0.15-0.02-0.23c0.05-0.04,0.12-0.06,0.17-0.1
					c0.13,0.27,0.13,0.27-0.02,0.39C35.78,68.43,35.74,68.41,35.69,68.39z M38.05,80.96c0.02-0.06,0.02-0.13,0.11-0.13
					c0.02,0,0.05,0.05,0.05,0.08C38.18,80.99,38.13,81,38.05,80.96z M38.85,77.97c-0.13-0.12-0.25-0.24-0.4-0.39
					c0.04-0.15,0.08-0.17,0.22-0.1c0.05,0.03,0.1,0.06,0.14,0.09C39,77.72,39,77.77,38.85,77.97z M38.98,75.02
					c-0.02-0.07,0.04-0.1,0.13-0.09c0.03,0.05,0.05,0.11,0.09,0.18C39.06,75.18,39.01,75.1,38.98,75.02z M39.24,78.28
					c-0.19-0.05-0.19-0.05-0.16-0.19c0.32-0.04,0.48,0.13,0.59,0.38C39.41,78.55,39.33,78.51,39.24,78.28z M40.11,81.37
					c-0.08,0.01-0.16,0.05-0.2-0.06c-0.02-0.07-0.14-0.13-0.02-0.24C39.98,81.16,40.13,81.19,40.11,81.37z M40.72,78.16
					c0.24,0.13,0.25,0.17,0.08,0.32C40.63,78.34,40.63,78.33,40.72,78.16z M40.9,80.15c-0.01,0.03-0.05,0.05-0.08,0.06
					c-0.01,0-0.05-0.03-0.06-0.05c0-0.08,0-0.15,0-0.23c0.02,0,0.04,0,0.06-0.01C40.89,79.99,40.94,80.06,40.9,80.15z M41.01,78.59
					c0.21,0.15,0.23,0.24,0.08,0.41C41.01,78.86,40.96,78.74,41.01,78.59z M41.28,87.35c-0.03,0.08-0.08,0.07-0.16,0.03
					c0.03-0.06,0.06-0.11,0.08-0.17C41.26,87.25,41.3,87.28,41.28,87.35z M41.28,79.44c0.02-0.14,0.04-0.28,0.06-0.42
					c0.13,0.03,0.17,0.1,0.15,0.2C41.46,79.32,41.43,79.43,41.28,79.44z M41.44,81.58c-0.03,0.01-0.08-0.04-0.15-0.08
					c0.07-0.04,0.12-0.09,0.16-0.09c0.03,0,0.07,0.05,0.1,0.08C41.52,81.52,41.48,81.57,41.44,81.58z M41.97,76.58
					c0,0.04-0.02,0.07-0.05,0.14c-0.13-0.17-0.23-0.31-0.29-0.48c-0.02-0.04-0.07-0.11-0.1-0.11c-0.11,0-0.16-0.07-0.21-0.14
					c-0.12-0.17-0.23-0.36-0.36-0.53c-0.16-0.22-0.33-0.42-0.5-0.63c-0.04-0.06-0.09-0.11-0.14-0.16c-0.21-0.2-0.34-0.47-0.66-0.55
					c-0.05-0.01-0.08-0.07-0.12-0.12c-0.11-0.14-0.22-0.29-0.33-0.42c-0.17-0.19-0.36-0.37-0.54-0.55
					c-0.08-0.08-0.14-0.17-0.22-0.23c-0.29-0.23-0.6-0.45-0.89-0.69c-0.11-0.09-0.21-0.15-0.34-0.11c-0.03-0.06-0.04-0.15-0.08-0.16
					c-0.22-0.11-0.46-0.21-0.69-0.29c-0.2-0.07-0.4-0.13-0.6-0.19c0.01-0.11,0.02-0.2,0.03-0.28c0.02-0.13,0.08-0.15,0.18-0.08
					c0.03,0.03,0.06,0.07,0.1,0.08c0.23,0.05,0.45,0.11,0.67,0.22c0.24,0.12,0.51,0.2,0.73,0.37c0.16,0.12,0.36,0.2,0.51,0.32
					c0.41,0.34,0.9,0.58,1.26,0.98c0.01,0.01,0.03,0.02,0.05,0.04c0.1,0.08,0.2,0.16,0.29,0.25c0.14,0.15,0.27,0.3,0.39,0.45
					c0.08,0.1,0.16,0.21,0.23,0.31c0.07,0.08,0.13,0.17,0.2,0.25c0.14,0.16,0.28,0.31,0.41,0.47c0.09,0.11,0.19,0.22,0.25,0.35
					c0.1,0.27,0.32,0.43,0.54,0.59c0.16,0.12,0.29,0.26,0.32,0.45C42.01,76.26,41.98,76.42,41.97,76.58z M36.72,69.59
					c0.08,0.04,0.13,0.07,0.2,0.11c-0.08,0.04-0.13,0.08-0.2,0.12C36.73,69.74,36.73,69.68,36.72,69.59z M39.18,71.94
					c0.09,0.04,0.18,0.08,0.28,0.12c-0.03,0.12-0.09,0.19-0.19,0.16c-0.06-0.01-0.16,0.03-0.18-0.07
					C39.08,72.06,39.09,71.98,39.18,71.94z M40.56,73.51c0.01-0.05,0.07-0.09,0.13-0.17c0.03,0.08,0.06,0.12,0.06,0.16
					c0,0.07-0.04,0.13-0.11,0.12C40.61,73.62,40.55,73.54,40.56,73.51z M40.8,68.35c-0.02-0.01-0.05-0.07-0.04-0.1
					c0.03-0.09,0.09-0.11,0.2-0.04C40.91,68.27,40.92,68.39,40.8,68.35z M41.01,71.44c0.06,0.08,0.06,0.13-0.01,0.17
					c-0.02,0.01-0.07-0.01-0.09-0.03C40.86,71.49,40.95,71.48,41.01,71.44z M41.45,74.07c0.02,0.13,0.03,0.24,0.04,0.36
					c0.01,0.07-0.02,0.12-0.1,0.13c-0.12,0.01-0.22-0.08-0.19-0.2C41.23,74.24,41.29,74.12,41.45,74.07z M41.34,70.91
					c0.03-0.04,0.07-0.08,0.13-0.15c0.02,0.09,0.03,0.13,0.03,0.18c-0.05,0.01-0.09,0.02-0.13,0.03
					C41.35,70.94,41.34,70.93,41.34,70.91z M41.08,67.59c-0.33,0.05-0.65,0.09-0.98,0.13c-0.5,0.06-1,0.16-1.51,0.17
					c-0.15,0-0.31-0.02-0.46-0.04c-0.28-0.03-0.56-0.06-0.84-0.08c-0.11-0.01-0.22-0.02-0.33-0.03c-0.17-0.02-0.36-0.01-0.48-0.17
					c0.12-0.18,0.09-0.35,0.08-0.51c-0.01-0.15,0.02-0.28,0.06-0.41c0.02-0.09,0.06-0.18,0.08-0.26c0.03-0.18,0.11-0.22,0.28-0.14
					c0.12,0.05,0.26,0.07,0.39,0.1c0.04,0.01,0.11,0.01,0.13,0.04c0.08,0.1,0.19,0.1,0.29,0.1c0.18,0.01,0.35,0.02,0.52,0.03
					c0.14,0.01,0.27,0.06,0.41-0.04c0.02-0.01,0.07,0.01,0.1,0.01c0.16,0.02,0.33,0.08,0.49,0.06c0.38-0.05,0.75-0.13,1.13-0.2
					c0.18-0.03,0.35-0.07,0.54-0.08c0.19,0,0.4-0.01,0.59-0.14c0.15-0.1,0.36-0.18,0.57-0.08c0,0.05,0.01,0.09,0.01,0.14
					c0,0.22,0.01,0.44,0.01,0.66c0,0.12-0.01,0.23-0.03,0.35c-0.01,0.06-0.05,0.14-0.1,0.15C41.71,67.45,41.4,67.54,41.08,67.59z
					 M42.03,86.14c-0.01-0.09-0.04-0.2,0.13-0.23C42.16,86.01,42.14,86.09,42.03,86.14z M42.12,81.03
					c-0.02-0.05-0.05-0.11-0.04-0.16c0-0.03,0.1-0.07,0.11-0.06c0.05,0.06,0.12,0.13,0.13,0.21c0.02,0.08,0.04,0.19-0.07,0.23
					C42.21,81.18,42.16,81.11,42.12,81.03z M42.42,87.12c-0.02,0.03-0.08,0.03-0.15,0.06c0.02-0.12,0.03-0.19,0.04-0.31
					C42.45,86.96,42.46,87.04,42.42,87.12z M42.88,79.42c-0.1-0.09-0.07-0.19-0.06-0.32C42.92,79.21,42.9,79.3,42.88,79.42z
					 M43.62,89.17c0.01-0.02,0.06-0.03,0.07-0.02c0.07,0.04,0.06,0.11,0.03,0.17c0,0.01-0.02,0.02-0.04,0.05
					C43.59,89.31,43.59,89.24,43.62,89.17z M43.78,92.75c-0.18-0.09-0.18-0.1-0.13-0.27C43.83,92.56,43.83,92.56,43.78,92.75z
					 M43.87,83.63c-0.07-0.23-0.07-0.23,0.05-0.3C43.96,83.49,43.96,83.51,43.87,83.63z"/>
			</g>
			<g>
				<path class="st0" d="M21.56,38.05c0.09-0.03,0.14-0.04,0.24-0.07c-0.09-0.07-0.13-0.09-0.19-0.13
					C21.59,37.91,21.58,37.96,21.56,38.05z"/>
			</g>
			<g>
				<path class="st0" d="M21.47,38.87c0.02,0.15-0.08,0.29-0.02,0.47c0.05-0.07,0.11-0.11,0.12-0.15c0-0.11-0.03-0.22-0.04-0.32
					C21.52,38.87,21.5,38.87,21.47,38.87z"/>
			</g>
		</g>
		<g>
			<polygon class="st0" points="12.89,53.37 12.89,53.37 12.89,53.37 			"/>
		</g>
	</g>
	<g>
		<g>
			<path class="st0" d="M28.06,46.81c-0.18,0.1-0.36,0.22-0.55,0.25c-0.25,0.03-0.48,0.14-0.72,0.19c-0.3,0.06-0.62,0.14-0.91,0.12
				c-0.45-0.03-0.89-0.05-1.33,0.04c-0.22,0.05-0.38-0.02-0.53-0.15c-0.1-0.08-0.21-0.14-0.32-0.2c-0.22-0.13-0.45-0.25-0.65-0.39
				c-0.25-0.18-0.32-0.52-0.58-0.71c-0.02-0.01-0.02-0.06-0.03-0.08c-0.04-0.1-0.07-0.21-0.14-0.29c-0.22-0.25-0.31-0.56-0.38-0.87
				c-0.13-0.59-0.19-1.2-0.11-1.83c0.05-0.35,0.08-0.69,0.04-1.04c-0.05-0.42,0.03-0.82,0.22-1.21c0.05-0.11,0.08-0.21,0.09-0.34
				c0.01-0.2,0.11-0.39,0.28-0.53c0.23-0.21,0.23-0.21,0.11-0.5c-0.02-0.03-0.02-0.06-0.04-0.09c-0.31,0.15-0.4,0.14-0.63-0.03
				c0.01-0.03,0.03-0.07,0.03-0.1c-0.04-0.19,0.1-0.31,0.18-0.45c0.11-0.21,0.28-0.15,0.44-0.11c0.01,0,0.02,0,0.02-0.01
				c0.12-0.04,0.18,0.02,0.22,0.12c0.04,0.1,0.06,0.21,0.1,0.34c0.15-0.09,0.33-0.19,0.5-0.29c0.36-0.2,0.75-0.32,1.13-0.46
				c0.35-0.14,0.74-0.31,1.15-0.21c0.01,0,0.04,0,0.05-0.01c0.37-0.12,0.7-0.05,1.02,0.13c0.05,0.03,0.12,0.04,0.19,0.04
				c0.38,0.02,0.72,0.17,1.05,0.32c0.06,0.03,0.12,0.06,0.16,0.1c0.2,0.2,0.47,0.28,0.7,0.43c0.29,0.18,0.65,0.29,0.73,0.74
				c0.07-0.11,0.1-0.17,0.15-0.23c0.09-0.12,0.17-0.24,0.28-0.35c0.11-0.11,0.43-0.12,0.45-0.01c0.03,0.17,0.19,0.07,0.25,0.16
				c-0.01,0.3-0.1,0.44-0.37,0.51c-0.19,0.05-0.37,0.07-0.58,0.11c0.02,0.04,0.05,0.08,0.08,0.12c0.07,0.1,0.14,0.19,0.2,0.29
				c0.25,0.38,0.44,0.8,0.56,1.24c0.1,0.36,0.21,0.73,0.23,1.1c0.02,0.43-0.12,0.86-0.26,1.27c-0.02,0.07-0.06,0.14-0.1,0.2
				c-0.11,0.17-0.25,0.33-0.32,0.52c-0.22,0.51-0.7,0.83-1,1.29c-0.24,0.07-0.36,0.29-0.54,0.42c-0.07,0.06-0.12,0.15-0.19,0.25
				c-0.06,0-0.15,0-0.22,0C28.11,46.7,28.1,46.78,28.06,46.81z M26.95,38.76c-0.04-0.06-0.21-0.05-0.31-0.02
				c-0.26,0.08-0.52,0.06-0.78,0.08c-0.34,0.02-0.67,0.08-0.99,0.24c-0.28,0.14-0.6,0.22-0.9,0.33c-0.06,0.02-0.12,0.06-0.17,0.1
				c-0.34,0.32-0.65,0.66-0.84,1.08c-0.11,0.23-0.14,0.5-0.2,0.75c-0.08,0.35-0.15,0.7-0.11,1.06c0,0.03,0,0.09-0.02,0.1
				c-0.17,0.15-0.14,0.36-0.2,0.54c-0.08,0.23-0.03,0.43,0.09,0.64c-0.02,0.04-0.04,0.08-0.08,0.1c-0.14,0.11-0.17,0.24-0.09,0.39
				c0.03,0.06,0.03,0.14,0.04,0.21c0.03,0.3,0.15,0.57,0.31,0.83c0.03,0.05,0.06,0.1,0.07,0.15c0.1,0.36,0.36,0.63,0.58,0.92
				c0.06,0.08,0.15,0.14,0.23,0.19c0.06,0.03,0.16,0.07,0.21,0.04c0.23-0.12,0.41-0.01,0.61,0.04c0.42,0.12,0.83,0.28,1.27,0.33
				c0.34,0.05,0.71-0.02,1.06-0.07c0.55-0.09,1-0.39,1.42-0.75c0.08-0.07,0.16-0.16,0.24-0.24c0.05-0.05,0.09-0.13,0.15-0.17
				c0.52-0.27,0.79-0.75,1.11-1.2c0.29-0.4,0.44-0.84,0.61-1.29c0.11-0.28,0.03-0.55-0.03-0.82c-0.07-0.31-0.16-0.62-0.27-0.92
				c-0.18-0.49-0.39-0.97-0.72-1.37c-0.26-0.33-0.53-0.66-0.91-0.85c-0.24-0.12-0.5-0.2-0.76-0.24c-0.14-0.02-0.25-0.03-0.31-0.22
				C27.14,38.84,27.06,38.89,26.95,38.76z"/>
		</g>
		<g>
			<path class="st0" d="M21.18,41.63c0.16-0.2,0.33-0.38,0.48-0.58c0.16-0.22,0.15-0.35-0.02-0.55c-0.12-0.14-0.3-0.14-0.44-0.01
				c-0.11,0.11-0.24,0.21-0.34,0.33c-0.07,0.07-0.15,0.16-0.09,0.28c0.01,0.02,0.01,0.05,0.02,0.08c0.03,0.12,0.02,0.27,0.09,0.36
				C20.93,41.61,21.08,41.6,21.18,41.63z"/>
		</g>
		<g>
			<path class="st0" d="M26.01,37.75c0.11,0.01,0.22,0.03,0.33,0.04c0.36,0.02,0.67-0.22,0.72-0.57c0.03-0.18-0.18-0.37-0.36-0.34
				c-0.16,0.03-0.31,0.1-0.46,0.15c-0.12,0.04-0.23,0.11-0.2,0.27c0.01,0.03,0,0.09-0.02,0.1C25.87,37.52,25.97,37.63,26.01,37.75z"
				/>
		</g>
		<g>
			<path class="st0" d="M28.53,47.51c0.27-0.09,0.56-0.17,0.83-0.29c0.11-0.05,0.19-0.2,0.25-0.32c0.02-0.04-0.03-0.12-0.07-0.16
				c-0.21-0.21-0.47-0.21-0.73-0.05c-0.2,0.13-0.29,0.31-0.38,0.5C28.38,47.29,28.39,47.39,28.53,47.51z"/>
		</g>
		<g>
			<path class="st0" d="M26.4,48.38c0.3,0.17,0.61,0.14,0.86-0.11c0.11-0.11,0.22-0.24,0.31-0.37c0.09-0.11-0.02-0.29-0.17-0.29
				c-0.1-0.01-0.2-0.01-0.3-0.01c-0.05,0-0.11,0-0.14,0.02C26.72,47.83,26.41,47.98,26.4,48.38z"/>
		</g>
		<g>
			<path class="st0" d="M28.63,38.27c0.24-0.01,0.41-0.05,0.56-0.17c0.1-0.09,0.12-0.18,0.11-0.3c-0.02-0.12-0.1-0.17-0.21-0.18
				c-0.17-0.01-0.3-0.13-0.49-0.09c-0.17,0.03-0.42,0.15-0.48,0.31c-0.07,0.19,0,0.32,0.2,0.36C28.44,38.23,28.56,38.25,28.63,38.27
				z"/>
		</g>
		<g>
			<path class="st0" d="M21.42,43.23c0.05-0.2-0.12-0.29-0.25-0.39c-0.02-0.01-0.06-0.03-0.08-0.02c-0.13,0.07-0.27,0.14-0.39,0.22
				c-0.04,0.03-0.04,0.11-0.07,0.16c-0.07,0.2-0.04,0.38,0.06,0.56c0.11,0.18,0.31,0.21,0.47,0.07
				C21.3,43.7,21.42,43.44,21.42,43.23z"/>
		</g>
		<g>
			<path class="st0" d="M21.17,45.38c0.05,0.27-0.14,0.62,0.23,0.8c0.18-0.08,0.34-0.16,0.5-0.24c0.02-0.01,0.03-0.04,0.05-0.07
				c0.11-0.17,0.07-0.47-0.06-0.59c-0.09-0.09-0.2-0.13-0.33-0.07C21.44,45.27,21.32,45.32,21.17,45.38z"/>
		</g>
		<g>
			<path class="st0" d="M31.87,42.91c-0.05,0-0.08,0-0.12,0.01c0.01-0.06,0.01-0.12,0.03-0.2c-0.07-0.02-0.16-0.07-0.21-0.05
				c-0.2,0.08-0.44,0.08-0.58,0.29c-0.04,0.06-0.08,0.12-0.1,0.19c-0.03,0.1-0.08,0.22,0.03,0.27c0.09,0.05,0.23,0.09,0.31,0.06
				C31.49,43.37,31.75,43.24,31.87,42.91z"/>
		</g>
		<g>
			<path class="st0" d="M31.49,40.72c-0.3-0.18-0.58-0.19-0.85,0.02c-0.1,0.08-0.16,0.22-0.13,0.36c0.03,0.12,0.12,0.17,0.24,0.18
				c0.24,0.02,0.47-0.04,0.63-0.23C31.45,40.97,31.45,40.83,31.49,40.72z"/>
		</g>
		<g>
			<path class="st0" d="M24.65,48.33c0.32,0,0.51-0.21,0.71-0.37c0.08-0.06,0.06-0.23-0.01-0.3c-0.18-0.19-0.45-0.17-0.62,0.04
				c-0.06,0.08-0.13,0.17-0.21,0.23c-0.11,0.08-0.12,0.18-0.07,0.26C24.49,48.25,24.58,48.28,24.65,48.33z"/>
		</g>
		<g>
			<path class="st0" d="M29.98,45.43c0.22,0.02,0.43,0.09,0.64-0.08c0.18-0.15,0.31-0.41,0.18-0.57c-0.07-0.08-0.14-0.12-0.24-0.11
				c-0.24,0.02-0.62,0.41-0.62,0.65C29.95,45.35,29.96,45.39,29.98,45.43z"/>
		</g>
		<g>
			<path class="st0" d="M23.88,38.06c0.26-0.02,0.53-0.22,0.57-0.44c0.04-0.18-0.04-0.29-0.21-0.27c-0.22,0.03-0.45,0.06-0.61,0.26
				c-0.07,0.09-0.17,0.16-0.09,0.27c0.06,0.08,0.17,0.13,0.26,0.19C23.82,38.07,23.85,38.06,23.88,38.06z"/>
		</g>
	</g>
	<g>
		<path class="st0" d="M33.79,70.13c-0.1-0.01-0.2,0-0.25,0.12c-0.05,0.12-0.01,0.2,0.07,0.27c0.05,0.05,0.1,0.1,0.16,0.14
			c0.09,0.06,0.2,0.1,0.31,0.02c0.1-0.07,0.17-0.16,0.15-0.3c-0.02-0.13-0.1-0.21-0.24-0.24C33.93,70.14,33.86,70.14,33.79,70.13z"
			/>
	</g>
</g>
</svg>
