<?xml version="1.0" encoding="UTF-8"?><svg id="a" xmlns="http://www.w3.org/2000/svg" viewBox="0 0 281.6 390"><defs><style>.b{fill:#fff;}.c{fill:#d9dada;}.d{fill:#1a374d;}</style></defs><path class="c" d="M189.57,341.61v-7.07l.69-.07,88.5-8.3,2.8-15.22,.04-13-.07-.52c-.14-.68-3.14-15.4-5.75-27.76-1.8-8.52-13.76-18.74-14.27-19.17l-54.75-47.5c-.17-.14-18.58-15.37-21.76-27.44-8.59-32.66-13.15-77.13-13.34-79.01v-9.59h-.1l-.06-.7c-.62-7.48-2.98-24.95-3.29-26.82-1.93-11.62-9.95-43.86-15.4-51.29-3.91-5.34-8.07-8.16-12.02-8.16s-8.11,2.82-12.02,8.16c-5.45,7.44-13.47,39.67-15.4,51.29-.36,2.19-3.43,24.86-3.44,29.58v7.46c-.19,1.88-4.74,46.35-13.35,79.07-2.51,9.54-15.39,22.17-21.85,27.51l-54.63,47.4c-1.28,1.09-12.53,10.87-14.3,19.2-2.34,11.07-4.97,23.94-5.72,27.62l-.06,.28-.03,12.98,2.84,15.62,88.74,8.33v7.17c0,1.57,1.28,2.84,2.84,2.84h2.91l-.19,.92c-.06,.29-.09,.58-.09,.87,0,1.16,.46,2.27,1.34,3.21l.25,.27-1.8,13.03,.48-.13,.31,.4c1.3,1.67,5.49,3.65,18.1,3.65,8.79,0,14.57-.95,17.19-2.81l1.11-.79,.1,1.36c.52,6.92,.98,11.76,1.32,14,.95,6.1,1.79,9.64,3.5,10.91l.31,.23v.36h3.09v-.36l.31-.23c1.72-1.27,2.56-4.82,3.5-10.91,.35-2.24,.8-7.07,1.32-13.98l.1-1.35,1.1,.78c2.63,1.85,8.41,2.79,17.17,2.79,12.28,0,16.54-1.89,17.95-3.48l.29-.32,.68,.13-1.83-13.28,.25-.27c.87-.94,1.33-2.05,1.33-3.21,0-.11,0-.21-.02-.33-.02-.22-.05-.41-.09-.6l-.2-.93h2.49c1.57,0,2.84-1.28,2.84-2.84Z"/><path class="d" d="M279.46,310.5l-.05-12.75s-3.04-14.88-5.74-27.64c-1.65-7.78-13.45-17.89-13.57-17.99l-54.7-47.46c-.18-.15-19.13-15.83-22.48-28.56-8.68-32.99-13.22-77.57-13.41-79.45l-.02-8.2c-.22-5.66-3.08-26.76-3.4-28.66-2.14-12.89-10.13-43.71-15.01-50.37-3.44-4.69-7.09-7.28-10.28-7.28s-6.84,2.59-10.28,7.28c-4.88,6.66-12.87,37.48-15.01,50.37-.35,2.12-3.41,24.75-3.41,29.23v7.5c-.19,1.94-4.68,46.35-13.42,79.58-3.31,12.59-21.74,27.94-22.52,28.59l-54.65,47.41c-.12,.11-11.94,10.24-13.59,18.01-2.42,11.43-5.19,25.04-5.73,27.65l-.04,1.16v11.7l2.51,13.56,89.08,8.36v9.13c0,.38,.31,.69,.69,.69h5.57l-.63,3.11c-.11,.34-.16,.59-.16,.83,0,1.06,.76,1.83,1.4,2.3l.33,.24-1.52,11.02,.61-.17-.72,1.42c-.07,.12-.11,.22-.11,.3,0,1.74,7.41,3.15,16.52,3.15s16.52-1.41,16.52-3.15c-.01,.03-.03-.03-.04-.08l-.19-1.14,.07,.02-.75-5.4,.93,.16c.92,.15,1.86,.28,2.8,.38l.58,.06,.04,.58c.75,11.27,1.42,19.14,1.89,22.15,1.23,7.93,2.17,9.6,3.2,9.67h.07c1.03-.07,1.97-1.75,3.2-9.67,.47-3.02,1.14-10.89,1.89-22.16l.04-.58,.58-.06c.93-.1,1.86-.22,2.77-.37l.93-.16-.69,5.01,.05-.03-.27,1.69c0,1.66,7.42,3.07,16.53,3.07s16.52-1.41,16.52-3.15c-.01,.03-.03-.02-.04-.08l-.16-.96h.06l-1.6-11.54,.33-.24c.64-.46,1.4-1.24,1.4-2.3l-.02-.18c0-.12-.03-.25-.06-.37l-.58-3.45h5c.38,0,.69-.31,.69-.69v-9.03l.63-.06,88.9-8.34,2.52-13.68Z"/><g><path class="b" d="M280.12,298.75l-.02-1.01c-.03-.15-3.09-15.18-5.75-27.77-1.68-7.97-13.31-17.96-13.8-18.38l-54.7-47.46c-.19-.16-18.96-15.66-22.26-28.21-8.62-32.77-13.14-76.79-13.39-79.34v-8.16h-.02c-.22-5.61-3.07-26.68-3.41-28.74-2.15-12.94-10.2-43.93-15.13-50.66-3.57-4.88-7.42-7.56-10.84-7.56s-7.27,2.68-10.84,7.56c-4.94,6.74-12.99,37.72-15.14,50.66-.36,2.14-3.41,24.83-3.42,29.34h0v7.5c-.15,1.52-4.67,46.23-13.4,79.41-3.3,12.54-22.07,28.05-22.29,28.23l-54.66,47.42c-.49,.42-12.12,10.42-13.81,18.39-2.66,12.58-5.72,27.61-5.75,27.77v.9h-.03v11.99l2.61,14.2,88.97,8.35v8.51c0,.76,.62,1.38,1.38,1.38h4.73l-.46,2.28c-.11,.31-.17,.64-.17,.97,0,1.1,.62,2.09,1.68,2.86l-1.61,11.65,.13-.03c-.12,.21-.2,.42-.2,.65,0,3.03,10.82,3.84,17.21,3.84s17.21-.81,17.21-3.84c0-.07-.03-.13-.05-.2h.03l-.77-5.56c.93,.16,1.89,.28,2.84,.38,.68,10.27,1.38,18.9,1.9,22.21,1.31,8.43,2.3,10.15,3.83,10.25h0s.05,0,.08,0c.03,0,.05,0,.08,0h0c1.53-.12,2.52-1.84,3.83-10.27,.51-3.31,1.21-11.95,1.9-22.22,.94-.1,1.89-.22,2.81-.38l-.77,5.56,.03-.02c-.01,.07-.05,.14-.05,.21,0,3.03,10.82,3.84,17.21,3.84s17.21-.81,17.21-3.84c0-.07-.03-.13-.04-.19h.03l-1.67-12.07c1.06-.77,1.68-1.76,1.68-2.86,0-.08-.01-.15-.02-.23h0c-.01-.17-.04-.34-.08-.5l-.43-2.58h4.18c.76,0,1.38-.62,1.38-1.38v-8.4l89.42-8.39,2.62-14.2v-11.88Zm-2.76,9.11h-90.38c-.26-2.75-.57-5.48-.95-8.04h91.32v8.04Zm-97.52,53.87c-2.35-.69-7.73-1.18-13.99-1.18s-11.69,.49-14.03,1.19c-.23-.11-.38-.2-.42-.28,.29-.57,5-2.01,14.45-2.01s14.03,1.4,14.44,1.98c-.06,.08-.22,.19-.45,.3Zm-50.13,0c-2.35-.69-7.73-1.18-13.99-1.18s-11.69,.49-14.03,1.19c-.23-.11-.38-.2-.42-.28,.29-.57,5-2.01,14.45-2.01s14.03,1.4,14.44,1.98c-.06,.08-.21,.19-.45,.3Zm-14.9-230.73c.11-.04,.25-.07,.37-.11h.05c5.15-1.53,16.23-1.91,22.07-2.01,0,0,0,.01,0,.02,.91-.01,1.85-.02,2.8-.02v45.98c-3.35,.01-14.78,.16-21.86,1.36l-.04-19.26-.05-25.33c-.83,.14-1.54,.28-2.14,.42l-.05,24.91-.04,19.73c-.67,.17-1.27,.35-1.77,.55v-45.95c.16-.09,.39-.18,.66-.27v-.02Zm4.15-56.64c.09-.99,.23-1.98,.34-2.97,.07,.02,.15,.04,.22,.04,.06,0,.12,0,.18-.02l6.83-1.22c.4-.07,.72-.37,.82-.77l1.89-7.51,4.8-1.4,6.64-1.02,6.51,1,4.94,1.43,.06,.24c.02,5.85-.03,11.71-.14,17.56-3.51-.18-7.33-.28-11.28-.28-7.4,0-14.37,.34-19.62,.96-1.01,.12-1.92,.24-2.73,.37,.14-2.14,.31-4.27,.52-6.4Zm35.5,5.51c-.07-3.37-.16-6.73-.27-10.09,.15,.22,.38,.37,.65,.42l1.9,.34c.05,3.06,.09,6.31,.12,9.51-.78-.07-1.58-.13-2.4-.18Zm-4.82-24.92l.23-1.13,1.06,.4-1.19,4.86-.9-.26,.8-3.87Zm8.62,3.03l.27,1.31-4.19,2.88-.18-.72,4.02-3.39,.09-.07Zm-10.82-4.83l-4.63-.14v4.72l-.97-.15v-5.32l5.6,.89Zm-24.32,4.83l.92,.78-2.21,10.17-.99,.18,2.28-11.13Zm16.42-4.83l-5.03,.7,.78,4.39-.73,.11-.81-3.9-.25-1.23,6.05-.97v.89Zm-8.04,.67l.18,.86-5.6,1.94,3.09,3.17-.59,.17-4.15-3.5,3.15-1.17,3.92-1.46Zm12.41,75.06c5.72,.09,17.14,.46,22.41,2l.08,.02c.12,.04,.25,.07,.36,.1,0,0,0,.01,0,.02,.26,.09,.49,.18,.65,.27v45.95c-.8-.32-1.85-.6-3.06-.84v-44.6c-1.81-.34-4.3-.67-7.4-.94v44.6c-.63-.05-1.27-.1-1.91-.14l-.09-32.37-.03-12.24c-1.04-.07-2.14-.14-3.3-.2l-.03,12.44-.09,32.17c-4.36-.21-8.28-.25-10.02-.26v-45.98c.83,0,1.65,0,2.44,.02h0Zm40.22,162.02c-2.65-8.3-8.47-13.45-12.12-15.99l-1.83-4.91v-112.07l1.38,21.7v89.24l1.92,4.83s11.07,6.16,13.41,21.54h26.56s-24.74-25.34-24.74-50.33c0-9.97-.06-27.44-.11-39.26l-2.13-1.93-10.48-17.48-4.28-30.69h.25l5.2,30,.16,.27v.06l4.69,7.76,5.63,9.39,76.46,69.31,9.7,24.29h-88.29c-.39-2.14-.85-4.09-1.37-5.72Zm-12.77,65.73c-1.72-.11-3.44-.16-5.17-.15-1.73,0-3.45,.06-5.18,.14-1.73,.11-3.46,.21-5.22,.41,3.27-1.43,6.87-1.88,10.4-1.94,1.78,0,3.56,.12,5.31,.46,1.75,.32,3.49,.87,5.03,1.75-1.73-.37-3.45-.54-5.17-.68Zm-37.73-23.23c-1.07-.01-2.14,.11-3.2,.39-.55,.14-1.09,.33-1.61,.57,1.24-1.19,2.94-2,4.74-2.41,.02,.48,.05,.96,.08,1.45Zm-12.08,23.23c-1.72-.11-3.44-.16-5.17-.15-1.73,0-3.45,.06-5.18,.14-1.73,.11-3.46,.21-5.22,.41,3.27-1.43,6.87-1.88,10.4-1.94,1.78,0,3.56,.12,5.31,.46,1.75,.32,3.49,.87,5.03,1.75-1.73-.37-3.45-.54-5.17-.68Zm-15.29-22.71c1.47,.13,2.81,2.38,3.92,8.33-1.1-.32-2.36-.5-3.73-.5-1.48,0-2.84,.21-4,.58,0-3.81,2.3-8.54,3.81-8.41Zm-9.29-43.02c-.52,1.63-.97,3.58-1.37,5.72H7.97l8.91-24.29,76.38-69.24,10.53-17.42,5.22-30.13h2.38v114.42l-1.95,4.48c-3.62,2.55-9.72,7.91-12.45,16.46Zm32.45-114.39c3.14-.17,6.71-.27,10.65-.28v45.98c-3.33,.01-14.68,.15-21.76,1.34l-.09-44.56c-.91,.15-1.69,.3-2.33,.46l-.09,44.62c-.63,.16-1.2,.33-1.67,.52v-45.95c.33-.18,.87-.36,1.61-.54,.03,0,.07-.02,.11-.03h.05c3.36-.85,8.66-1.31,13.53-1.56Zm35.75,1.44c.18,.04,.35,.08,.51,.12l.08,.02c.75,.19,1.3,.37,1.63,.55v45.95c-.8-.32-1.85-.6-3.06-.84v-44.59c-1.81-.34-4.3-.67-7.4-.94v44.58c-.59-.05-1.19-.09-1.78-.13l-.12-44.6c-1.12-.08-2.31-.15-3.56-.22l-.12,44.6c-4.31-.2-8.17-.24-9.89-.25v-45.98c3.67,.01,7.03,.1,10.02,.25h0c4.83,.23,10.17,.66,13.7,1.47Zm1.01,174.07c-3.05,0-6.07,.15-9.19,.41,1.42-.69,2.96-1.09,4.5-1.37,1.55-.28,3.11-.4,4.69-.42,1.57,0,3.15,.11,4.7,.42,1.54,.31,3.09,.78,4.43,1.6-3.07-.55-6.08-.65-9.13-.65Zm9.74,2.97c-3.27-.62-6.48-.74-9.73-.74-3.25,.01-6.48,.17-9.8,.48,1.52-.71,3.16-1.13,4.8-1.42,1.65-.29,3.32-.42,4.99-.44,1.67,0,3.35,.12,5.01,.44,1.65,.32,3.29,.82,4.73,1.68Zm-23.22-20.63c-.53-.24-1.07-.43-1.61-.57-1.04-.27-2.1-.4-3.15-.39,.02-.48,.05-.96,.08-1.43,1.78,.42,3.46,1.22,4.69,2.39Zm-4.76-.92c1.89,.4,3.68,1.23,4.97,2.47-.53-.24-1.07-.43-1.61-.57-1.11-.29-2.23-.42-3.35-.4,1.96,.38,3.83,1.24,5.17,2.52-.53-.24-1.07-.43-1.61-.57-1.11-.29-2.23-.42-3.35-.4,1.96,.38,3.83,1.24,5.17,2.52-.53-.24-1.07-.43-1.61-.57-1.11-.29-2.23-.42-3.35-.4,1.96,.38,3.83,1.24,5.17,2.52-.53-.24-1.07-.43-1.61-.57-1.11-.29-2.23-.42-3.35-.4,1.96,.38,3.83,1.24,5.17,2.52-.53-.24-1.07-.43-1.61-.57-1.11-.29-2.23-.42-3.35-.4,1.96,.38,3.83,1.24,5.17,2.52-.53-.24-1.07-.43-1.61-.57-1.11-.29-2.23-.42-3.35-.4,1.96,.38,3.83,1.24,5.17,2.52-.53-.24-1.07-.43-1.61-.57-1.11-.29-2.23-.42-3.35-.4,2.09,.4,4.11,1.34,5.45,2.78-2-.86-4.67-1.4-7.37-1.72,.24-3.96,.46-7.97,.66-11.86Zm22.11,16.43c-1.29-.06-2.57-.09-3.86-.08-2.84,0-5.66,.13-8.58,.34,1.32-.66,2.76-1.05,4.19-1.31,1.44-.27,2.91-.38,4.38-.4,.62,0,1.24,.04,1.86,.08,.5,.54,1.18,1.01,2,1.38Zm-1.33-14.54c.19,.05,.39,.11,.58,.17l-.19,.91c-.99,0-1.95,0-2.94,0-1.61,0-3.2,0-4.92-.1,.73-.5,1.55-.78,2.38-.98,.83-.2,1.68-.28,2.54-.3,.85,0,1.71,.08,2.55,.3Zm-5.39,2.25c.93-.22,1.89-.3,2.84-.32,.91,0,1.81,.09,2.71,.29l-.22,1.1c-.83-.01-1.65-.01-2.48,0-1.82,0-3.61,.03-5.53-.03,.82-.52,1.75-.83,2.68-1.04Zm-.31,2.25c1.04-.23,2.09-.32,3.15-.33,.76,0,1.52,.08,2.27,.19l-.25,1.21c-.67,0-1.34-.02-2.02-.02l-6.14,.04c.92-.55,1.95-.87,2.98-1.09Zm-.31,2.25c1.14-.24,2.3-.33,3.46-.35,.61,0,1.22,.04,1.83,.1l-.26,1.29c-.52,0-1.04,0-1.57,0-2.23,0-4.43,.07-6.75,.12,1.02-.58,2.15-.92,3.29-1.15Zm-.31,2.25c1.24-.25,2.5-.35,3.76-.37,.46,0,.92,.03,1.39,.06l-.27,1.31h0c-.37,.01-.74,0-1.11,0-2.43,0-4.84,.09-7.36,.19,1.12-.6,2.35-.96,3.59-1.2Zm-.31,2.25c1.34-.26,2.71-.37,4.07-.39,.32,0,.63,.03,.95,.04,0,.03,0,.05,0,.08,0,.44,.11,.87,.3,1.27-.41,0-.82,0-1.24,0-2.64,0-5.25,.11-7.97,.26,1.22-.63,2.55-1,3.89-1.26Zm8.58-4.1l1.68-8.36c1.01-.31,2.08-.42,2.94-.03-.32,.03-.64,.06-.96,.11,.55,.08,1.1,.21,1.63,.37,.22,.22,.41,.48,.56,.84h0c-.72-.01-1.43,.05-2.12,.15,.82,.12,1.64,.33,2.39,.62,.06,.19,.12,.39,.18,.6-.85-.05-1.69,.01-2.5,.13,.96,.14,1.89,.4,2.73,.77,.04,.16,.08,.32,.11,.48-.95-.09-1.89-.03-2.78,.1,1.06,.16,2.1,.44,3,.88,.03,.13,.05,.26,.08,.39-1.03-.12-2.04-.07-3.01,.08,1.14,.17,2.27,.48,3.22,.99,.02,.1,.04,.21,.06,.3-1.1-.16-2.18-.1-3.21,.06,1.22,.18,2.42,.54,3.4,1.11-.92-.2-1.92-.31-2.99-.31-1.65,0-3.15,.26-4.4,.72Zm-21.02-10.46c-.55-.09-1.1-.13-1.65-.14,.02-.46,.05-.92,.07-1.37,.53,.14,1.04,.31,1.53,.51,.02,.47,.04,.81,.05,1.01Zm-1.57-1.68c.02-.39,.04-.78,.06-1.17,.36,.12,.88,.31,1.41,.52,.01,.29,.02,.56,.04,.8-.5-.09-1-.14-1.5-.16Zm-33.96-61.46v-42.87c.16-.09,.39-.18,.66-.27h.03c.25-.09,.55-.18,.89-.26,3.39-.88,8.87-1.35,13.88-1.6,.22-.01,.45-.02,.67-.03,.16,0,.32-.01,.49-.02,2.81-.13,5.93-.21,9.34-.22v45.28h-25.94Zm26.19,2.76l-.03,2.24h-1.2l.19-2.24h1.04Zm-3.82,0l-.19,2.24h-1.09l.31-2.24h.96Zm7.93,2.24l.03-2.24h1.65v2.24h-1.69Zm-2.98-5.01v-45.28c3.31,0,6.35,.09,9.11,.21,.16,0,.31,.01,.47,.02,.1,0,.21,0,.31,.01h0c4.89,.23,10.34,.67,13.89,1.49,.14,.03,.27,.06,.4,.09,.06,.01,.11,.03,.17,.04,.36,.09,.66,.18,.92,.27h.02c.26,.1,.49,.18,.65,.27v42.88h-25.94Zm-27.8,2.76h.41l-.57,2.24h-.82l.98-2.24Zm3.27,0h.71l-.31,2.24h-.97l.57-2.24Zm2.1,0h15.12l-.31,2.24h-15.12l.31-2.24Zm-7.66,78.29c.8-.35,1.48-.79,1.99-1.3,1-.12,2.01-.21,3.02-.22,1.47,0,2.94,.11,4.39,.41,1.44,.29,2.88,.75,4.13,1.53-2.88-.48-5.68-.57-8.52-.56-1.67,0-3.33,.06-5.01,.13Zm12.92-1.89c-2.69-.41-5.28-.48-7.92-.47-.76,0-1.51,.03-2.27,.04,.2-.41,.31-.85,.31-1.31v-.02c.65-.06,1.3-.09,1.95-.1,1.37,0,2.74,.1,4.08,.39,1.34,.28,2.68,.71,3.84,1.46Zm-10.01-2.67l-.21-1.26c.76-.09,1.53-.15,2.3-.16,1.26,0,2.53,.1,3.78,.37,1.24,.27,2.48,.68,3.54,1.39-2.5-.34-4.87-.39-7.31-.38-.7,0-1.4,.02-2.09,.03Zm2.09-2.26c-.82,0-1.64,.02-2.47,.03l-.2-1.18c.88-.13,1.77-.22,2.66-.23,1.16,0,2.33,.09,3.47,.35,1.14,.25,2.27,.64,3.24,1.32-2.3-.27-4.47-.3-6.7-.29Zm0-2.23l-2.84,.02-.18-1.09c.99-.21,2.01-.3,3.02-.31,1.06,0,2.12,.09,3.16,.33,1.04,.24,2.07,.61,2.94,1.25-2.11-.19-4.07-.21-6.1-.2Zm0-2.23c-1.07,0-2.14,0-3.22,0l-.16-.93c.18-.05,.35-.09,.53-.13,.93-.22,1.89-.3,2.84-.32,.96,0,1.92,.09,2.86,.32,.93,.22,1.87,.58,2.64,1.18-1.92-.12-3.67-.12-5.49-.11Zm0-2.23c-1.19,0-2.38-.01-3.6-.05l-.11-.67c.38-.15,.78-.27,1.17-.36,.83-.2,1.68-.28,2.54-.3,.85,0,1.71,.08,2.55,.3,.83,.21,1.67,.54,2.34,1.11-1.72-.05-3.27-.04-4.89-.03Zm-10.1-6.96c2.37-.13,4.19,.58,5.26,1.86-1.49-.49-3.34-.7-5.07-.7-1.26,0-2.57,.12-3.78,.37,.12-.16,1.09-1.39,3.59-1.53Zm10.11,22.56c-3.05,0-6.07,.15-9.19,.41,1.42-.69,2.96-1.09,4.5-1.37,1.55-.28,3.11-.4,4.69-.42,1.57,0,3.15,.11,4.7,.42,1.54,.31,3.09,.78,4.43,1.6-3.07-.55-6.08-.65-9.13-.65Zm5,1.29c1.65,.32,3.29,.82,4.73,1.68-3.27-.62-6.48-.74-9.73-.74-3.25,.01-6.48,.17-9.8,.48,1.52-.71,3.16-1.13,4.8-1.42,1.65-.29,3.32-.42,4.99-.44,1.67,0,3.35,.12,5.01,.44Zm12.17-21.45c-.71,0-1.42,.09-2.13,.23,.01-.21,.02-.52,.04-.91,.64-.29,1.32-.52,2.02-.7,.02,.46,.05,.92,.07,1.39Zm-.08-1.54c-.66,.02-1.32,.1-1.98,.24,0-.17,.02-.35,.02-.54,.63-.29,1.36-.57,1.9-.76,.02,.35,.04,.71,.05,1.06Zm41.61,.29c-1.74,0-3.61,.21-5.1,.71,.68-.71,3.82-3.5,8.46-.47v.04c-1.09-.19-2.25-.29-3.36-.29Zm-9.27-56.74l-.36-2.24h2.37l.84,2.24h-2.85Zm-71.68,33.97H4.23v-8.04H95.11c-.38,2.56-.69,5.29-.95,8.04Zm1.65,20.81c.19-7.99,.93-27.86,3.83-36.93,2.96-9.28,9.42-13.82,11.55-15.1h11.7c1.3,2.4,4.99,9.96,6.11,20.25,.87,7.92,.16,25.48-.2,32.87-3.53-2.05-10.12-3.17-16.42-3.37-4.88-.16-9.5,.22-13.01,1.07-1.42,.34-2.61,.75-3.56,1.21Zm31.08,18.38c1.34-1.44,3.37-2.39,5.47-2.8-1.11-.03-2.24,.11-3.35,.4-.55,.14-1.09,.33-1.61,.57,1.33-1.28,3.21-2.14,5.17-2.52-1.11-.03-2.24,.11-3.35,.4-.55,.14-1.09,.33-1.61,.57,1.33-1.28,3.21-2.14,5.17-2.52-1.11-.03-2.24,.11-3.35,.4-.55,.14-1.09,.33-1.61,.57,1.33-1.28,3.21-2.14,5.17-2.52-1.11-.03-2.24,.11-3.35,.4-.55,.14-1.09,.33-1.61,.57,1.33-1.28,3.21-2.14,5.17-2.52-1.11-.03-2.24,.11-3.35,.4-.55,.14-1.09,.33-1.61,.57,1.33-1.28,3.21-2.14,5.17-2.52-1.11-.03-2.24,.11-3.35,.4-.55,.14-1.09,.33-1.61,.57,1.33-1.28,3.21-2.14,5.17-2.52-1.11-.03-2.24,.11-3.35,.4-.55,.14-1.09,.33-1.61,.57,1.3-1.25,3.12-2.09,5.03-2.48,.2,3.9,.43,7.91,.67,11.87-2.72,.32-5.43,.87-7.44,1.75Zm41.89-20.66c-6.3,.2-12.89,1.32-16.42,3.37-.36-7.39-1.07-24.95-.2-32.87,1.12-10.26,4.81-17.84,6.11-20.25h11.81c1.98,1.19,8.44,5.68,11.44,15.1,2.89,9.07,3.64,28.94,3.83,36.93-.95-.47-2.14-.87-3.56-1.21-3.51-.84-8.14-1.23-13.01-1.07Zm12.15-149.76c3.53,13.41,22.38,28.98,23.15,29.62l54.68,47.44c.11,.1,11.41,9.8,12.9,16.86,2.14,10.12,4.54,21.83,5.41,26.09h-.77c-1.1-4.25-4.96-19.19-6.44-24.99-1.73-6.79-10.02-14.28-10.02-14.28,0,0-55.28-48.02-61.05-53.02-5.77-5-10.21-11.01-10.21-11.01,0,0-8.26-8.41-10.37-18.71-2.08-10.2-6.09-31.99-8-42.46v-12.69c2.23,16.28,5.81,38.52,10.72,57.17Zm-13.48-46.77c-.8-.32-1.85-.6-3.06-.84v-29.54c0-5.06-.13-9.87-.35-14.42-1.78-.32-4.17-.63-7.1-.88,.06,9.61,.05,17.83,.05,17.83v26.07c-.68-.06-1.36-.11-2.04-.15l-.04-16.07-.04-15.53c.03-2.59-.18-5.18-.2-7.77l-.08-4.55c-.82-.06-1.66-.11-2.55-.16l-.08,4.71c-.02,2.59-.23,5.18-.2,7.77l-.04,15.53-.04,15.88c-4.41-.21-8.39-.26-10.15-.26v-45.29c.83,0,1.65,0,2.44,.02h0c.47,0,.99,.02,1.53,.03,1.36,.03,2.66,.06,3.9,.11,6.05,.23,13.65,.75,17.42,1.98,0,.03,0,.06,0,.09,.14,.06,.25,.13,.33,.19,.2,2,.32,3.58,.32,4.42v40.83Zm-12.65-89.58c-.75-.19-1.55-.35-2.36-.5-.7-7.02-1.66-14.02-3.16-20.91,1.21,6.87,1.9,13.8,2.32,20.75-3.34-.57-7.07-.86-10.78-.86-7.51,0-15.06,1.18-19.35,3.45,2.31-9.12,5.14-18.68,7.61-25.07,.41-.63,2.3-1.62,5.52-2.23v4.32c0,2.14,1.3,2.38,1.86,2.38h8.72c.56,0,1.86-.23,1.86-2.38v-4.32c3.22,.61,5.11,1.6,5.52,2.23,2.47,6.39,5.3,15.95,7.61,25.07-.75-.4-1.6-.77-2.54-1.1-1.75-6.47-3.49-10.96-4.7-13.42,0,0,.93,4.87,1.88,12.58Zm-18.82-25.58c1.41-.2,3.03-.32,4.84-.32s3.42,.12,4.84,.32v4.55c0,.99-.3,.99-.48,.99h-8.72c-.18,0-.48,0-.48-.99v-4.55Zm4.84-10.48c.06,0,.12,.02,.18,.02-3.42,1.19-6.91,6.2-8.22,8.25-.69,.17-1.35,.35-1.96,.57,.49-1.01,.95-1.83,1.38-2.41,3-4.09,6.13-6.43,8.61-6.43Zm-23.25,55.91c.62-3.74,1.63-8.51,2.84-13.61,.25-1.75,7.59-4.99,20.4-4.99,3.15,0,5.96,.2,8.43,.52v-.03c5.21,.68,8.82,1.92,10.63,3.06h.02s.07,.05,.1,.07v.02c.77,.49,1.18,.96,1.23,1.35,1.22,5.1,2.22,9.86,2.84,13.61,.26,1.6,1.83,13.2,2.74,21.39-.79-.23-1.79-.45-3.01-.66-.24-3.65-.54-7.12-.89-10.42,0-.09,.03-.17,.01-.26l-.08-.38c-1.05-9.58-2.52-17.64-4.07-24.15-.92-.42-2.1-.84-3.49-1.22,.31,2.9,.6,6.08,.84,9.48l-2.66-.99c-.07-1.07-.12-2.14-.19-3.22-.14-1.95-.29-3.9-.46-5.85-.32-.07-.66-.13-1-.19,.09,2.03,.17,4.07,.24,6.1,.03,.88,.03,1.77,.05,2.65l-2.88-1.07c-.06-.02-.13-.04-.2-.05l-8.03-1.28c-.09-.01-.19,0-.28,.02-.09-.01-.18-.03-.28-.02l-8.03,1.28c-.07,.01-.13,.03-.2,.05l-10.1,3.77c-.12,.04-.2,.13-.29,.2,.53-2.71,1.1-5.41,1.71-8.11-1.41,5.42-2.64,10.89-3.66,16.4l-1.34,6.57c-.05,.25,.02,.5,.15,.71-.16,1.12-.35,2.24-.49,3.37-.28,2.22-.53,4.44-.74,6.66-1.06,.19-1.93,.39-2.64,.6,.91-8.19,2.48-19.79,2.74-21.39Zm-3.07,24.49c.08-.06,.19-.13,.34-.19v-.09c3.76-1.23,11.31-1.75,17.36-1.98,1.22-.05,2.49-.09,3.81-.11,.46,0,.9-.02,1.31-.03h0c.91-.01,1.85-.02,2.8-.02v45.29c-3.37,.02-14.89,.16-21.95,1.37l-.03-13.26c-.13-4.59-.18-9.19-.23-13.78-.05-5.62,.05-11.25,.33-16.87-.4,.07-.77,.13-1.12,.2-.43,5.54-.68,11.1-.79,16.66-.09,4.6-.11,9.19-.25,13.79l-.03,13.69c-.71,.17-1.34,.36-1.86,.57v-40.83c0-.84,.12-2.42,.32-4.42ZM9.95,270.55c1.49-7.05,12.78-16.76,12.91-16.86l54.64-47.41c.8-.66,19.66-16.23,23.18-29.64,1.23-4.66,2.37-9.54,3.43-14.5-.33,4.76-1.23,12.82-3.73,19.56-3.8,10.25-14.63,19.66-14.63,19.66l-62.07,54.73s-9.67,8.29-11.75,13.13c-1.76,4.1-5.34,22.06-6.39,27.41h-1.01c.87-4.26,3.27-15.97,5.41-26.09Zm-5.44,40.08H93.92c-.67,8.32-.86,16.34-.92,19.76l-86.55-8.12-1.94-11.64Zm91.3,21.37c.28-.51,1.67-1.22,4.11-1.81v10.11h-4.11v-8.29Zm39.57-25.7c0-16.02,3.61-24.38,5.44-27.6,1.22,2.12,3.21,6.5,4.41,13.91-1.9-5.6-4.33-9.45-4.33-9.45,0,0,1.51,6.1,1.51,13.7v52.01s0,25.65-2.24,32.12c-.17-.89-.35-1.92-.54-3.14-1.42-9.13-4.25-59.08-4.25-71.55Zm45.86,33.93v-10.05c2.42,.59,3.81,1.3,4.11,1.8v8.25h-4.11Zm93.91-17.96l-86.99,8.16c-.05-3.4-.25-11.45-.92-19.8h89.86l-1.94,11.64Z"/><path class="b" d="M156.96,267.21h7.4v-40.68c-1.81-.34-4.3-.67-7.4-.94v41.62Z"/><path class="b" d="M171.61,280.86c4.89,23.34-3.09,43.88-3.09,43.88,10.23-.32,14.78,1.83,14.78,1.83-.7-37.03-6.73-42.78-11.68-45.71Z"/><path class="b" d="M127.14,326.93c2.43-36.06-2.4-42.66-6.75-46.85,2.32,24.24-8.21,44.16-8.21,44.16,10.5,.86,14.96,2.69,14.96,2.69Z"/><path class="b" d="M151.26,267.21h4.04l-.11-41.76c-1.2-.09-2.47-.16-3.81-.23l-.11,41.99Z"/><path class="b" d="M115.75,267.21h2.69l-.08-40.88c-1,.16-1.85,.33-2.53,.5l-.08,40.38Z"/><path class="b" d="M187.9,301.26s.37,2.58,.55,5.17h30.1s-.01-1.66-.74-3.69h46.48c3.56-.23,7.11-.41,10.67-.69-3.56-.28-7.11-.46-10.67-.69h-47.07s-.03-.07-.05-.1h-29.26Z"/><path class="b" d="M188.56,311.69s1.07,11.32,1.07,16.84l28.68-2.59s1.45-5.88,1-12.15h43.52c3.48-.35,6.97-.62,10.45-1.04-3.48-.42-6.97-.69-10.45-1.04h-43.74v-.03h-18.41c-.19,0-.39,0-.58,0-1.61-.07-3.22-.1-4.83,0h-6.7Z"/><path class="b" d="M81.2,295.25h13.23c2.34-15.37,13.41-21.54,13.41-21.54l1.92-4.83v-89.24s-5.28,99.06-28.56,115.61Z"/><path class="b" d="M84.22,301.26s.01,.03,.02,.04c-.97,0-1.95,.01-2.92,.04l-10.67,.02H17.3c-3.56,.23-7.11,.41-10.67,.69,3.56,.28,7.11,.46,10.67,.69h53.35l10.67,.02c1.11,.03,2.22,.04,3.33,.03-.07,1.07-.71,2.36-1.82,3.64h10.04c.18-2.58,.55-5.17,.55-5.17h-9.21Z"/><path class="b" d="M86.32,311.69c-1.61-.1-3.22-.07-4.83,0-3.48,.06-6.97,.02-10.45,.03H18.75c-3.48,.35-6.97,.62-10.45,1.04,3.48,.42,6.97,.69,10.45,1.04h52.27c3.48,.01,6.97-.03,10.45,.03,.86,.04,1.72,.06,2.58,.07,2.87,6.74-2.23,13.75-2.23,13.75l9.87,.89c0-5.52,1.07-16.84,1.07-16.84h-6.45Z"/><path class="b" d="M231.28,278.92c-2.67,0-4.83,2.16-4.83,4.83s2.16,4.83,4.83,4.83,4.83-2.16,4.83-4.83-2.16-4.83-4.83-4.83Zm1.84,7.32l-1.84-.97-1.84,.97,.35-2.05-1.49-1.45,2.05-.3,.92-1.86,.92,1.86,2.05,.3-1.49,1.45,.35,2.05Z"/><path class="b" d="M255.37,279.22h-16.55c-.45,0-.82,.37-.82,.82v7.35c0,.45,.37,.82,.82,.82h16.55c.45,0,.82-.37,.82-.82v-7.35c0-.45-.37-.82-.82-.82Z"/><path class="b" d="M33.44,278.92c-2.67,0-4.83,2.16-4.83,4.83s2.16,4.83,4.83,4.83,4.83-2.16,4.83-4.83-2.16-4.83-4.83-4.83Zm1.84,7.32l-1.84-.97-1.84,.97,.35-2.05-1.49-1.45,2.05-.3,.92-1.86,.92,1.86,2.05,.3-1.49,1.45,.35,2.05Z"/><path class="b" d="M57.53,279.22h-16.55c-.45,0-.82,.37-.82,.82v7.35c0,.45,.37,.82,.82,.82h16.55c.45,0,.82-.37,.82-.82v-7.35c0-.45-.37-.82-.82-.82Z"/><path class="b" d="M135.81,77.61h3.93c.11,0,.2-.18,.2-.39v-3.51c0-.22-.09-.39-.2-.39h-3.93c-.11,0-.2,.18-.2,.39v3.51c0,.22,.09,.39,.2,.39Z"/><path class="b" d="M141.85,77.61h3.93c.11,0,.2-.18,.2-.39v-3.51c0-.22-.09-.39-.2-.39h-3.93c-.11,0-.2,.18-.2,.39v3.51c0,.22,.09,.39,.2,.39Z"/><path class="b" d="M154.22,326.93c1.06-.52,2.48-.99,2.48-.99,0,0-3.28-32.65,3.47-46.41,0,0-8.89,7.89-5.95,47.4Z"/><path class="b" d="M110.16,280.08c-3.17,2.27-11.69,7.74-12.35,46.05,1.1-.43,2.91-.93,2.91-.93,0,0-.99-33.75,9.44-45.12Z"/></g></svg>