<?xml version="1.0" encoding="utf-8"?>
<!-- Generator: Adobe Illustrator 26.2.1, SVG Export Plug-In . SVG Version: 6.00 Build 0)  -->
<svg version="1.1" id="레이어_1" xmlns="http://www.w3.org/2000/svg" xmlns:xlink="http://www.w3.org/1999/xlink" x="0px"
	 y="0px" viewBox="0 0 50 100" style="enable-background:new 0 0 50 100;" xml:space="preserve">
<style type="text/css">
	.st0{fill-rule:evenodd;clip-rule:evenodd;fill:#FFFFFF;stroke:#17364C;stroke-width:0.25;stroke-miterlimit:10;}
</style>
<g>
	<path class="st0" d="M21.46,38.9c0.09-0.02,0.15-0.04,0.25-0.07c-0.06-0.06-0.1-0.11-0.16-0.17C21.44,38.72,21.46,38.8,21.46,38.9z
		"/>
</g>
<path class="st0" d="M45.72,93.43c0-0.1-0.02-0.2-0.02-0.3c0-0.18,0-0.36,0-0.54c0.01-0.26-0.01-0.51-0.04-0.77
	c-0.03-0.32,0-0.64-0.01-0.97c-0.01-0.26-0.01-0.53-0.03-0.79c-0.02-0.22-0.07-0.44-0.08-0.67c-0.01-0.27,0.02-0.53,0-0.8
	c-0.01-0.32,0.01-0.65-0.11-0.96c-0.01-0.02-0.02-0.04-0.01-0.06c0.02-0.26-0.06-0.5-0.1-0.74c-0.09-0.55-0.15-1.11-0.25-1.65
	c-0.03-0.18-0.06-0.35-0.07-0.53c-0.01-0.17-0.06-0.35-0.12-0.52c-0.11-0.32-0.1-0.67-0.17-0.99c-0.02-0.09-0.03-0.18-0.05-0.27
	c-0.12-0.61-0.35-1.19-0.53-1.79c-0.07-0.23-0.16-0.46-0.24-0.69c0-0.01,0-0.02,0-0.02c-0.25-0.42-0.39-0.88-0.6-1.32
	c-0.13-0.28-0.32-0.54-0.44-0.83c-0.13-0.29-0.29-0.55-0.47-0.81c-0.05-0.07-0.07-0.18-0.06-0.26c0.02-0.52,0.02-1.04-0.03-1.56
	c-0.02-0.24,0.01-0.49,0.02-0.73c0.01-0.23,0-0.46,0.01-0.69c0.01-0.11,0.02-0.23,0.03-0.34c0.01-0.15,0.03-0.3,0.03-0.45
	c-0.01-0.25-0.04-0.5-0.06-0.76c-0.01-0.1,0-0.2,0.01-0.3c0.03-0.35,0.08-0.71,0.09-1.06c0.01-0.29-0.05-0.57-0.06-0.86
	c-0.01-0.28-0.06-0.55,0-0.84c0.04-0.19,0.02-0.39,0.03-0.58c0.02-0.35,0.04-0.71,0.06-1.06c0-0.02,0.01-0.05,0-0.06
	c-0.05-0.21-0.01-0.42,0.02-0.62c0.04-0.29,0.03-0.59,0.04-0.89c0.01-0.26,0.02-0.52,0-0.78c-0.01-0.3-0.04-0.6-0.07-0.9
	c-0.01-0.08-0.02-0.16-0.02-0.24c0.01-0.27,0.02-0.53-0.05-0.79c-0.02-0.07,0-0.14,0-0.22c0.03-0.25,0.01-0.49-0.03-0.73
	c-0.02-0.16-0.02-0.33-0.03-0.49c-0.01-0.27-0.03-0.53-0.03-0.8c0-0.3,0.01-0.61,0.01-0.91c0-0.06,0-0.12-0.01-0.17
	c-0.01-0.07-0.04-0.14,0.04-0.2c0.01-0.01,0.02-0.05,0.01-0.07c-0.1-0.22-0.06-0.47-0.07-0.7c-0.02-0.22,0-0.43,0-0.65
	c0-0.01,0-0.01,0-0.02c-0.04-0.29-0.09-0.58-0.13-0.87c-0.02-0.13-0.04-0.27-0.06-0.4c-0.04-0.16-0.08-0.31-0.13-0.47
	c-0.1-0.32-0.21-0.63-0.31-0.95c-0.02-0.08-0.05-0.17-0.08-0.24c-0.1-0.21-0.2-0.42-0.3-0.63c-0.05-0.1-0.06-0.21-0.11-0.3
	c-0.08-0.17-0.18-0.34-0.27-0.51c-0.05-0.09-0.08-0.18-0.12-0.27c-0.01-0.03-0.02-0.07-0.05-0.09c-0.17-0.16-0.29-0.35-0.39-0.55
	c-0.03-0.07-0.1-0.12-0.15-0.18c-0.19-0.25-0.38-0.5-0.56-0.75c-0.05-0.07-0.23-0.16-0.32-0.14c-0.1,0.03-0.16,0.09-0.18,0.2
	c-0.04,0.21-0.17,0.36-0.34,0.49c-0.07,0.05-0.12,0.15-0.18,0.22c-0.12,0.15-0.25,0.3-0.36,0.45c-0.15,0.22-0.31,0.45-0.43,0.69
	c-0.08,0.16-0.17,0.3-0.31,0.42c-0.01-0.11-0.03-0.21-0.04-0.31c0.09-0.08,0.11-0.17,0.1-0.3c0-0.23,0.04-0.47,0.07-0.71
	c0.07-0.56,0.1-1.12,0.09-1.69c-0.01-0.23,0.06-0.47,0.04-0.71c-0.03-0.41,0.06-0.82,0.04-1.23c-0.02-0.38-0.01-0.76,0-1.14
	c0-0.2,0.03-0.4,0.04-0.61c0.01-0.08,0.01-0.16,0.01-0.24c0-0.31-0.01-0.62-0.01-0.92c0-0.01,0.01-0.04,0-0.04
	c-0.14-0.13-0.03-0.28-0.02-0.43c0-0.11,0-0.23,0.01-0.34c0.01-0.22,0.04-0.43,0.05-0.64c0.01-0.12-0.03-0.24-0.03-0.36
	c0-0.13,0-0.25,0-0.38c0-0.06,0-0.13,0.01-0.19c0.05-0.37-0.05-0.75,0.07-1.12c0.03-0.08-0.01-0.18-0.02-0.27
	c-0.03-0.29,0.04-0.58-0.03-0.87c-0.02-0.06,0.06-0.14,0.05-0.2c-0.03-0.25-0.05-0.5,0.01-0.75c0.01-0.04-0.03-0.09-0.03-0.14
	c-0.01-0.07,0-0.14,0.01-0.21c0-0.04,0.02-0.07,0.02-0.1c-0.01-0.25-0.03-0.51-0.04-0.77c0-0.09,0-0.19,0.01-0.28
	c0.01-0.11-0.01-0.21-0.04-0.31c-0.04-0.17-0.04-0.35-0.05-0.53c-0.02-0.28-0.06-0.56-0.06-0.84c0-0.2,0.01-0.41,0-0.61
	c-0.02-0.36-0.01-0.71-0.08-1.07c-0.04-0.23-0.02-0.47-0.05-0.71c-0.04-0.44-0.05-0.89-0.13-1.32c-0.06-0.29-0.09-0.58-0.13-0.87
	c-0.01-0.1-0.03-0.19-0.12-0.25c-0.03-0.02-0.04-0.06-0.07-0.12c0.05-0.03,0.1-0.06,0.12-0.07c-0.03-0.3-0.05-0.57-0.07-0.85
	c0-0.03,0.01-0.07,0.01-0.11c-0.04-0.22-0.07-0.45-0.11-0.67c-0.02-0.12-0.02-0.12-0.12-0.18c0.11-0.15,0.09-0.29,0.04-0.45
	c-0.06-0.19-0.09-0.39-0.13-0.58c-0.02-0.12-0.03-0.25-0.04-0.38c-0.01-0.08-0.01-0.17-0.02-0.25c0-0.04,0-0.1-0.02-0.12
	c-0.1-0.08-0.08-0.19-0.08-0.3c0-0.33-0.17-0.62-0.24-0.93c-0.05-0.22-0.19-0.42-0.15-0.67c-0.1-0.15-0.05-0.36-0.18-0.52
	c-0.09-0.11-0.08-0.3-0.11-0.45c-0.01-0.06-0.01-0.12-0.04-0.17c-0.18-0.32-0.25-0.68-0.32-1.04c-0.01-0.05-0.03-0.1-0.04-0.15
	c-0.09-0.3-0.21-0.59-0.27-0.9c-0.04-0.24-0.1-0.46-0.17-0.69c-0.04-0.13-0.12-0.24-0.14-0.37c-0.07-0.34-0.33-0.61-0.35-0.98
	c-0.01-0.19-0.11-0.36-0.17-0.54c-0.07-0.22-0.13-0.44-0.22-0.65c-0.1-0.26-0.16-0.53-0.33-0.76c-0.09-0.12-0.1-0.3-0.16-0.45
	c-0.08-0.23-0.14-0.47-0.29-0.68c-0.02-0.03-0.03-0.08-0.05-0.12c-0.01-0.04,0-0.1-0.03-0.13c-0.16-0.14-0.15-0.35-0.22-0.52
	c-0.08-0.17-0.15-0.34-0.23-0.51c-0.02-0.05-0.05-0.1-0.08-0.16c-0.05-0.1-0.11-0.2-0.13-0.31c-0.04-0.21-0.14-0.4-0.22-0.6
	c-0.12-0.27-0.24-0.55-0.36-0.82c-0.03-0.07-0.07-0.14-0.12-0.2c-0.14-0.16-0.22-0.34-0.24-0.55c-0.01-0.11-0.08-0.21-0.13-0.31
	c-0.08-0.16-0.17-0.33-0.25-0.49c-0.03-0.06-0.05-0.13-0.07-0.2c-0.04-0.11-0.07-0.25-0.14-0.34c-0.18-0.23-0.32-0.49-0.48-0.73
	c-0.08-0.12-0.13-0.27-0.21-0.39c-0.21-0.36-0.44-0.7-0.63-1.07c-0.15-0.29-0.35-0.54-0.52-0.81c-0.08-0.14-0.2-0.28-0.19-0.46
	c0-0.03-0.02-0.07-0.04-0.1c-0.14-0.21-0.3-0.41-0.43-0.62c-0.11-0.18-0.19-0.38-0.29-0.56c-0.13-0.24-0.28-0.48-0.49-0.67
	C28,8.61,27.97,8.6,27.97,8.58c-0.13-0.35-0.38-0.64-0.56-0.96c-0.09-0.16-0.12-0.32-0.07-0.52c0.06-0.2,0.05-0.41,0.06-0.62
	c0.01-0.27,0.01-0.54-0.01-0.81c-0.02-0.21-0.01-0.42-0.07-0.64c-0.06-0.2-0.06-0.41-0.08-0.62c-0.03-0.27-0.03-0.54-0.12-0.8
	c-0.03-0.07-0.03-0.15-0.04-0.23c-0.04-0.21-0.13-0.41-0.18-0.61c-0.05-0.21-0.14-0.4-0.21-0.59c-0.1-0.28-0.26-0.55-0.4-0.82
	c-0.03-0.06-0.1-0.09-0.18-0.15c-0.08,0.12-0.15,0.22-0.22,0.32c-0.12,0.19-0.24,0.38-0.36,0.57C25.52,2.14,25.5,2.17,25.5,2.2
	c0.04,0.27-0.1,0.5-0.2,0.74c-0.07,0.18-0.1,0.37-0.14,0.55c-0.01,0.05-0.02,0.1-0.04,0.15c-0.09,0.28-0.17,0.56-0.15,0.85
	c0,0.03,0,0.08-0.02,0.11c-0.12,0.17-0.13,0.37-0.12,0.57c0.02,0.44-0.06,0.87-0.15,1.3c-0.04,0.24-0.15,0.47-0.23,0.71
	c-0.02,0.04-0.05,0.1-0.05,0.14c0.01,0.24-0.1,0.43-0.28,0.59c-0.08,0.08-0.13,0.2-0.2,0.29c-0.24,0.31-0.5,0.62-0.74,0.94
	c-0.15,0.21-0.27,0.43-0.4,0.65c-0.01,0.01-0.01,0.03-0.01,0.04c-0.29,0.23-0.34,0.62-0.61,0.85c-0.03,0.03-0.07,0.07-0.08,0.1
	c-0.04,0.15-0.13,0.27-0.2,0.4c-0.16,0.28-0.29,0.57-0.45,0.85c-0.08,0.15-0.18,0.28-0.27,0.43c-0.04,0.07-0.07,0.16-0.1,0.23
	c-0.01,0.03-0.02,0.06-0.04,0.08c-0.2,0.15-0.24,0.37-0.3,0.59c-0.01,0.04-0.06,0.06-0.08,0.1c-0.07,0.1-0.16,0.18-0.18,0.32
	c-0.01,0.09-0.06,0.21-0.14,0.26c-0.15,0.11-0.16,0.3-0.29,0.41c-0.01,0.01-0.03,0.03-0.02,0.04c0.01,0.24-0.17,0.39-0.27,0.58
	c-0.02,0.04-0.05,0.09-0.06,0.14c-0.01,0.1-0.04,0.18-0.12,0.25c-0.03,0.03-0.04,0.08-0.05,0.12c-0.02,0.06-0.06,0.12-0.11,0.17
	c-0.05,0.05-0.09,0.1-0.11,0.16c-0.1,0.26-0.27,0.49-0.43,0.71c-0.17,0.24-0.3,0.5-0.37,0.79c-0.01,0.03-0.02,0.07-0.04,0.1
	c-0.14,0.3-0.3,0.6-0.36,0.92c0,0.02-0.01,0.04-0.02,0.06c-0.11,0.15-0.21,0.37-0.25,0.54c-0.01,0.05-0.04,0.09-0.05,0.14
	c-0.02,0.05-0.03,0.11-0.02,0.15c0.04,0.19-0.05,0.36-0.14,0.52c-0.02,0.05-0.06,0.1-0.08,0.16c-0.07,0.21-0.13,0.43-0.2,0.64
	c-0.11,0.32-0.23,0.64-0.35,0.96c-0.16,0.08-0.18,0.25-0.22,0.39c-0.07,0.19-0.11,0.39-0.16,0.59c-0.05,0.22-0.07,0.44-0.19,0.64
	c-0.04,0.06-0.01,0.16-0.01,0.29c-0.03,0.05-0.13,0.14-0.05,0.27c0.02,0.03-0.03,0.11-0.07,0.16c-0.04,0.07-0.1,0.12-0.14,0.19
	c-0.04,0.08-0.06,0.16-0.09,0.24c-0.01,0.03-0.02,0.07-0.03,0.1c-0.02,0.14-0.03,0.28-0.04,0.42c0,0.02-0.01,0.05-0.02,0.06
	c-0.23,0.25-0.17,0.56-0.2,0.85c-0.01,0.1,0,0.2-0.02,0.29c-0.02,0.11-0.06,0.21,0.06,0.29c-0.08,0.05-0.16,0.08-0.18,0.13
	c-0.02,0.05,0.01,0.12,0.02,0.19c-0.01,0.01-0.06,0.02-0.07,0.04c-0.07,0.2-0.16,0.4-0.08,0.61c0.03,0.09,0.02,0.17-0.01,0.27
	c-0.09,0.23-0.15,0.46-0.07,0.7c0.03,0.08-0.11,0.13-0.02,0.23c0.05,0.06,0.04,0.16-0.05,0.22c-0.01,0.01,0,0.06,0.01,0.08
	c0.03,0.1,0.02,0.18-0.05,0.26c-0.04,0.05-0.05,0.13-0.06,0.2c-0.03,0.18-0.06,0.36-0.09,0.54c-0.01,0.05-0.02,0.1-0.02,0.15
	c-0.01,0.31-0.01,0.63-0.02,0.94c0,0.09-0.02,0.17-0.03,0.26c-0.03,0.3-0.01,0.59,0,0.89c0.01,0.13-0.01,0.26-0.04,0.39
	c-0.08,0.28-0.06,0.57-0.07,0.85c-0.01,0.16-0.04,0.32-0.05,0.47c-0.02,0.28-0.03,0.55-0.05,0.83c-0.02,0.26-0.05,0.52-0.05,0.78
	c-0.01,0.37-0.08,0.73-0.02,1.09c0.01,0.03-0.01,0.07-0.02,0.1c-0.05,0.14-0.03,0.37-0.02,0.54c0.03,0.28,0.09,0.57-0.05,0.86
	c-0.04,0.09-0.09,0.18-0.01,0.29c0.03,0.04,0.02,0.11,0.02,0.17c0,0.13,0,0.27-0.01,0.4c0,0.14-0.01,0.27-0.01,0.41
	c0.01,0.1,0.03,0.2,0.04,0.3c0,0.02,0.02,0.05,0.02,0.06c-0.11,0.16,0.03,0.25,0.08,0.37c-0.12,0.06-0.12,0.06-0.13,0.16
	c0,0.05-0.01,0.1,0,0.15c0.11,0.49-0.02,0.99,0.02,1.49c0,0.07,0,0.15-0.02,0.22c-0.03,0.12-0.01,0.24-0.03,0.36
	c-0.02,0.13,0,0.23,0.03,0.35c0.02,0.06-0.01,0.13-0.01,0.21c-0.01,0.19,0.06,0.37,0.02,0.57c-0.01,0.03,0,0.07,0.01,0.1
	c0.07,0.11,0.04,0.22,0.02,0.33c-0.01,0.07-0.02,0.15-0.02,0.23c0.01,0.12,0.03,0.24,0.05,0.38c0.02,0.01,0.07,0.03,0.12,0.05
	c-0.04,0.01-0.07,0.02-0.11,0.03c-0.01,0.28-0.03,0.57-0.05,0.85c-0.01,0.16,0,0.33-0.02,0.5c-0.01,0.11,0.06,0.21,0.02,0.33
	c-0.03,0.1-0.03,0.21-0.03,0.32c0,0.08-0.01,0.17,0.03,0.23c0.14,0.2,0.08,0.43,0.08,0.64c0,0.44-0.06,0.89,0.02,1.34
	c0.01,0.08,0.01,0.17,0,0.26c0,0.12,0,0.23,0,0.34c0,0.06,0,0.13-0.01,0.19c-0.03,0.27-0.02,0.53,0.03,0.79
	c0.01,0.04,0.04,0.08,0.07,0.14c-0.14,0.21-0.09,0.43-0.06,0.66c0.01,0.08,0.04,0.14-0.04,0.22c-0.04,0.03-0.04,0.12-0.03,0.18
	c0,0.09,0.06,0.17,0.03,0.28c-0.01,0.04,0.08,0.11,0.14,0.18c-0.11,0.1-0.14,0.23-0.05,0.38c0.02,0,0.05,0,0.09,0.01
	c-0.05,0.11-0.09,0.23-0.14,0.36c0.19,0.07,0.2,0.21,0.2,0.36c-0.01,0.15-0.01,0.3,0.01,0.45c0.03,0.31,0.07,0.62,0.11,0.93
	c0.03,0.22,0.1,0.43,0.01,0.65c-0.03,0-0.06,0.01-0.1,0.02c-0.14-0.19-0.23-0.41-0.31-0.64c-0.08-0.19-0.25-0.34-0.37-0.51
	c-0.05-0.06-0.1-0.13-0.16-0.19c-0.11-0.13-0.23-0.26-0.34-0.38c-0.15-0.17-0.32-0.34-0.47-0.52c-0.08-0.1-0.16-0.18-0.3-0.14
	c-0.09,0.02-0.17,0.02-0.26,0.03c-0.18,0.02-0.24,0.18-0.34,0.29c-0.18,0.21-0.34,0.43-0.49,0.65c-0.08,0.12-0.14,0.26-0.22,0.38
	c-0.06,0.09-0.13,0.17-0.2,0.25c-0.03,0.04-0.1,0.07-0.11,0.11c-0.03,0.22-0.2,0.35-0.31,0.52c-0.05,0.08-0.09,0.17-0.14,0.25
	c-0.08,0.13-0.16,0.26-0.25,0.39c-0.02,0.03-0.05,0.06-0.07,0.09c-0.1,0.21-0.22,0.43-0.3,0.65c-0.09,0.26-0.29,0.48-0.32,0.76
	c-0.01,0.07-0.02,0.14-0.04,0.22c-0.02,0.08-0.05,0.16-0.08,0.24c-0.08,0.28-0.09,0.57-0.2,0.84c0.07,0.13-0.01,0.26-0.03,0.39
	c-0.02,0.13-0.01,0.26-0.08,0.38c-0.07,0.12,0.05,0.18,0.07,0.28c-0.11,0.11-0.15,0.24-0.09,0.39c0.01,0.03,0.01,0.07,0,0.09
	c-0.11,0.18-0.04,0.38-0.11,0.57c-0.02,0.05,0.02,0.11,0.03,0.17c0,0,0,0,0,0c-0.03,0.2-0.03,0.39-0.01,0.6
	c0.02,0.26,0.04,0.51,0.08,0.76c0.01,0.08-0.03,0.18-0.05,0.27c-0.01,0.06-0.05,0.14-0.04,0.19c0.06,0.19,0.01,0.38,0,0.57
	c-0.01,0.1,0.01,0.2,0.01,0.3c0,0.06-0.01,0.11-0.02,0.17c-0.03,0.09-0.02,0.16,0.09,0.21c-0.18,0.15-0.03,0.31-0.07,0.47
	c-0.01,0.07-0.01,0.14-0.02,0.21c0,0.02-0.02,0.03-0.02,0.04c0.17,0.26-0.04,0.52,0,0.78c0.03,0.21-0.12,0.43,0,0.63
	c0.04,0.07,0.08,0.15,0.13,0.25c-0.03,0.14-0.07,0.32-0.1,0.49C9.6,66.8,9.6,66.9,9.63,66.96c0.06,0.13,0.04,0.24-0.07,0.34
	c0.05,0.09,0.12,0.17,0.07,0.28c0.13,0.18,0.07,0.39,0.09,0.58c0.01,0.12-0.05,0.27-0.01,0.38c0.05,0.13,0.03,0.25,0.03,0.38
	c0,0.04,0.01,0.09,0.02,0.13c0.05,0.18,0.06,0.35,0.03,0.54c-0.01,0.06,0,0.11,0.01,0.17c0.01,0.05,0.03,0.1,0.02,0.15
	c-0.05,0.21,0.01,0.41,0.06,0.61c0.02,0.1,0.02,0.2,0.02,0.3c-0.01,0.43-0.05,0.87-0.05,1.31c0,0.2,0,0.4-0.03,0.6
	C9.8,72.81,9.8,72.91,9.83,73c0.04,0.14,0.01,0.27-0.04,0.4c-0.03,0.09-0.11,0.19-0.01,0.28c0.01,0.01,0,0.04,0,0.06
	c-0.01,0.02-0.03,0.04-0.03,0.06c0,0.28-0.01,0.56,0.01,0.84c0.01,0.12,0.1,0.24,0.16,0.37c0,0,0,0.01-0.01,0.01
	c-0.2,0.11-0.24,0.29-0.19,0.48c0.06,0.27-0.09,0.44-0.25,0.63c-0.07,0.08-0.13,0.16-0.19,0.24c-0.26,0.38-0.52,0.75-0.77,1.14
	c-0.19,0.29-0.39,0.58-0.54,0.89c-0.2,0.39-0.39,0.78-0.63,1.16c-0.09,0.13-0.14,0.29-0.21,0.44c-0.04,0.09-0.09,0.17-0.12,0.26
	c-0.08,0.19-0.16,0.38-0.24,0.58c-0.02,0.05-0.03,0.11-0.07,0.16c-0.08,0.11-0.17,0.21-0.12,0.35c0.01,0.02-0.02,0.07-0.04,0.1
	c-0.09,0.22-0.18,0.45-0.27,0.67c-0.07,0.16-0.11,0.32-0.21,0.46c-0.1,0.15-0.12,0.3-0.12,0.46c0,0.15-0.04,0.3-0.08,0.44
	c-0.06,0.21-0.12,0.42-0.17,0.63C5.7,84.11,5.7,84.14,5.7,84.15c0.13,0.14,0.02,0.27-0.05,0.39c-0.09,0.15-0.1,0.31-0.08,0.46
	c0.02,0.18,0.02,0.36-0.05,0.53c-0.07,0.18-0.05,0.35-0.06,0.53c0,0.14,0.01,0.29,0,0.43c-0.01,0.1-0.03,0.2-0.06,0.3
	c-0.07,0.21-0.16,0.42-0.12,0.66c0.01,0.09-0.04,0.2-0.06,0.3c-0.11,0.37-0.17,0.74-0.13,1.13c0.02,0.17-0.05,0.36-0.08,0.54
	c-0.02,0.16-0.05,0.31,0.07,0.45C5.1,89.89,5.1,89.95,5.1,90c-0.05,0.29-0.14,0.58-0.15,0.88c-0.01,0.16-0.05,0.34,0.03,0.5
	c0.01,0.02,0.01,0.06,0.01,0.08c-0.09,0.27-0.05,0.53-0.02,0.8c0,0.05-0.01,0.1-0.01,0.15c-0.01,0.36-0.03,0.72-0.03,1.08
	c0,0.37,0.01,0.75,0.02,1.12c0,0.1-0.02,0.2-0.04,0.3c-0.04,0.2-0.06,0.4,0.06,0.58C5,95.55,5.02,95.65,5,95.72
	c-0.03,0.13-0.05,0.25-0.04,0.38c0,0.13,0.06,0.58,0.11,0.71c0.02,0.04,0.01,0.08,0,0.12c0,0.15-0.01,0.3-0.01,0.45
	c0,0.03-0.01,0.06,0.01,0.09c0.04,0.09,0.09,0.17,0.12,0.26c0.03,0.09,0.03,0.19,0.06,0.27c0.03,0.07,0.03,0.12,0.01,0.18
	c-0.02,0.08-0.02,0.18-0.03,0.27c0.02,0.01,0.03,0.01,0.04,0.02c0.05-0.04,0.12-0.07,0.14-0.12c0.08-0.18,0.15-0.37,0.2-0.56
	c0.03-0.13,0.04-0.27,0.04-0.41c0.01-0.17,0.06-0.34,0.14-0.49c0.05-0.1,0.09-0.2,0.15-0.31c-0.08-0.12-0.11-0.26,0.01-0.4
	c0.05-0.06,0.07-0.14,0.11-0.22c0.1-0.21,0.19-0.42,0.03-0.64c0.18-0.12,0.21-0.3,0.25-0.48c0.05-0.21,0.15-0.41,0.21-0.62
	c0.04-0.13,0.05-0.27,0.1-0.38c0.12-0.24,0.26-0.48,0.39-0.71c0.06-0.11,0.13-0.22,0.17-0.33c0.09-0.25,0.18-0.49,0.35-0.7
	c0.1-0.12,0.15-0.27,0.23-0.4c0.08-0.14,0.15-0.29,0.25-0.41c0.28-0.35,0.46-0.75,0.7-1.13c0.14-0.22,0.27-0.46,0.41-0.68
	c0.16-0.25,0.35-0.48,0.48-0.74c0.09-0.18,0.25-0.3,0.36-0.47c0.06-0.1,0.15-0.19,0.21-0.28c0.22-0.31,0.44-0.63,0.66-0.94
	c0.16-0.24,0.33-0.47,0.48-0.72c0.07-0.11,0.1-0.24,0.2-0.39c0.01,0.04,0.03,0.07,0.06,0.15c0.08-0.15,0.12-0.27,0.2-0.37
	c0.08-0.09,0.21-0.14,0.28-0.23c0.1-0.12,0.16-0.28,0.26-0.4c0.08-0.1,0.16-0.2,0.28-0.27c0.13-0.09,0.22-0.24,0.32-0.36
	c0.17-0.18,0.34-0.35,0.51-0.52c0.02-0.02,0.04-0.05,0.07-0.05c0.14-0.03,0.2-0.14,0.28-0.23c0.26-0.31,0.59-0.55,0.9-0.8
	c0.14-0.11,0.32-0.19,0.43-0.34c0.17,0,0.27-0.13,0.39-0.21c0.16-0.1,0.3-0.22,0.46-0.32c0.08-0.06,0.18-0.1,0.27-0.13
	c0.14-0.04,0.25-0.11,0.36-0.21c0.17-0.16,0.37-0.29,0.6-0.35c0.13-0.03,0.24-0.11,0.37-0.15c0.23-0.07,0.46-0.14,0.7-0.19
	c0.07-0.02,0.16-0.03,0.21,0.01c0.26,0.17,0.56,0.28,0.82,0.45c0.06,0.04,0.14,0.07,0.21,0.09c0.12,0.04,0.2,0.13,0.18,0.26
	c-0.01,0.09-0.05,0.18-0.07,0.28c-0.03,0.14-0.05,0.28-0.08,0.42c0,0.01,0.02,0.04,0.01,0.04c-0.14,0.15-0.11,0.35-0.18,0.53
	c-0.07,0.14-0.09,0.31-0.11,0.46c-0.01,0.05,0.04,0.12,0.07,0.17c0.1,0.21,0.21,0.43,0.42,0.55c0.12,0.07,0.23,0.14,0.36,0.19
	c0.32,0.11,0.64,0.2,0.95,0.3c0.04,0.01,0.09,0.03,0.13,0.03c0.25-0.03,0.46,0.08,0.68,0.14c0.13,0.04,0.25,0.12,0.4,0.06
	c0.01,0,0.03,0,0.04,0.01c0.23,0.12,0.5,0.06,0.75,0.09c0.16,0.02,0.32,0.03,0.48,0.05c0.04,0.01,0.1,0.03,0.13,0.02
	c0.22-0.14,0.43-0.02,0.65-0.03c0.09,0,0.19,0.03,0.28,0.02c0.13-0.02,0.26-0.06,0.38,0.02c0.02,0.01,0.06,0.01,0.09-0.01
	c0.19-0.1,0.4-0.07,0.6-0.07c0.1,0,0.19-0.08,0.31-0.04c0.09,0.03,0.22-0.03,0.34-0.04c0.11-0.02,0.22-0.04,0.33-0.05
	c0.22-0.01,0.44-0.1,0.67-0.05c0.07,0.01,0.14-0.02,0.22-0.03c0.17-0.02,0.34-0.04,0.51-0.07c0.16-0.03,0.31-0.11,0.46-0.11
	c0.34-0.01,0.65-0.13,0.96-0.23c0.08-0.03,0.16-0.05,0.24-0.05c0.21,0,0.37-0.11,0.5-0.26c0.16-0.2,0.3-0.42,0.42-0.65
	c0.18-0.34,0.21-0.71,0.31-1.07c0.03-0.11,0.01-0.23,0-0.34c-0.03-0.27,0.05-0.35,0.3-0.37c0.34-0.03,0.66-0.11,0.98-0.23
	c0.08-0.03,0.15-0.07,0.24-0.1c0.09,0.17,0.28,0.19,0.45,0.24c0.16,0.05,0.31,0.11,0.44,0.22c0.02,0.01,0.04,0.03,0.06,0.03
	c0.35,0.12,0.65,0.32,0.95,0.52c0.28,0.18,0.6,0.32,0.87,0.5c0.28,0.19,0.54,0.4,0.8,0.61c0.22,0.18,0.44,0.37,0.65,0.56
	c0.3,0.26,0.54,0.58,0.79,0.89c0.09,0.11,0.22,0.19,0.31,0.29c0.12,0.13,0.22,0.28,0.33,0.42c0.17,0.2,0.36,0.39,0.52,0.59
	c0.33,0.39,0.65,0.79,0.98,1.19c0.22,0.27,0.44,0.54,0.6,0.85c0.11,0.2,0.27,0.37,0.4,0.55c0.18,0.24,0.36,0.48,0.53,0.72
	c0.05,0.07,0.09,0.15,0.12,0.22c0.11,0.24,0.23,0.48,0.4,0.68c0.03,0.04,0.06,0.1,0.08,0.15c0.17,0.32,0.32,0.65,0.43,1
	c0.06,0.2,0.16,0.39,0.24,0.59c0.07,0.16,0.13,0.31,0.19,0.48c0.09,0.26,0.19,0.51,0.36,0.73c0.04,0.06,0.08,0.12,0.1,0.19
	c0.16,0.45,0.31,0.91,0.47,1.36c0.08,0.24,0.16,0.47,0.29,0.69c0.07,0.11,0.1,0.25,0.13,0.38c0.09,0.34,0.16,0.68,0.27,1.01
	c0.16,0.5,0.32,1,0.52,1.48c0.07,0.18,0.17,0.35,0.19,0.55c0,0.05,0.05,0.1,0.09,0.14c0.14,0.13,0.29,0.1,0.33-0.08
	c0.03-0.14,0.04-0.29,0-0.43c-0.07-0.27-0.07-0.52,0.02-0.79c0.05-0.13,0.05-0.28,0.06-0.43c0.01-0.19-0.01-0.37-0.01-0.56
	c0-0.11,0.03-0.23,0.04-0.34c0.03-0.39,0.07-0.78,0.08-1.16c0.01-0.27-0.01-0.55-0.01-0.82c0-0.04,0.01-0.07,0.02-0.1
	c0.01-0.04,0.04-0.09,0.04-0.13C45.55,94,45.73,93.72,45.72,93.43z"/>
<path class="st0" d="M37.49,57.76c0.26,0.11,0.51,0.21,0.79,0.24c0.17,0.01,0.33,0.05,0.5,0.04c0.64-0.04,1.27-0.09,1.91-0.14
	c0.04,0,0.07-0.01,0.11-0.03c0.26-0.13,0.55-0.15,0.84-0.23c0.05,0.28,0.09,0.55,0.13,0.81c0.01,0.07-0.03,0.12-0.11,0.14
	c-0.1,0.03-0.2,0.09-0.31,0.12c-0.1,0.03-0.2,0.05-0.3,0.07c-0.16,0.02-0.33,0.01-0.48,0.04c-0.34,0.07-0.69,0.09-1.04,0.1
	c-0.42,0.01-0.85-0.03-1.27-0.08c-0.32-0.03-0.62-0.12-0.94-0.16c-0.1-0.01-0.15-0.05-0.17-0.13c-0.02-0.08-0.03-0.17,0-0.25
	c0.03-0.11,0.07-0.22,0.03-0.34c-0.02-0.06-0.03-0.11-0.04-0.17C37.26,57.75,37.38,57.71,37.49,57.76z"/>
<path class="st0" d="M36.86,64.05c-0.01-0.1,0.06-0.14,0.16-0.12c0.05,0.01,0.09,0.04,0.13,0.06c0.22,0.09,0.43,0.21,0.66,0.27
	c0.19,0.05,0.4,0,0.57,0.13c0.31-0.01,0.62-0.01,0.92-0.02c0.19-0.01,0.38-0.07,0.56-0.05c0.11,0.01,0.23-0.05,0.31-0.02
	c0.15,0.05,0.27-0.04,0.41-0.02c0.12,0.02,0.26-0.02,0.3-0.18c0.05,0.05,0.09,0.11,0.14,0.12c0.09,0.01,0.18,0.01,0.26-0.02
	c0.21-0.08,0.42-0.18,0.62-0.27c0.09,0.03,0.12,0.09,0.1,0.18c-0.02,0.08-0.02,0.16-0.02,0.24c-0.01,0.22-0.03,0.44-0.03,0.67
	c-0.01,0.2-0.15,0.35-0.39,0.32c-0.14-0.01-0.25,0.01-0.35,0.17c-0.18-0.21-0.37-0.16-0.57-0.07c-0.02,0.01-0.07,0.03-0.08,0.02
	c-0.08-0.07-0.17-0.02-0.25,0c-0.2,0.05-0.4,0.04-0.6,0.05c-0.11,0-0.21,0.02-0.32,0.04c-0.13,0.02-0.26,0.07-0.39,0.06
	c-0.25-0.02-0.51-0.01-0.76-0.07c-0.48-0.11-0.96-0.18-1.45-0.26c-0.01-0.07-0.03-0.13-0.02-0.18
	C36.81,64.73,36.88,64.39,36.86,64.05z"/>
<path class="st0" d="M32.9,70.56c-0.08-0.1-0.16-0.2-0.24-0.3c-0.06,0.02-0.13,0.03-0.19,0.04c-0.12,0.03-0.21,0.11-0.25,0.22
	c-0.04,0.12,0.05,0.19,0.13,0.25c0.11,0.08,0.22,0.15,0.36,0.24c-0.21,0.09-0.39-0.03-0.58,0.01c-0.19,0.04-0.39,0.03-0.6,0.05
	c0.02-0.04,0.02-0.07,0.03-0.08c0.24-0.18,0.26-0.37,0.04-0.56c-0.09-0.08-0.2-0.14-0.32-0.22c-0.14,0.08-0.16,0.2-0.2,0.32
	c-0.07,0.22,0.15,0.3,0.22,0.47c-0.3,0.16-0.59,0.11-0.89,0.07c-0.02-0.07,0-0.11,0.08-0.14c0.16-0.07,0.18-0.16,0.11-0.31
	c-0.06-0.12-0.16-0.19-0.28-0.26c-0.17-0.09-0.34-0.01-0.36,0.18c-0.02,0.14,0.1,0.34,0.23,0.41c0.04,0.02,0.06,0.04,0.12,0.07
	c-0.04,0.03-0.06,0.05-0.08,0.05c-0.31-0.02-0.63,0.05-0.94-0.04c-0.03-0.01-0.06-0.02-0.09-0.01c-0.15,0.06-0.29-0.01-0.43-0.02
	c-0.09-0.01-0.18-0.01-0.26-0.02c-0.17-0.01-0.35-0.01-0.53-0.02c-0.03,0-0.06-0.02-0.12-0.04c0.1-0.05,0.17-0.07,0.23-0.11
	c0.12-0.07,0.14-0.14,0.08-0.27c-0.04-0.08-0.08-0.16-0.12-0.24c0.16-0.08,0.54-0.13,0.84-0.11c-0.02,0.08-0.03,0.17-0.06,0.24
	c-0.08,0.23,0.1,0.48,0.35,0.47c0.1,0,0.26-0.12,0.3-0.23c0.05-0.12,0.03-0.17-0.11-0.27c-0.04-0.03-0.09-0.06-0.12-0.09
	c-0.07-0.08-0.03-0.18,0.08-0.18c0.21-0.01,0.42-0.02,0.64-0.02c0.09,0,0.19,0,0.28,0c0.32-0.01,0.65-0.06,0.96,0.04
	c0.03,0.01,0.06,0,0.08,0c0.1,0,0.2-0.02,0.3-0.01c0.16,0.01,0.32,0.03,0.48-0.02c0.09-0.02,0.19-0.01,0.28,0.01
	c0.1,0.01,0.2,0.04,0.28,0.06c0.13-0.14,0.16-0.14,0.29-0.09c0.11,0.05,0.23,0.07,0.35,0.09c0.12,0.02,0.25,0,0.36,0.03
	c0.18,0.05,0.35,0.04,0.47-0.04c0.23,0.03,0.43,0.06,0.61,0.08c-0.02,0.44,0.12,0.66,0.5,0.78c0.19-0.18,0.17-0.44-0.06-0.6
	c-0.06-0.04-0.13-0.07-0.18-0.12c-0.02-0.02-0.02-0.07-0.03-0.11c0.04,0,0.09-0.03,0.11-0.01c0.07,0.05,0.13,0.04,0.2,0
	c0.05-0.03,0.12-0.02,0.18-0.03c0.09,0,0.13,0.03,0.12,0.13c-0.02,0.14-0.02,0.27-0.03,0.41c-0.01,0.17-0.04,0.33-0.18,0.45
	c-0.23-0.02-0.44-0.04-0.66-0.06c-0.21-0.01-0.42-0.02-0.63-0.03c-0.22,0-0.44,0-0.66-0.01c-0.21-0.01-0.43,0.04-0.66-0.04
	C33.06,70.92,33.01,70.71,32.9,70.56z"/>
<path class="st0" d="M29.65,73.39c0.02,0.08,0,0.21-0.05,0.26c-0.16,0.12-0.13,0.27-0.12,0.43c0,0.22,0,0.44-0.01,0.66
	c0,0.01-0.01,0.03-0.02,0.04c-0.11,0.2-0.09,0.39,0,0.58c0.05,0.1,0.05,0.2,0.01,0.31c-0.1,0.26-0.16,0.54-0.16,0.83
	c0,0.1-0.03,0.23,0.01,0.32c0.07,0.15,0.04,0.28,0,0.42c-0.02,0.07-0.05,0.14-0.05,0.21c-0.04,0.37-0.06,0.73-0.1,1.1
	c0.14,0.25-0.03,0.5-0.03,0.75c0,0.09-0.01,0.17-0.04,0.26c-0.04,0.16-0.13,0.32-0.01,0.48c0.01,0.01,0.01,0.04,0,0.06
	c-0.08,0.37-0.06,0.73-0.06,1.1c0,0.22-0.12,0.34-0.33,0.35c-0.1,0-0.2,0-0.31,0c-0.29,0.01-0.38-0.11-0.3-0.39
	c0.04-0.14,0.07-0.3,0.05-0.44c-0.03-0.24,0-0.48,0.06-0.71c0.03-0.1,0.05-0.2,0.06-0.3c0.02-0.36,0.03-0.72,0.04-1.08
	c0-0.14,0.05-0.3-0.16-0.34c0.04-0.1,0.05-0.19,0.11-0.25c0.2-0.21,0.23-0.34,0.07-0.57c-0.04-0.06-0.1-0.12-0.06-0.21
	c0.04,0.01,0.08,0.02,0.13,0.03c0.01-0.33,0.02-0.64,0.03-0.95c0-0.13-0.01-0.27,0.03-0.39c0.06-0.2,0.04-0.38,0.02-0.58
	c-0.01-0.09,0.01-0.19,0.02-0.28c0.02-0.12,0.04-0.24,0.05-0.37c0.02-0.23,0.03-0.46,0.05-0.69c0.02-0.16,0.08-0.32,0.02-0.49
	c-0.02-0.05,0-0.13,0.03-0.19c0.12-0.32,0.13-0.65,0.1-0.98c-0.02-0.21,0.15-0.32,0.25-0.46c0.02-0.02,0.07-0.02,0.11-0.02
	c0.23,0,0.45,0.02,0.69-0.1c0.08,0.2,0.07,0.41,0.05,0.6c-0.02,0.2-0.1,0.4-0.15,0.61C29.65,73.12,29.61,73.25,29.65,73.39z"/>
<path class="st0" d="M21.01,46.92c-0.04-0.04-0.1-0.07-0.11-0.12c-0.04-0.16-0.15-0.26-0.25-0.38c-0.32-0.37-0.51-0.82-0.65-1.29
	c-0.1-0.32-0.11-0.66-0.17-0.99c-0.02-0.12-0.13-0.27-0.09-0.36c0.08-0.19,0-0.37,0.04-0.55c0.04-0.18,0.08-0.37,0.09-0.56
	c0.03-0.45,0.12-0.89,0.2-1.33c0.09-0.44,0.27-0.83,0.45-1.22c0.09-0.19,0.23-0.36,0.3-0.55c0.06-0.17,0.07-0.34,0.3-0.35
	c0.03,0,0.07-0.06,0.1-0.1c0.07-0.08,0.15-0.15,0.22-0.23c0.07-0.08,0.15-0.16,0.17-0.25c0.05-0.21,0.21-0.28,0.38-0.35
	c0.11-0.04,0.22-0.07,0.32-0.13c0.23-0.14,0.46-0.28,0.68-0.44c0.08-0.06,0.17-0.13,0.21-0.22c0.1-0.22,0.32-0.23,0.5-0.36
	c0,0.07,0,0.12-0.01,0.2c0.08-0.1,0.13-0.17,0.14-0.18c0.24-0.02,0.45,0.01,0.6-0.07c0.29-0.15,0.62-0.05,0.9-0.2
	c0.05-0.02,0.13,0.06,0.2,0.09c0.05-0.05,0.08-0.11,0.14-0.12c0.18-0.04,0.37-0.06,0.55-0.1c0.08-0.02,0.14-0.05,0.21-0.08
	c0.1,0.04,0.21,0.13,0.31,0.11c0.31-0.07,0.58-0.01,0.85,0.11c0.07,0.03,0.16,0.04,0.24,0.05c0.31,0.02,0.6,0.09,0.84,0.27
	c0.12,0.09,0.23,0.17,0.41-0.01c0.04,0.16,0.07,0.28,0.1,0.4c0.05-0.03,0.12-0.08,0.15-0.06c0.13,0.07,0.3,0.06,0.42,0.18
	c0.15,0.16,0.32,0.31,0.49,0.44c0.05,0.04,0.13,0.03,0.2,0.04c0.02,0.08,0.02,0.19,0.07,0.24c0.25,0.26,0.32,0.65,0.62,0.87
	c0.04,0.03,0.04,0.12,0.05,0.18c0.07,0.19,0.1,0.21,0.35,0.27c-0.14,0.15-0.1,0.28-0.02,0.4c0.04,0.07,0.1,0.13,0.15,0.19
	c0.09,0.1,0.17,0.19,0.16,0.36c-0.01,0.11,0.13,0.21,0.17,0.33c0.03,0.13,0,0.28,0.02,0.41c0.05,0.21,0.17,0.41,0.16,0.61
	c-0.01,0.22,0.07,0.39,0.14,0.58c0.02,0.04,0.04,0.08,0.03,0.12c-0.07,0.23-0.14,0.47-0.29,0.67c-0.04,0.05-0.06,0.12-0.07,0.19
	c-0.02,0.18,0,0.37-0.06,0.53c-0.07,0.17-0.14,0.33-0.1,0.52c0,0.01,0,0.02-0.01,0.02c-0.2,0.08-0.17,0.29-0.27,0.41
	c-0.21,0.24-0.3,0.54-0.5,0.78c-0.21,0.24-0.22,0.61-0.5,0.82c-0.02,0.02,0,0.08-0.01,0.11c-0.01,0.03-0.03,0.08-0.06,0.09
	c-0.17,0.04-0.21,0.18-0.28,0.3c-0.11,0.18-0.17,0.39-0.38,0.5c-0.03,0.02-0.06,0.08-0.06,0.12c-0.02,0.21-0.12,0.33-0.33,0.37
	c-0.04,0.01-0.1,0.03-0.12,0.06c-0.07,0.1-0.16,0.12-0.27,0.12c-0.07,0.01-0.14,0.05-0.22,0.08c-0.15,0.05-0.29,0.11-0.43,0.16
	c-0.12,0.04-0.24,0.08-0.36,0.12c-0.36,0.14-0.72,0.35-1.11,0.32c-0.39-0.03-0.77,0.03-1.16,0.03c-0.48-0.01-0.95-0.02-1.41-0.18
	c-0.26-0.09-0.5-0.22-0.76-0.3c-0.26-0.08-0.49-0.21-0.72-0.34c0.07-0.1,0.13-0.19,0.19-0.29c0.17,0,0.22-0.03,0.18-0.2
	c-0.02-0.07-0.06-0.15-0.12-0.2c-0.11-0.1-0.25-0.16-0.26-0.34c-0.01-0.04-0.09-0.09-0.15-0.1c-0.04-0.01-0.11,0.04-0.13,0.09
	c-0.17,0.25-0.15,0.62,0.05,0.85c-0.04,0.01-0.09,0.03-0.11,0.02c-0.33-0.27-0.76-0.41-1.04-0.74
	C21.33,47.2,21.16,47.06,21.01,46.92z"/>
<path class="st0" d="M30.86,15.23c0.03,0.1,0.06,0.17-0.05,0.25C30.74,15.39,30.76,15.32,30.86,15.23z"/>
<path class="st0" d="M24.47,8.34c0.12-0.11,0.22-0.22,0.27-0.37c0.03-0.09,0.1-0.12,0.2-0.13c0.19-0.01,0.38-0.08,0.56,0
	c0.03,0.01,0.07-0.02,0.11-0.02c0.11,0,0.22-0.01,0.32,0.02c0.07,0.02,0.12,0.03,0.18-0.02C26.14,7.8,26.2,7.8,26.24,7.8
	c0.08-0.01,0.16,0,0.23-0.03c0.08-0.04,0.14-0.03,0.21,0c0.15,0.05,0.25,0.16,0.33,0.29c0.08,0.14,0.16,0.26,0.24,0.4
	c0.06,0.11,0.1,0.23,0.15,0.35c-0.19-0.03-0.39-0.01-0.54-0.13c-0.01-0.01-0.04-0.01-0.06-0.01c-0.23-0.05-0.46,0-0.69-0.01
	c-0.29,0-0.59,0.03-0.89,0.04c-0.06,0-0.13,0.02-0.2,0.02c-0.14,0.01-0.29,0.03-0.43,0.04c-0.06,0-0.12-0.01-0.21-0.02
	C24.32,8.58,24.32,8.47,24.47,8.34z"/>
<path class="st0" d="M25.13,16.21c0.07,0.04,0.15,0.07,0.24,0.12c-0.1,0.08-0.18,0.11-0.25,0.06c-0.03-0.02-0.03-0.09-0.04-0.14
	C25.1,16.24,25.11,16.23,25.13,16.21z"/>
<path class="st0" d="M24.77,15.68c-0.1,0.06-0.21,0.13-0.32,0.16c-0.09,0.02-0.2,0.02-0.24-0.1c0.21-0.06,0.39-0.12,0.6-0.18
	C24.79,15.62,24.79,15.67,24.77,15.68z"/>
<path class="st0" d="M24.77,16.6c-0.14,0.04-0.24,0.06-0.34,0.09c-0.06-0.13-0.03-0.21,0.08-0.3C24.59,16.45,24.66,16.51,24.77,16.6
	z"/>
<path class="st0" d="M23.37,16.43c0.1,0.06,0.15,0.13,0.12,0.25C23.35,16.65,23.34,16.56,23.37,16.43z"/>
<path class="st0" d="M23,16.35c0.02,0.13,0.02,0.21-0.06,0.25c-0.03,0.01-0.08-0.03-0.13-0.05C22.88,16.48,22.92,16.43,23,16.35z"/>
<path class="st0" d="M22.25,16.34c0.1-0.07,0.13-0.02,0.15,0.06c-0.08,0.05-0.14,0.09-0.19,0.13c-0.07,0.05-0.14,0.07-0.16-0.04
	C22.11,16.44,22.18,16.39,22.25,16.34z"/>
<path class="st0" d="M21.41,15.75c0,0.02-0.03,0.05-0.05,0.06c-0.1,0.04-0.1-0.03-0.12-0.11C21.33,15.68,21.39,15.67,21.41,15.75z"
	/>
<path class="st0" d="M20.36,16.09c0.1-0.3,0.2-0.61,0.3-0.91c0.01-0.04,0.04-0.08,0.06-0.1c0.07-0.07,0.12-0.14,0.09-0.25
	c0.13-0.02,0.13-0.02,0.29,0.08c0.01,0.07,0.02,0.14,0.02,0.18c0.08,0.01,0.15,0.01,0.2,0.04c0.07,0.03,0.12,0.06,0.19,0.02
	c0.02-0.01,0.05-0.02,0.06-0.01c0.1,0.06,0.19,0.04,0.29,0.01c0.04-0.01,0.13-0.01,0.14,0.02c0.04,0.11,0.12,0.11,0.18,0.16
	c0.13,0.1,0.19,0.13,0.4,0.13c0.01-0.03,0.02-0.06,0.03-0.1c0.13,0.15,0.27,0.06,0.41,0.04c0.02,0,0.06-0.03,0.07-0.02
	c0.06,0.1,0.18,0.03,0.25,0.14c0.02,0.03,0.11,0,0.18-0.02c0.03-0.01,0.06-0.04,0.07-0.05c0.22,0.12,0.43,0.18,0.68,0.11
	c0.05,0.12,0.15,0.08,0.26,0.07c0.29-0.02,0.58,0,0.87-0.03c0.36-0.03,0.73-0.05,1.09-0.01c0.04,0,0.09,0.02,0.12-0.01
	c0.13-0.12,0.27-0.04,0.41-0.05c0.34-0.03,0.67-0.02,1.01-0.03c0.08,0,0.15-0.01,0.23-0.01c0.24-0.01,0.47-0.02,0.71-0.08
	c0.19-0.05,0.38-0.13,0.57-0.12c0.1,0,0.21,0.01,0.32-0.02c0.07-0.01,0.13-0.04,0.18,0.04c0.04,0.05,0.09,0.05,0.13-0.01
	c0.12-0.15,0.29-0.06,0.41-0.18c0.1,0.07,0.2,0,0.29-0.01c0.05,0,0.13,0.02,0.15,0.06c0.07,0.16,0.13,0.33,0.17,0.51
	c0.04,0.13,0,0.18-0.11,0.21c-0.11,0.03-0.22,0.06-0.33,0.09c-0.19,0.04-0.38,0.07-0.57,0.11c-0.15,0.04-0.29,0.11-0.44,0.03
	c-0.04-0.02-0.09,0.01-0.13,0.02c-0.03,0.01-0.06,0.02-0.09,0.03c-0.12,0.02-0.23,0.03-0.35,0.06c-0.16,0.04-0.32,0.07-0.48,0.06
	c-0.16-0.01-0.33,0.03-0.49,0.06c-0.13,0.02-0.25,0.08-0.38,0.1c-0.1,0.02-0.22-0.04-0.32,0.07c-0.01,0.01-0.04,0-0.06-0.01
	c-0.1-0.02-0.19-0.06-0.29,0.01c-0.02,0.01-0.04,0.01-0.06,0.01c-0.09,0-0.19,0-0.28,0c-0.22,0-0.44,0.11-0.66,0.06
	c-0.09-0.01-0.18,0.01-0.27,0.02c-0.06,0-0.12,0.01-0.18,0.01c-0.1-0.01-0.21-0.04-0.31,0.03c-0.02,0.01-0.04,0.01-0.06,0.01
	c-0.22-0.01-0.43-0.02-0.65-0.02c-0.29-0.01-0.59-0.01-0.89-0.02c-0.22-0.01-0.45-0.01-0.67-0.04c-0.24-0.03-0.49-0.02-0.73-0.07
	c-0.23-0.05-0.48-0.02-0.72-0.02c-0.03,0-0.06,0-0.08-0.02c-0.11-0.1-0.24-0.09-0.37-0.1c-0.24-0.02-0.49-0.01-0.73-0.04
	C20.37,16.32,20.31,16.23,20.36,16.09z"/>
<path class="st0" d="M10.38,59.23c0.02-0.11,0.04-0.23,0.04-0.34c0.01-0.15,0-0.3,0.01-0.45c0.01-0.15,0.05-0.18,0.2-0.14
	c0.41,0.12,0.84,0.09,1.26,0.14c0.11,0.01,0.22-0.05,0.32-0.06c0.11-0.01,0.21,0.01,0.32,0.01c0.08,0,0.16-0.03,0.24-0.03
	c0.39-0.01,0.79-0.01,1.18-0.11c0.03-0.01,0.07,0,0.11,0c0.09,0,0.19,0.01,0.28-0.01c0.2-0.05,0.43,0.01,0.6-0.16
	c0.01-0.01,0.03-0.01,0.04-0.01c0.13-0.01,0.27-0.02,0.4-0.03c0.11,0.27-0.08,0.58,0.14,0.85c-0.06,0.06-0.1,0.13-0.15,0.14
	c-0.15,0.04-0.3,0.16-0.47,0.08c-0.03-0.01-0.07,0-0.11,0.01c-0.28,0.06-0.56,0.13-0.84,0.18c-0.25,0.04-0.49,0.08-0.74,0.11
	c-0.25,0.03-0.49,0.02-0.74,0.08c-0.08,0.02-0.17,0.05-0.26,0.05c-0.33-0.01-0.66,0.03-0.99-0.03c-0.23-0.04-0.46-0.05-0.69-0.07
	C10.36,59.44,10.35,59.41,10.38,59.23z"/>
<path class="st0" d="M10.2,64.88c0-0.08,0.03-0.16,0.05-0.26c0.11,0,0.22-0.01,0.32,0c0.19,0.03,0.37,0.07,0.56,0.1
	c0.26,0.04,0.52,0.07,0.78,0.1c0.13,0.01,0.26,0.02,0.4,0.01c0.24-0.01,0.47-0.03,0.7-0.05c0.06,0,0.12-0.01,0.18-0.01
	c0.21-0.02,0.42-0.05,0.63-0.07c0.32-0.04,0.63-0.06,0.94-0.1c0.1-0.01,0.2-0.06,0.3-0.07c0.28-0.04,0.56-0.04,0.73-0.33
	c0-0.01,0.03-0.01,0.04-0.01c0.06,0.42,0.12,0.85,0.18,1.28c0,0.05-0.02,0.14-0.06,0.16c-0.16,0.1-0.31,0.24-0.52,0.26
	c-0.18,0.01-0.37,0.03-0.53,0.11c-0.22,0.1-0.44,0.12-0.66,0.17c-0.11,0.02-0.21,0.06-0.31,0.07c-0.32,0.02-0.63,0-0.95,0.04
	c-0.23,0.03-0.45,0.03-0.68,0.01c-0.05,0-0.1,0-0.15,0c-0.32,0.01-0.65,0.02-0.97,0.02c-0.08,0-0.16-0.03-0.25-0.04
	c-0.14-0.01-0.28-0.01-0.41-0.02c-0.04,0-0.1-0.02-0.11-0.05c-0.04-0.11-0.13-0.06-0.2-0.05c-0.01-0.03-0.03-0.06-0.03-0.08
	C10.18,65.65,10.18,65.26,10.2,64.88z"/>
<path class="st0" d="M10.23,67.12c0.08,0.04,0.14,0.09,0.21,0.11c0.27,0.08,0.54,0.14,0.83,0.13c0.27-0.01,0.55-0.02,0.82,0.04
	c0.17,0.04,0.37,0.05,0.54,0.02c0.27-0.05,0.54,0.01,0.81-0.07c0.19-0.06,0.4-0.05,0.61-0.08c0.06-0.01,0.12-0.05,0.18-0.06
	c0.23-0.02,0.45-0.05,0.67-0.05c0.21-0.01,0.38-0.16,0.6-0.11c0.02,0.01,0.06-0.03,0.1-0.05c0.05-0.03,0.1-0.06,0.15-0.09
	c0.08-0.04,0.16-0.07,0.26-0.11c0.1,0.04,0.15,0.11,0.13,0.23c-0.02,0.11-0.01,0.23,0,0.34c0.01,0.12,0.04,0.23,0.05,0.34
	c0.01,0.09-0.01,0.17-0.14,0.18c-0.16,0.01-0.33,0.01-0.47,0.08c-0.19,0.09-0.38,0.15-0.59,0.2c-0.37,0.08-0.72,0.22-1.09,0.28
	c-0.42,0.08-0.84,0.1-1.27,0.15c-0.05,0.01-0.11,0.04-0.15,0.08c-0.06,0.06-0.13,0.07-0.2,0.06c-0.07-0.01-0.13-0.05-0.21-0.06
	c-0.14-0.01-0.31-0.07-0.42-0.01c-0.11,0.06-0.2,0.04-0.31,0.07c-0.11,0.03-0.07-0.12-0.13-0.1c-0.13,0.04-0.24-0.04-0.36-0.05
	c-0.21-0.03-0.42-0.09-0.63-0.13C10.27,67.99,10.16,67.56,10.23,67.12z"/>
<path class="st0" d="M16.42,70.78c-0.03,0.16-0.11,0.27-0.29,0.32c-0.26,0.08-0.52,0.17-0.78,0.26c-0.13,0.04-0.27,0.08-0.39,0.14
	c-0.36,0.19-0.71,0.4-1.06,0.59c-0.11,0.06-0.25,0.09-0.33,0.17c-0.18,0.2-0.41,0.31-0.65,0.38c-0.28,0.09-0.5,0.24-0.73,0.42
	c-0.05,0.04-0.1,0.09-0.15,0.09c-0.16,0-0.25,0.1-0.33,0.19c-0.11,0.12-0.3,0.15-0.35,0.33c0,0.02-0.07,0.02-0.1,0.03
	c-0.03,0.01-0.08,0.02-0.1,0.04c-0.06,0.1-0.12,0.18-0.23,0.22c0,0.15-0.17,0.11-0.23,0.18c-0.07,0.08-0.14,0.15-0.22,0.22
	c-0.06,0.06-0.11,0.12-0.22,0.09c0.02-0.21,0.04-0.42,0.05-0.59c0.14-0.06,0.24-0.1,0.35-0.15c0.02-0.18,0.17-0.19,0.3-0.24
	c0.04-0.02,0.08-0.06,0.12-0.1c0.16-0.13,0.29-0.28,0.46-0.38c0.38-0.22,0.76-0.46,1.19-0.57c0.07-0.02,0.15-0.07,0.21-0.12
	c0.31-0.29,0.69-0.48,1.05-0.7c0.17-0.11,0.38-0.16,0.56-0.27c0.17-0.1,0.35-0.2,0.54-0.27c0.17-0.06,0.34-0.14,0.51-0.2
	c0.2-0.06,0.41-0.1,0.59-0.22c0.06-0.05,0.14-0.07,0.24-0.13C16.43,70.64,16.43,70.71,16.42,70.78z"/>
<path class="st0" d="M17.63,77.58c-0.02-0.07-0.09-0.15-0.07-0.2c0.06-0.15-0.02-0.27-0.03-0.4c-0.01-0.19-0.03-0.39-0.05-0.58
	c-0.03-0.22-0.01-0.44-0.06-0.66c-0.01-0.03,0.01-0.06,0.01-0.09c0-0.04,0-0.09,0-0.13c-0.03-0.21-0.05-0.41-0.08-0.61
	c-0.01-0.12-0.03-0.24-0.04-0.36c-0.03-0.34-0.04-0.69-0.13-1.02c-0.03-0.11-0.04-0.22-0.04-0.34c0-0.26,0.08-0.54-0.11-0.76
	c-0.01-0.01-0.01-0.03-0.01-0.04c-0.03-0.19-0.06-0.38-0.08-0.57c-0.02-0.15,0.04-0.21,0.19-0.14c0.14,0.06,0.27,0.09,0.42,0.09
	c0.09,0,0.17,0.02,0.27,0.03c0.01,0.03,0.02,0.05,0.01,0.06c-0.16,0.4-0.06,0.82-0.12,1.23c-0.01,0.05,0.02,0.1,0.03,0.15
	c0.01,0.04,0.03,0.09,0.02,0.13c-0.05,0.34,0.04,0.67-0.01,1c-0.02,0.16,0.07,0.32,0,0.49c-0.05,0.1-0.01,0.19,0.01,0.29
	c0.06,0.22,0.11,0.44,0.13,0.67c0.03,0.3,0.03,0.6,0.05,0.9c0.02,0.22,0.12,0.44,0.05,0.67c-0.01,0.04,0,0.08,0.01,0.13
	c0,0.1,0,0.2,0,0.3c0,0.16,0.01,0.31,0.02,0.47c0,0.08,0.01,0.17-0.09,0.23c-0.02-0.04-0.04-0.06-0.04-0.09
	c-0.06-0.25-0.24-0.47-0.21-0.75C17.67,77.65,17.65,77.61,17.63,77.58z"/>
<path class="st0" d="M18.39,70.48c-0.18,0.11-0.16,0.25-0.09,0.41c0.03,0.06,0.02,0.13,0.02,0.19c-0.26,0.03-0.48,0.05-0.73,0.08
	c0.01-0.09,0.03-0.16,0.02-0.23c-0.02-0.12-0.03-0.28-0.11-0.35c-0.17-0.16-0.42-0.04-0.47,0.2c0.04,0.06,0.1,0.11,0.12,0.17
	c0.03,0.07,0.01,0.15-0.09,0.17c-0.09,0.02-0.13-0.02-0.13-0.12c-0.01-0.1,0-0.21-0.03-0.3c-0.04-0.14-0.02-0.27,0.02-0.4
	c0.03,0,0.05-0.02,0.07-0.01c0.19,0.09,0.39,0.08,0.6,0.04c0.01,0,0.03,0.01,0.04,0c0.2-0.02,0.41-0.03,0.61-0.06
	c0.09-0.01,0.15,0,0.23,0.05C18.44,70.4,18.43,70.46,18.39,70.48z"/>
<path class="st0" d="M19.91,80.52c-0.04,0.05-0.09,0.09-0.15,0.16c-0.15-0.11-0.3-0.21-0.44-0.31c-0.14-0.09-0.14-0.09-0.07-0.27
	c-0.13-0.07-0.16-0.18-0.16-0.31c0-0.06-0.01-0.11-0.02-0.17c-0.03-0.21-0.1-0.41-0.09-0.61c0.01-0.23-0.07-0.44-0.07-0.66
	c0-0.28-0.05-0.55-0.05-0.83c0-0.13,0.05-0.27-0.04-0.37c-0.11-0.13,0.04-0.24-0.01-0.36c-0.01-0.03-0.02-0.07-0.05-0.09
	c-0.06-0.05-0.04-0.11-0.06-0.17c-0.03-0.11,0.02-0.22,0.01-0.32c-0.04-0.29,0.03-0.57,0.01-0.85c-0.01-0.15-0.01-0.3-0.01-0.45
	c0-0.09-0.01-0.18-0.01-0.28c0-0.09,0.02-0.18,0-0.25c-0.09-0.24,0.01-0.48,0.01-0.72c0-0.22,0.03-0.44-0.11-0.63
	c-0.01-0.02-0.01-0.05-0.01-0.08c0.01-0.17,0-0.34,0.04-0.5c0.05-0.19,0.02-0.34-0.13-0.46c0.07-0.12,0.14-0.17,0.28-0.15
	c0.13,0.01,0.25,0.06,0.39,0c0.05-0.02,0.12,0.02,0.18,0.04c0,0.18,0,0.33-0.01,0.49c-0.03,0.39-0.07,0.79-0.1,1.18
	c-0.01,0.12-0.01,0.23-0.01,0.35c0.02,0.27,0.04,0.54,0.06,0.81c0.03,0.39,0.06,0.78,0.1,1.17c0.01,0.12,0.04,0.24-0.01,0.36
	c-0.02,0.04,0.02,0.11,0.02,0.16c0.02,0.17,0.04,0.34,0.05,0.51c0.01,0.17,0,0.34,0.01,0.51c0.01,0.27,0.16,0.51,0.1,0.78
	c-0.01,0.03,0.01,0.06,0.02,0.09c0.08,0.21,0.1,0.44,0.1,0.66c0,0.11,0.03,0.23,0.07,0.33c0.06,0.13,0.08,0.24,0.03,0.37
	c-0.06,0.15-0.05,0.28,0.03,0.41c0.07,0.11,0.14,0.22,0.22,0.35C19.99,80.44,19.95,80.48,19.91,80.52z"/>
<path class="st0" d="M20.14,70.36c-0.11-0.07-0.17,0.03-0.25,0.08c-0.16,0.11-0.17,0.12-0.11,0.29c0.03,0.08,0.08,0.16,0.13,0.26
	c-0.34,0.12-0.66,0.02-0.98,0.09c-0.03,0-0.06-0.03-0.09-0.04c0.01-0.03,0-0.06,0.01-0.08c0.11-0.14,0.1-0.26-0.02-0.38
	c-0.04-0.05-0.06-0.1-0.11-0.19c0.42-0.06,0.81-0.13,1.19-0.14c0.13-0.01,0.27-0.01,0.4-0.02c0.38-0.03,0.76-0.07,1.14-0.04
	c0.4,0.03,0.81,0.03,1.21,0.02c0.33-0.01,0.65-0.03,0.98-0.04c0.11-0.01,0.25,0.01,0.34-0.04c0.13-0.07,0.25-0.07,0.36-0.04
	c0.09,0.02,0.17,0.04,0.27,0.03c0.14-0.01,0.28-0.01,0.43-0.01c-0.02,0.11-0.06,0.24-0.08,0.35c0.04,0.03,0.1,0.04,0.11,0.08
	c0.06,0.21,0.21,0.2,0.38,0.18c0.19-0.02,0.34-0.18,0.19-0.38c-0.04-0.05-0.11-0.08-0.17-0.12c-0.03-0.02-0.06-0.05-0.1-0.07
	c0.22-0.15,0.78-0.17,1.27-0.06c-0.07,0.05-0.12,0.08-0.16,0.11c-0.17,0.14-0.17,0.34-0.01,0.48c0.11,0.1,0.24,0.09,0.37,0.08
	c0.17-0.02,0.22-0.11,0.15-0.25c-0.02-0.05-0.06-0.1-0.09-0.14c-0.06-0.08-0.13-0.16-0.2-0.25c0.13-0.08,0.24-0.04,0.36-0.02
	c0.1,0.02,0.21,0.06,0.31,0.1c0.11,0.03,0.25-0.03,0.3,0.11c-0.17,0.19-0.18,0.37-0.03,0.58c-0.09,0.09-0.09,0.08-0.18,0.07
	c-0.06-0.01-0.13-0.01-0.19-0.01c-0.13,0.01-0.26,0.02-0.39,0.02c-0.18,0-0.36-0.04-0.5,0.08c-0.09-0.04-0.15-0.1-0.21-0.1
	c-0.39,0.05-0.79,0.05-1.17,0.03c-0.11,0-0.22,0.01-0.33,0.04c-0.18,0.05-0.35,0.06-0.48-0.09c0.12-0.27,0.11-0.56-0.22-0.59
	c-0.1-0.01-0.18-0.01-0.22,0.08c-0.05,0.09-0.08,0.17,0.01,0.25c0.11,0.1,0.21,0.2,0.35,0.34c-0.12,0.01-0.2,0.01-0.28,0.01
	c-0.04,0-0.08-0.01-0.1,0.01c-0.13,0.1-0.28,0.07-0.42,0.05c-0.13-0.01-0.26-0.05-0.39-0.08c0.03-0.15,0.07-0.28,0.07-0.41
	c0.01-0.16-0.08-0.23-0.24-0.23c-0.04,0-0.07,0-0.11,0.01c-0.24,0.02-0.33,0.17-0.26,0.39c0.02,0.08,0.04,0.16,0.06,0.26
	c-0.31,0-0.6,0-0.89,0.01c0.01-0.22,0.15-0.4,0.07-0.61c-0.13,0-0.26,0-0.39,0c-0.13,0.01-0.18,0.09-0.18,0.23
	c0,0.16,0.11,0.24,0.2,0.36c-0.05,0.04-0.09,0.09-0.13,0.09c-0.27,0.02-0.54,0.06-0.8-0.04c-0.04-0.08-0.05-0.15,0-0.24
	C20.43,70.63,20.3,70.47,20.14,70.36z"/>
<path class="st0" d="M27.31,73.91c0,0.12,0,0.24-0.04,0.36c-0.04,0.14-0.06,0.27-0.01,0.42c0.03,0.07,0.01,0.17,0,0.25
	c-0.02,0.16-0.05,0.31-0.07,0.48c-0.03,0.2-0.01,0.41-0.05,0.62c-0.04,0.19-0.02,0.39,0,0.58c0.01,0.09,0.01,0.16-0.01,0.25
	c-0.02,0.11-0.07,0.25-0.03,0.34c0.08,0.21,0.03,0.41,0.01,0.62c-0.01,0.05-0.01,0.12,0.01,0.16c0.06,0.1,0.05,0.21,0.02,0.31
	c-0.03,0.13-0.07,0.25-0.08,0.38c-0.03,0.2,0.05,0.41-0.07,0.61c0,0,0,0.01,0,0.02c0.02,0.3-0.06,0.6,0.03,0.9
	c0.04,0.12,0.04,0.24-0.01,0.36c-0.02,0.05-0.01,0.11-0.01,0.17c0,0.09,0,0.18,0.01,0.27c0.01,0.13-0.07,0.29,0.08,0.38
	c-0.11,0.14-0.13,0.16-0.27,0.2c-0.22,0.06-0.44,0.09-0.67,0.05c-0.19-0.04-0.23-0.06-0.2-0.26c0.01-0.1,0.06-0.2,0.07-0.3
	c0.02-0.36,0.04-0.72,0.06-1.08c0-0.03-0.02-0.05-0.02-0.08c-0.01-0.05-0.02-0.09-0.02-0.13c0.02-0.18,0.09-0.38,0.07-0.55
	c-0.04-0.34,0-0.69,0.01-1.03c0-0.12-0.01-0.24-0.01-0.37c0-0.08,0.01-0.16,0.02-0.23c0.02-0.1,0.07-0.19,0.09-0.29
	c0.03-0.16,0.07-0.33,0.08-0.49c0.01-0.18,0.01-0.35,0-0.53c-0.02-0.17-0.08-0.34,0.04-0.5c0.02-0.02,0.02-0.06,0.02-0.09
	c-0.03-0.24-0.04-0.49-0.1-0.72c-0.03-0.1-0.02-0.17,0-0.27c0.03-0.14,0.06-0.29,0.07-0.44c0.02-0.26,0.05-0.51,0-0.77
	c0-0.01,0-0.02,0.01-0.02c0.13-0.23,0.04-0.48,0.04-0.71c0-0.2-0.03-0.41,0.02-0.62c-0.04-0.02-0.07-0.04-0.11-0.07
	c0.05-0.07,0.09-0.15,0.15-0.2c0.05-0.05,0.12-0.09,0.19-0.09c0.14-0.01,0.29,0.01,0.43,0.01c0.16,0,0.32-0.01,0.48-0.01
	c0.03,0,0.08,0.01,0.09,0.02c0.01,0.04,0.01,0.1-0.01,0.12c-0.06,0.03-0.12,0.05-0.21,0.08c0,0-0.02,0.03-0.03,0.05
	c-0.01,0.19-0.03,0.39-0.04,0.58c-0.01,0.12,0,0.25-0.02,0.37C27.27,73.34,27.3,73.62,27.31,73.91z"/>
<path class="st0" d="M25.17,74.93c-0.07,0.14-0.08,0.28-0.03,0.43c0.02,0.07,0.05,0.15-0.03,0.2c-0.14,0.07-0.12,0.19-0.12,0.3
	c0,0.11,0,0.21,0,0.32c0,0.06,0.01,0.11,0.01,0.17c0.03,0.24,0.05,0.48,0.08,0.72c0.01,0.08,0.02,0.16,0.02,0.24
	c0,0.24,0.01,0.48-0.03,0.71c-0.02,0.13,0.01,0.25,0,0.37c-0.02,0.14-0.04,0.27-0.06,0.41c0,0.03,0.01,0.07,0.03,0.1
	c0.13,0.2,0.01,0.44,0.1,0.65c0.01,0.02-0.02,0.05-0.04,0.08c-0.08,0.09-0.05,0.19-0.03,0.29c0.03,0.16,0.05,0.33,0.03,0.49
	c-0.02,0.21-0.08,0.42-0.12,0.64c-0.02,0.11-0.03,0.22,0.07,0.32c0.12,0.13,0.11,0.17-0.02,0.33c-0.06,0-0.12-0.03-0.17-0.01
	c-0.15,0.05-0.3,0.03-0.45,0.02c-0.11-0.01-0.17-0.06-0.17-0.18c0-0.07-0.02-0.13-0.02-0.2c0-0.15-0.04-0.31,0-0.45
	c0.07-0.27,0.03-0.51,0-0.77c-0.03-0.21-0.03-0.44-0.01-0.66c0.02-0.18,0.02-0.34-0.05-0.51c-0.02-0.06-0.01-0.12-0.02-0.19
	c0-0.05,0-0.11-0.01-0.16c-0.01-0.06-0.02-0.11-0.03-0.17c-0.02-0.08-0.04-0.17-0.07-0.28c0.14-0.08,0.05-0.21,0.02-0.33
	c-0.02-0.07-0.04-0.12-0.02-0.2c0.04-0.12,0.07-0.25,0.08-0.38c0.02-0.18-0.01-0.37,0.04-0.54c0.06-0.22,0.05-0.43,0.06-0.65
	c0-0.12-0.03-0.24-0.14-0.32c-0.09-0.06-0.09-0.14-0.05-0.23c0.03-0.06,0.07-0.11,0.1-0.16c-0.04-0.26-0.08-0.51-0.07-0.76
	c0-0.12,0.02-0.25,0.07-0.36c0.06-0.14,0.11-0.27,0.01-0.4c-0.01-0.02-0.01-0.05-0.01-0.08c0.01-0.11,0.01-0.21-0.02-0.31
	c-0.02-0.09,0.06-0.2,0.09-0.31c0.01-0.04,0-0.08,0-0.13c-0.02-0.12-0.03-0.24,0.01-0.36c0.02-0.07,0-0.15-0.02-0.23
	c0-0.03-0.02-0.06-0.02-0.1c-0.01-0.11,0-0.23-0.04-0.34c-0.02-0.08-0.01-0.13,0.04-0.18c0.05-0.06,0.12-0.11,0.14-0.13
	c0.1,0.01,0.18,0.04,0.21,0.02c0.11-0.09,0.18-0.03,0.25,0.03c0.09,0.08,0.18,0.13,0.3,0.15c0.14,0.01,0.17,0.07,0.18,0.22
	c0.01,0.27-0.07,0.55,0.02,0.82c0.01,0.03-0.01,0.07-0.01,0.11c-0.04,0.25-0.08,0.5-0.1,0.75c-0.03,0.3-0.04,0.61-0.08,0.91
	C25.04,74.76,25.05,74.86,25.17,74.93z"/>
<path class="st0" d="M23.31,81.18c0,0.24-0.17,0.41-0.42,0.39c-0.05,0-0.1,0-0.15,0c-0.22,0-0.28-0.07-0.3-0.28
	c-0.01-0.09-0.01-0.19-0.04-0.28c-0.05-0.17-0.12-0.34-0.01-0.52c0.01-0.01,0-0.04,0-0.06c0-0.14-0.01-0.29,0-0.43
	c0.01-0.13,0.01-0.24-0.03-0.36c-0.04-0.13-0.04-0.26-0.06-0.4c-0.01-0.05-0.01-0.11-0.03-0.14c-0.15-0.14-0.12-0.3-0.06-0.48
	c0.02-0.07,0.03-0.17-0.01-0.22c-0.04-0.06-0.05-0.12-0.06-0.19c-0.02-0.15-0.06-0.29,0-0.44c0.01-0.02-0.01-0.06-0.03-0.08
	c-0.1-0.13-0.08-0.28-0.06-0.44c0.03-0.24,0.12-0.48,0-0.71c-0.01-0.02,0-0.06,0-0.09c0.02-0.19,0.03-0.38,0.06-0.56
	c0.06-0.35,0.19-0.69,0.15-1.05c-0.01-0.03,0-0.08,0.01-0.11c0.07-0.15,0.02-0.29,0.01-0.43c0-0.09-0.03-0.18-0.18-0.18
	c0.12-0.16,0.24-0.29,0.07-0.45c0,0,0-0.02,0-0.02c0.02-0.16,0.03-0.32,0.06-0.48c0.03-0.13,0.07-0.25-0.11-0.33
	c0.11-0.13,0.19-0.26,0.14-0.39c-0.06-0.19,0.03-0.35,0.04-0.53c0-0.09,0.07-0.18,0.19-0.18c0.18-0.01,0.36-0.02,0.54-0.03
	c-0.03,0.13-0.07,0.23-0.07,0.34c-0.01,0.19-0.01,0.39-0.02,0.58c-0.01,0.28-0.02,0.57-0.03,0.85c-0.01,0.14-0.02,0.29-0.03,0.43
	c-0.01,0.06,0,0.13,0.01,0.19c0.01,0.08,0.05,0.17,0.05,0.25c0,0.35,0,0.7,0,1.06c0,0.05,0.01,0.1,0.01,0.15
	c-0.01,0.21-0.02,0.43,0.07,0.62c0.01,0.02,0,0.04-0.01,0.06c-0.04,0.15,0.03,0.31-0.03,0.46c-0.01,0.02,0.01,0.06,0.01,0.09
	c0.01,0.14,0.02,0.28,0.02,0.43c0,0.15-0.01,0.3-0.01,0.45c0,0.11,0.02,0.21,0.02,0.32c0,0.19,0.05,0.36,0.17,0.52
	c-0.13,0.11-0.13,0.11-0.1,0.27c0.03,0.17,0.05,0.34,0.08,0.51c0.02,0.1,0.05,0.19,0.07,0.29c0.03,0.14,0.11,0.3,0.08,0.43
	c-0.05,0.26-0.01,0.51-0.04,0.77C23.28,80.92,23.31,81.05,23.31,81.18z"/>
<path class="st0" d="M20.46,79.59c0.02-0.12,0.04-0.23,0.05-0.35c0.02-0.18,0.04-0.37,0.05-0.56c0.01-0.06,0-0.13-0.02-0.19
	c-0.08-0.18-0.15-0.36-0.19-0.56c-0.02-0.12-0.02-0.22,0.03-0.31c0.11-0.17,0.09-0.32-0.02-0.48c-0.09-0.15-0.12-0.3-0.03-0.48
	c0.05-0.11,0.02-0.25,0.01-0.38c0-0.07-0.04-0.15-0.02-0.21c0.08-0.24,0.05-0.49,0.07-0.73c0.01-0.08-0.02-0.17-0.04-0.25
	c-0.02-0.12-0.13-0.24-0.01-0.38c0.01-0.02,0-0.06,0-0.08c0-0.25-0.01-0.5,0-0.75c0-0.05,0.01-0.1,0.03-0.15
	c0.06-0.15,0.04-0.3,0.03-0.46c-0.02-0.15,0.04-0.31,0.07-0.47c0-0.01,0-0.02-0.01-0.02c-0.05-0.17-0.01-0.34,0.03-0.51
	c0.04-0.13,0.07-0.27,0.12-0.43c0.09-0.01,0.2-0.02,0.3-0.04c0.28-0.05,0.4,0.07,0.3,0.33c-0.04,0.1-0.03,0.18-0.03,0.27
	c0,0.06,0,0.12,0,0.17c-0.02,0.2-0.04,0.4-0.06,0.6c-0.01,0.06,0,0.13-0.02,0.19c-0.04,0.13-0.04,0.26-0.01,0.38
	c0.03,0.15,0.05,0.31,0.06,0.46c0.01,0.06-0.03,0.12-0.03,0.19c-0.01,0.16-0.04,0.33,0,0.48c0.04,0.13,0.07,0.26,0.06,0.4
	c-0.01,0.26-0.05,0.52,0.09,0.76c0.02,0.04,0.02,0.1,0.02,0.15c-0.01,0.35-0.02,0.7-0.03,1.05c0,0.04-0.01,0.09,0.01,0.13
	c0.04,0.07,0.04,0.12,0,0.19c-0.04,0.09-0.05,0.21,0.01,0.31c0.05-0.02,0.09-0.03,0.17-0.05c-0.04,0.1-0.07,0.18-0.09,0.26
	c-0.01,0.03-0.03,0.08-0.02,0.1c0.08,0.19,0.01,0.39,0.02,0.58c0,0.1-0.01,0.2,0.09,0.27c0.04,0.03,0.05,0.13,0.03,0.17
	c-0.09,0.17-0.06,0.33-0.02,0.49c0.09,0.34,0.16,0.67,0.06,1.02c-0.01,0.05,0.01,0.15,0.05,0.17c0.11,0.04,0.12,0.12,0.09,0.21
	c-0.03,0.1-0.1,0.17-0.21,0.16c-0.17-0.02-0.34-0.03-0.49-0.09c-0.16-0.07-0.29-0.21-0.31-0.39c-0.02-0.15,0.03-0.31,0.05-0.47
	c0.01-0.05,0.02-0.1,0.02-0.15C20.73,79.91,20.59,79.75,20.46,79.59z"/>
<path class="st0" d="M30.41,82.04c-0.02,0.07-0.06,0.13-0.08,0.2c-0.03,0.07-0.06,0.15-0.07,0.23c-0.02,0.23-0.21,0.39-0.3,0.59
	c0,0-0.02,0-0.06,0c0.02-0.05,0.04-0.09,0.06-0.14c0.06-0.17,0.12-0.34,0.17-0.52c0.03-0.09-0.03-0.14-0.11-0.12
	c-0.24,0.06-0.47,0.14-0.7,0.2c-0.08,0.02-0.16,0.03-0.24,0.03c-0.22,0.01-0.44,0-0.65,0.03c-0.37,0.04-0.74,0.11-1.11,0.14
	c-0.24,0.02-0.48,0-0.71,0c-0.35,0-0.71,0.12-1.06,0.01c-0.03-0.01-0.07-0.01-0.09,0c-0.11,0.07-0.23,0.06-0.34-0.02
	c-0.02,0.07-0.04,0.11-0.06,0.17c-0.05-0.04-0.08-0.09-0.11-0.1c-0.17-0.05-0.35-0.08-0.54-0.04c-0.02,0-0.05,0.01-0.06,0
	c-0.12-0.07-0.24-0.02-0.36,0c-0.05,0.01-0.1,0.01-0.15,0.01c-0.2,0-0.41,0.01-0.61-0.01c-0.23-0.02-0.46-0.01-0.68-0.11
	c-0.16-0.07-0.33-0.12-0.51-0.05c-0.05,0.02-0.13,0.01-0.19,0c-0.3-0.11-0.6-0.11-0.92-0.03c-0.06,0.02-0.16,0.05-0.19,0.02
	c-0.14-0.13-0.33-0.13-0.48-0.22c-0.04-0.02-0.08-0.08-0.07-0.12c0.05-0.17,0.1-0.33,0.17-0.49c0.04-0.09,0.18-0.09,0.21,0
	c0.04,0.14,0.15,0.19,0.28,0.21c0.15,0.02,0.31,0.04,0.46,0.07c0.44,0.09,0.88,0.18,1.34,0.17c0.15-0.01,0.3,0.06,0.43,0.01
	c0.14-0.05,0.24,0,0.35,0.03c0.06,0.02,0.13,0.03,0.2,0.03c0.23-0.01,0.46,0.02,0.68-0.04c0.29-0.07,0.56,0.07,0.84-0.04
	c0.01-0.01,0.04-0.01,0.04,0c0.12,0.11,0.27,0.03,0.41,0.03c0.09,0,0.19,0.01,0.28,0.01c0.14-0.01,0.29-0.01,0.43-0.02
	c0.11-0.01,0.24-0.06,0.34-0.03c0.09,0.02,0.17,0,0.25-0.01c0.26-0.02,0.51-0.16,0.78-0.11C27.78,82.01,27.9,82,28.01,82
	c0.26,0,0.51-0.01,0.76-0.02c0.07,0,0.15-0.03,0.21-0.05c0.19-0.07,0.38-0.12,0.58-0.09c0.03,0,0.07,0.02,0.11,0.01
	c0.15-0.03,0.3-0.06,0.45-0.09C30.33,81.72,30.46,81.85,30.41,82.04z"/>
<path class="st0" d="M31.8,74.98c-0.02,0.08-0.02,0.17-0.01,0.26c0.01,0.17,0.02,0.35-0.05,0.51c-0.1,0.22-0.1,0.45-0.05,0.68
	c0.01,0.09,0,0.18-0.01,0.28c-0.01,0.08-0.04,0.16-0.05,0.23c-0.03,0.2-0.05,0.4-0.07,0.6c-0.02,0.16-0.1,0.32-0.05,0.49
	c0.01,0.04-0.03,0.12-0.07,0.15c-0.09,0.07-0.11,0.15-0.08,0.25c0.02,0.08,0.03,0.17,0.03,0.25c0.01,0.18,0.03,0.38-0.1,0.52
	c-0.14,0.15-0.15,0.31-0.14,0.48c0,0.11,0.01,0.25-0.05,0.33c-0.13,0.19-0.14,0.35,0.01,0.52c-0.18,0.13-0.28,0.29-0.29,0.5
	c-0.01,0.08-0.05,0.13-0.14,0.13c-0.06,0.01-0.13,0.04-0.19,0.03c-0.18-0.01-0.35,0.01-0.5,0.12c-0.02,0.02-0.05,0.04-0.08,0.04
	c-0.04,0.01-0.09,0-0.14,0c0.01-0.05-0.01-0.1,0.01-0.14c0.04-0.07,0.1-0.13,0.13-0.2c0.14-0.3,0.21-0.62,0.26-0.94
	c0-0.04,0.02-0.09,0.01-0.13c-0.06-0.16,0.01-0.32,0.05-0.47c0.03-0.12,0.05-0.21-0.02-0.31c-0.05-0.07-0.05-0.14,0.01-0.19
	c0.07-0.06,0.07-0.14,0.08-0.22c0.04-0.39,0.08-0.79,0.12-1.19c0-0.05,0.02-0.1,0.04-0.15c0.11-0.19,0.1-0.39,0.04-0.58
	c0.18-0.24,0.25-0.45,0.26-0.74c0-0.08,0.02-0.17,0.03-0.26c0.01-0.14,0.02-0.28,0.04-0.41c0.05-0.28-0.07-0.58,0.13-0.85
	c0.02-0.03,0.01-0.09,0.02-0.13c0.01-0.17-0.01-0.34,0.03-0.5c0.09-0.36,0.06-0.72,0.11-1.08c0.03-0.23,0.03-0.46,0.06-0.68
	c0.02-0.15,0.07-0.3,0.12-0.48c0.34-0.05,0.67-0.1,1.02-0.16c0.01,0.06,0.06,0.16,0.03,0.21c-0.09,0.17-0.05,0.34-0.07,0.51
	c-0.01,0.06-0.02,0.13-0.05,0.19c-0.06,0.11-0.05,0.19,0.03,0.26c-0.09,0.29-0.25,0.56-0.19,0.86c0,0.01-0.01,0.03-0.01,0.04
	c-0.06,0.14-0.09,0.29-0.05,0.44c0.01,0.05,0.01,0.11-0.01,0.15C31.84,74.48,31.86,74.74,31.8,74.98z"/>
<path class="st0" d="M34.85,73.7c-0.01,0.05-0.06,0.1-0.09,0.15c-0.05,0.07-0.11,0.13-0.14,0.2c-0.28,0.59-0.69,1.11-0.87,1.74
	c-0.03,0.11-0.06,0.23-0.06,0.34c0,0.16-0.05,0.31-0.12,0.46c-0.09,0.23-0.16,0.46-0.24,0.7c0,0.01,0,0.01,0,0.02
	c0,0.16,0.01,0.32-0.12,0.45c0.05,0.21-0.1,0.39-0.12,0.58c-0.02,0.18-0.04,0.34-0.15,0.49c-0.03,0.03-0.04,0.08-0.05,0.12
	c-0.14,0.42-0.28,0.84-0.41,1.27c-0.08,0.26-0.27,0.38-0.52,0.53c0.01-0.14,0.01-0.22,0.03-0.3c0.05-0.16,0.11-0.32,0.16-0.48
	c0.09-0.29,0.18-0.58,0.22-0.89c0.04-0.31,0.15-0.61,0.19-0.91c0.1-0.61,0.22-1.21,0.36-1.81c0.1-0.44,0.16-0.88,0.3-1.31
	c0.11-0.34,0.18-0.69,0.23-1.04c0.05-0.36,0.06-0.73,0.18-1.09c0.01-0.03,0-0.06,0.01-0.08c0-0.24,0.06-0.48,0.02-0.71
	c-0.02-0.13,0.02-0.26,0.15-0.31c0.12-0.05,0.25-0.08,0.39-0.04c0.16,0.04,0.33,0.1,0.5-0.02c0.06-0.04,0.16-0.09,0.2-0.07
	c0.14,0.08,0.25,0.01,0.39-0.07c0.02,0.06,0.04,0.1,0.03,0.13c-0.05,0.24-0.01,0.51-0.16,0.73c-0.01,0.02-0.03,0.06-0.02,0.08
	c0.04,0.15-0.04,0.28-0.07,0.42C34.99,73.21,34.92,73.45,34.85,73.7z"/>
<path class="st0" d="M41.88,76.75c0,0.04-0.02,0.07-0.05,0.14c-0.12-0.17-0.23-0.31-0.29-0.48c-0.02-0.04-0.07-0.11-0.1-0.11
	c-0.11,0-0.16-0.07-0.21-0.14c-0.12-0.17-0.23-0.36-0.36-0.53c-0.16-0.22-0.33-0.42-0.5-0.63c-0.04-0.06-0.09-0.11-0.14-0.16
	c-0.21-0.2-0.34-0.47-0.66-0.55c-0.05-0.01-0.08-0.07-0.12-0.12c-0.11-0.14-0.22-0.29-0.33-0.42c-0.17-0.19-0.36-0.37-0.54-0.55
	c-0.07-0.08-0.14-0.17-0.22-0.23c-0.29-0.23-0.6-0.45-0.89-0.69c-0.11-0.09-0.21-0.15-0.34-0.11c-0.03-0.06-0.04-0.15-0.08-0.16
	c-0.22-0.11-0.46-0.21-0.69-0.29c-0.2-0.07-0.4-0.12-0.6-0.19c0.01-0.11,0.02-0.2,0.03-0.28c0.01-0.12,0.08-0.15,0.17-0.08
	c0.03,0.03,0.06,0.07,0.1,0.08c0.23,0.05,0.45,0.11,0.67,0.22c0.24,0.12,0.51,0.2,0.73,0.37c0.16,0.12,0.36,0.19,0.51,0.32
	c0.41,0.34,0.9,0.58,1.26,0.97c0.01,0.01,0.03,0.02,0.05,0.04c0.1,0.08,0.2,0.16,0.29,0.25c0.14,0.15,0.27,0.3,0.39,0.45
	c0.08,0.1,0.16,0.21,0.23,0.31c0.07,0.08,0.13,0.17,0.2,0.25c0.14,0.16,0.28,0.31,0.41,0.47c0.09,0.11,0.19,0.22,0.25,0.35
	c0.1,0.27,0.32,0.43,0.54,0.59c0.16,0.12,0.29,0.26,0.32,0.45C41.93,76.43,41.9,76.6,41.88,76.75z"/>
<path class="st0" d="M41,67.78c-0.33,0.05-0.65,0.09-0.98,0.13c-0.5,0.06-1,0.16-1.51,0.17c-0.15,0-0.31-0.02-0.45-0.04
	c-0.28-0.03-0.56-0.06-0.84-0.08c-0.11-0.01-0.22-0.02-0.33-0.03c-0.17-0.02-0.36-0.01-0.48-0.17c0.12-0.18,0.09-0.35,0.08-0.51
	c-0.01-0.15,0.02-0.28,0.06-0.41c0.02-0.09,0.06-0.18,0.08-0.26c0.03-0.18,0.11-0.22,0.28-0.14c0.12,0.05,0.26,0.07,0.39,0.1
	c0.04,0.01,0.11,0.01,0.13,0.04c0.08,0.1,0.19,0.1,0.29,0.1c0.18,0.01,0.35,0.02,0.52,0.03c0.14,0.01,0.27,0.06,0.41-0.04
	c0.02-0.01,0.07,0.01,0.1,0.01c0.16,0.02,0.33,0.08,0.49,0.06c0.38-0.05,0.75-0.13,1.12-0.2c0.18-0.03,0.35-0.07,0.53-0.08
	c0.19,0,0.4-0.01,0.59-0.14c0.15-0.1,0.36-0.18,0.56-0.08c0,0.05,0.01,0.09,0.01,0.14c0,0.22,0.01,0.44,0.01,0.66
	c0,0.12-0.01,0.23-0.03,0.35c-0.01,0.06-0.05,0.14-0.1,0.15C41.63,67.64,41.32,67.73,41,67.78z"/>
<g>
	<path class="st0" d="M21.5,38.28c0.09-0.03,0.14-0.04,0.24-0.07c-0.09-0.07-0.13-0.09-0.19-0.13
		C21.54,38.14,21.53,38.19,21.5,38.28z"/>
</g>
<g>
	<path class="st0" d="M21.41,39.1c0.02,0.15-0.08,0.29-0.01,0.47c0.05-0.07,0.11-0.11,0.12-0.15c0-0.11-0.03-0.22-0.04-0.32
		C21.47,39.1,21.45,39.1,21.41,39.1z"/>
</g>
<g>
	<g>
		<path class="st0" d="M27.99,47.03c-0.18,0.1-0.36,0.22-0.55,0.25c-0.25,0.03-0.48,0.14-0.72,0.19c-0.3,0.06-0.62,0.14-0.91,0.12
			c-0.45-0.03-0.89-0.05-1.33,0.04c-0.22,0.05-0.37-0.02-0.53-0.15c-0.1-0.08-0.21-0.14-0.32-0.2c-0.22-0.13-0.45-0.25-0.65-0.39
			c-0.25-0.18-0.32-0.52-0.58-0.7c-0.02-0.01-0.02-0.06-0.03-0.08c-0.04-0.1-0.07-0.21-0.14-0.29c-0.22-0.25-0.31-0.56-0.38-0.87
			c-0.13-0.59-0.19-1.2-0.11-1.83c0.04-0.35,0.08-0.69,0.04-1.04c-0.05-0.42,0.03-0.82,0.22-1.21c0.05-0.11,0.08-0.21,0.09-0.34
			c0.01-0.2,0.11-0.39,0.27-0.53c0.23-0.21,0.23-0.21,0.11-0.49c-0.02-0.03-0.02-0.06-0.04-0.09c-0.31,0.15-0.4,0.14-0.63-0.03
			c0.01-0.03,0.03-0.07,0.03-0.1c-0.04-0.19,0.1-0.31,0.18-0.45c0.1-0.21,0.28-0.15,0.44-0.11c0.01,0,0.02,0,0.02-0.01
			c0.12-0.04,0.18,0.02,0.21,0.12c0.04,0.1,0.06,0.21,0.1,0.34c0.15-0.09,0.33-0.19,0.5-0.29c0.36-0.2,0.75-0.32,1.13-0.46
			c0.35-0.14,0.74-0.31,1.15-0.21c0.01,0,0.04,0,0.05-0.01c0.37-0.12,0.7-0.05,1.02,0.13c0.05,0.03,0.12,0.04,0.19,0.04
			c0.38,0.02,0.71,0.17,1.05,0.32c0.06,0.03,0.12,0.06,0.16,0.1c0.2,0.2,0.47,0.28,0.7,0.43c0.29,0.18,0.65,0.29,0.73,0.74
			c0.07-0.11,0.1-0.17,0.15-0.23c0.09-0.12,0.17-0.24,0.28-0.35c0.11-0.11,0.43-0.12,0.45-0.01c0.03,0.17,0.19,0.07,0.25,0.16
			c-0.01,0.3-0.1,0.44-0.37,0.51c-0.18,0.05-0.37,0.07-0.58,0.11c0.02,0.04,0.05,0.08,0.08,0.12c0.07,0.1,0.14,0.19,0.2,0.29
			c0.25,0.38,0.43,0.8,0.56,1.24c0.1,0.36,0.21,0.73,0.23,1.1c0.02,0.43-0.12,0.86-0.26,1.27c-0.02,0.07-0.06,0.13-0.1,0.2
			c-0.11,0.17-0.25,0.33-0.32,0.52c-0.22,0.51-0.7,0.83-0.99,1.28c-0.24,0.07-0.36,0.29-0.54,0.42c-0.07,0.06-0.12,0.15-0.19,0.25
			c-0.06,0-0.15,0-0.22,0C28.04,46.92,28.03,47,27.99,47.03z M26.89,38.99c-0.04-0.06-0.21-0.05-0.31-0.02
			c-0.26,0.08-0.52,0.06-0.78,0.08c-0.33,0.02-0.67,0.08-0.99,0.24c-0.28,0.14-0.6,0.22-0.9,0.33c-0.06,0.02-0.12,0.06-0.17,0.1
			c-0.34,0.31-0.64,0.66-0.84,1.07c-0.11,0.23-0.14,0.5-0.2,0.75c-0.08,0.35-0.15,0.69-0.11,1.06c0,0.03,0,0.09-0.02,0.1
			c-0.17,0.15-0.14,0.36-0.2,0.54c-0.08,0.23-0.03,0.43,0.09,0.64c-0.02,0.04-0.04,0.08-0.08,0.1c-0.14,0.11-0.16,0.24-0.09,0.39
			c0.03,0.06,0.03,0.14,0.04,0.21c0.03,0.3,0.14,0.57,0.3,0.83c0.03,0.05,0.06,0.1,0.07,0.15c0.1,0.36,0.36,0.63,0.58,0.91
			c0.06,0.08,0.15,0.14,0.23,0.19c0.06,0.03,0.16,0.07,0.21,0.04c0.23-0.12,0.41-0.01,0.61,0.04c0.42,0.12,0.83,0.28,1.26,0.33
			c0.34,0.05,0.71-0.02,1.06-0.07c0.55-0.09,1-0.39,1.42-0.75c0.08-0.07,0.16-0.16,0.24-0.24c0.05-0.05,0.09-0.13,0.15-0.17
			c0.52-0.27,0.79-0.75,1.11-1.2c0.29-0.39,0.44-0.84,0.61-1.28c0.1-0.28,0.03-0.55-0.03-0.82c-0.07-0.31-0.16-0.62-0.26-0.92
			c-0.18-0.49-0.39-0.97-0.72-1.37c-0.26-0.32-0.53-0.66-0.91-0.85c-0.24-0.12-0.5-0.2-0.76-0.24c-0.14-0.02-0.25-0.03-0.3-0.22
			C27.07,39.07,27,39.12,26.89,38.99z"/>
	</g>
	<g>
		<path class="st0" d="M21.12,41.85c0.16-0.2,0.33-0.38,0.48-0.58c0.16-0.22,0.15-0.35-0.02-0.55c-0.12-0.14-0.3-0.14-0.44-0.01
			c-0.11,0.11-0.24,0.21-0.34,0.33c-0.07,0.07-0.14,0.16-0.09,0.28c0.01,0.02,0.01,0.05,0.02,0.08c0.03,0.12,0.02,0.27,0.09,0.36
			C20.87,41.84,21.02,41.83,21.12,41.85z"/>
	</g>
	<g>
		<path class="st0" d="M25.95,37.98c0.11,0.01,0.22,0.03,0.33,0.04c0.35,0.02,0.67-0.22,0.72-0.57c0.03-0.18-0.18-0.37-0.36-0.34
			c-0.16,0.03-0.31,0.1-0.46,0.15c-0.12,0.04-0.23,0.11-0.2,0.27c0.01,0.03,0,0.09-0.02,0.1C25.8,37.76,25.91,37.86,25.95,37.98z"/>
	</g>
	<g>
		<path class="st0" d="M28.46,47.73c0.27-0.09,0.56-0.17,0.83-0.29c0.11-0.05,0.19-0.2,0.25-0.32c0.02-0.04-0.03-0.12-0.07-0.16
			c-0.21-0.21-0.47-0.21-0.73-0.05c-0.2,0.13-0.29,0.31-0.38,0.5C28.32,47.51,28.33,47.61,28.46,47.73z"/>
	</g>
	<g>
		<path class="st0" d="M26.34,48.6c0.3,0.17,0.61,0.14,0.85-0.11c0.11-0.11,0.21-0.24,0.31-0.36c0.09-0.11-0.02-0.29-0.17-0.29
			c-0.1-0.01-0.2-0.01-0.3-0.01c-0.05,0-0.11,0-0.14,0.02C26.66,48.05,26.35,48.2,26.34,48.6z"/>
	</g>
	<g>
		<path class="st0" d="M28.56,38.5c0.24-0.01,0.41-0.05,0.56-0.17c0.1-0.09,0.12-0.18,0.11-0.29c-0.01-0.12-0.1-0.17-0.21-0.18
			c-0.17-0.01-0.3-0.13-0.49-0.09c-0.17,0.03-0.42,0.15-0.48,0.31c-0.07,0.19,0,0.32,0.2,0.36C28.37,38.46,28.5,38.49,28.56,38.5z"
			/>
	</g>
	<g>
		<path class="st0" d="M21.36,43.46c0.05-0.2-0.12-0.29-0.25-0.39c-0.02-0.01-0.06-0.03-0.08-0.02c-0.13,0.07-0.27,0.14-0.39,0.22
			c-0.04,0.03-0.04,0.11-0.07,0.16c-0.07,0.2-0.04,0.38,0.06,0.56c0.11,0.18,0.31,0.21,0.46,0.07
			C21.24,43.93,21.36,43.67,21.36,43.46z"/>
	</g>
	<g>
		<path class="st0" d="M21.12,45.6c0.05,0.27-0.14,0.61,0.23,0.8c0.18-0.08,0.34-0.16,0.5-0.24c0.02-0.01,0.03-0.04,0.05-0.07
			c0.11-0.17,0.07-0.47-0.06-0.59c-0.09-0.09-0.2-0.13-0.33-0.07C21.38,45.49,21.26,45.54,21.12,45.6z"/>
	</g>
	<g>
		<path class="st0" d="M31.8,43.14c-0.05,0-0.08,0-0.12,0.01c0.01-0.06,0.01-0.12,0.03-0.2c-0.07-0.02-0.16-0.07-0.21-0.05
			c-0.2,0.08-0.44,0.08-0.58,0.29c-0.04,0.06-0.08,0.12-0.1,0.19c-0.03,0.1-0.08,0.22,0.03,0.27c0.09,0.05,0.23,0.09,0.31,0.06
			C31.42,43.6,31.68,43.46,31.8,43.14z"/>
	</g>
	<g>
		<path class="st0" d="M31.42,40.94c-0.3-0.18-0.58-0.19-0.85,0.02c-0.1,0.08-0.16,0.22-0.13,0.36c0.03,0.12,0.12,0.17,0.24,0.18
			c0.24,0.02,0.47-0.04,0.63-0.23C31.38,41.2,31.38,41.06,31.42,40.94z"/>
	</g>
	<g>
		<path class="st0" d="M24.59,48.55c0.32,0,0.5-0.21,0.71-0.37c0.08-0.06,0.06-0.23-0.01-0.3c-0.18-0.19-0.45-0.17-0.62,0.04
			c-0.06,0.08-0.13,0.17-0.21,0.23c-0.1,0.08-0.12,0.18-0.07,0.26C24.43,48.47,24.52,48.5,24.59,48.55z"/>
	</g>
	<g>
		<path class="st0" d="M29.91,45.65c0.22,0.02,0.43,0.09,0.64-0.08c0.18-0.15,0.31-0.41,0.18-0.57c-0.07-0.08-0.14-0.12-0.24-0.11
			c-0.24,0.02-0.62,0.41-0.61,0.65C29.88,45.58,29.9,45.61,29.91,45.65z"/>
	</g>
	<g>
		<path class="st0" d="M23.82,38.29c0.26-0.02,0.53-0.22,0.57-0.44c0.04-0.18-0.04-0.29-0.21-0.27c-0.22,0.03-0.45,0.06-0.61,0.26
			c-0.07,0.09-0.17,0.16-0.09,0.26c0.06,0.08,0.17,0.13,0.26,0.19C23.76,38.3,23.79,38.29,23.82,38.29z"/>
	</g>
</g>
<g>
	<path class="st0" d="M33.72,70.32c-0.1-0.01-0.2,0-0.25,0.12c-0.05,0.12-0.01,0.2,0.07,0.27c0.05,0.05,0.1,0.1,0.16,0.14
		c0.09,0.06,0.2,0.1,0.31,0.02c0.1-0.07,0.17-0.16,0.15-0.3c-0.02-0.13-0.1-0.21-0.24-0.24C33.85,70.32,33.79,70.33,33.72,70.32z"/>
</g>
</svg>
